<?xml version="1.0" encoding="UTF-8"?><svg id="Layer_2" xmlns="http://www.w3.org/2000/svg" viewBox="0 0 10.62 7.24"><defs><style>.cls-1{fill:#d9d9d9;}</style></defs><g id="Layer_2-2"><path id="Icon_material-remove-red-eye" class="cls-1" d="M5.31,0C2.96,0,.86,1.44,0,3.62c1.15,2.93,4.46,4.38,7.39,3.23,1.48-.58,2.65-1.75,3.23-3.23C9.76,1.44,7.66,0,5.31,0Zm0,6.03c-1.33,0-2.41-1.08-2.41-2.41,0-1.33,1.08-2.41,2.41-2.41,1.33,0,2.41,1.08,2.41,2.41h0c0,1.33-1.08,2.41-2.41,2.41Zm0-3.86c-.8,0-1.45,.65-1.45,1.45s.65,1.45,1.45,1.45,1.45-.65,1.45-1.45c0-.8-.65-1.45-1.44-1.45,0,0,0,0,0,0Z"/></g></svg>