<?xml version="1.0" encoding="UTF-8"?><svg id="Layer_2" xmlns="http://www.w3.org/2000/svg" viewBox="0 0 57.82 59.83"><defs><style>.cls-1{fill:#68bbea;}.cls-2{fill:#27367e;}</style></defs><g id="Layer_1-2"><g><path class="cls-1" d="M57.01,51.46c-.49,.48-.99,.94-1.52,1.38-1.78,1.49-3.75,2.74-5.88,3.72-.65,.31-1.32,.59-2,.83l-4.83-4.83c-.16-.16-.32-.34-.45-.52-4.19,2.52-9.1,3.96-14.33,3.96-.63,0-1.26-.02-1.88-.07-1.42-.74-2.77-1.62-4.02-2.61-6.15-4.85-10.1-12.37-10.1-20.82,0-2.05,.23-4.04,.68-5.95h0C15.38,14.78,25.91,6,38.5,6c1.27,0,2.52,.09,3.74,.26,1.61,.23,3.18,.6,4.68,1.11,5.58,5.13,9.08,12.48,9.08,20.63,0,6.25-2.06,12.03-5.54,16.69,.04,.03,.07,.06,.1,.09l5.66,5.66c.31,.31,.58,.66,.79,1.02Z"/><g><path class="cls-2" d="M57.01,51.46c-.21-.36-.48-.71-.79-1.02l-5.66-5.66s-.06-.06-.1-.09c3.48-4.66,5.54-10.44,5.54-16.69,0-8.15-3.5-15.5-9.08-20.63C41.93,2.8,35.29,0,28,0,12.56,0,0,12.56,0,28s11.55,26.97,26.12,27.93c.62,.05,1.25,.07,1.88,.07,5.23,0,10.14-1.44,14.33-3.96,.13,.18,.29,.36,.45,.52l4.83,4.83,.83,.83c1.07,1.07,2.48,1.61,3.89,1.61s2.82-.54,3.89-1.61c1.83-1.84,2.09-4.65,.79-6.76Zm-15.6-1.19c-3.91,2.36-8.51,3.73-13.41,3.73-2.03,0-4-.23-5.9-.68C10.59,50.65,2,40.31,2,28,2,13.66,13.66,2,28,2c5.25,0,10.15,1.57,14.24,4.26,7.08,4.65,11.76,12.65,11.76,21.74,0,5.85-1.94,11.25-5.21,15.6-.43,.57-.88,1.12-1.35,1.65-1.27,1.43-2.69,2.71-4.24,3.83-.58,.42-1.17,.82-1.79,1.19Zm13.39,6.53c-1.36,1.37-3.58,1.37-4.95,0l-.24-.24-5.41-5.41c-.07-.07-.13-.14-.18-.21,1.92-1.33,3.66-2.91,5.19-4.68l5.59,5.59c.29,.3,.53,.63,.69,.99,.62,1.3,.38,2.89-.69,3.96Z"/><path class="cls-2" d="M8.01,31.76c-.27,0-.54-.11-.74-.33-.37-.41-.34-1.04,.07-1.41l12.2-11.01c1.34-1.21,3.42-1.19,4.73,.05l5.52,5.21c.59,.55,1.5,.54,2.07-.03l7.7-7.69c.39-.39,1.02-.39,1.41,0s.39,1.02,0,1.41l-7.7,7.69c-1.34,1.34-3.48,1.37-4.86,.07l-5.52-5.21c-.56-.53-1.44-.54-2.01-.02l-12.2,11.01c-.19,.17-.43,.26-.67,.26Z"/><path class="cls-2" d="M12.88,38.88c-.29,0-.57-.12-.77-.36-.35-.42-.3-1.05,.12-1.41l7.32-6.14c1.31-1.18,3.39-1.16,4.7,.08l5.52,5.21c.59,.55,1.5,.54,2.07-.03l12.95-12.95c.39-.39,1.02-.39,1.41,0s.39,1.02,0,1.41l-12.95,12.95c-1.34,1.34-3.48,1.37-4.86,.07l-5.52-5.21c-.56-.53-1.44-.54-2.01-.02l-7.35,6.16c-.19,.16-.42,.23-.64,.23Z"/></g></g></g></svg>