<?xml version="1.0" encoding="UTF-8"?><svg id="Layer_2" xmlns="http://www.w3.org/2000/svg" viewBox="0 0 62.79 72"><defs><style>.cls-1{fill:#68bbea;}.cls-2{fill:#27367e;}</style></defs><g id="Layer_1-2"><g><path class="cls-1" d="M22.92,63.57v.83c0,7.05-3.97,7.6-5.19,7.6h-4.47l.76-.38,.3-.15,.94-.47h5l.12-.33,2.17-5.99v-1.82c.23,.15,.37,.41,.37,.71Z"/><path class="cls-1" d="M30.31,50.86h-6.87v3.95c0,.35-.22,.67-.54,.8-.11,.05-.22,.07-.33,.07h-.02v-1.22l.37-4.46h7.29l.06,.48,.04,.38Z"/><path class="cls-1" d="M28.26,50.31v.55h-4.82v3.95c0,.35-.22,.67-.54,.8-.11,.05-.22,.07-.33,.07h-.02v7.18c.23,.15,.37,.41,.37,.71v.83c0,7.05-3.97,7.6-5.19,7.6h-3.05c-.11-.12-.19-.25-.27-.38-.04-.05-.07-.1-.09-.15-.17-.26-.31-.54-.43-.83-.06-.12-.11-.24-.15-.37-.31-.8-.48-1.67-.48-2.58v-17.38c0-1.09,.24-2.12,.67-3.05,.05-.13,.11-.24,.18-.36h0c.15-.31,.33-.59,.53-.86,.07-.11,.15-.21,.23-.3,1.33-1.67,3.39-2.74,5.7-2.74h.38c3.64,0,6.65,2.65,7.2,6.13,.03,.12,.05,.24,.06,.37,.02,.16,.04,.33,.03,.5,.02,.1,.02,.21,.02,.31Z"/><path class="cls-1" d="M59.26,50.37v.78c-.16,.02-.32,.03-.48,.03h-1.07v13.22c0,6.85-3.75,7.56-5.08,7.6h-.11c-.71-.01-1.39-.14-2.03-.38-.66-.22-1.26-.56-1.8-.98-.15-.11-.29-.24-.43-.37-1.23-1.16-2-2.81-2-4.64v-15.26c0-3.52,2.85-6.37,6.37-6.37h.26c3.19,0,5.83,2.34,6.29,5.4,.03,.12,.04,.24,.05,.37,.02,.2,.03,.4,.03,.6Z"/><path class="cls-1" d="M62.79,28.03v16.8c0,2.21-1.54,4.06-3.53,4.32-.16,.02-.32,.03-.48,.03h-1.07v.82H13.5c-.08,0-.16,0-.24-.01-3.34-.12-6-2.86-6-6.23v-12.52c0-3.45,2.79-6.24,6.24-6.24H58.02c.95,0,1.85,.21,2.66,.6,.16,.07,.32,.16,.47,.25,.42,.24,.81,.53,1.16,.87,.16,.14,.31,.29,.44,.46,.03,.28,.04,.56,.04,.85Z"/><path class="cls-1" d="M58.69,8.75c0,4.83-3.86,8.76-8.61,8.76-.22,0-.44-.01-.65-.03-.56-.6-1.03-1.28-1.39-2.03-.5-1.05-.78-2.21-.78-3.45,0-4.38,3.51-7.93,7.87-8h.13c.78,0,1.53,.11,2.24,.32,.75,1.3,1.19,2.81,1.19,4.43Z"/><path class="cls-1" d="M23.91,8.75c0,4.83-3.86,8.76-8.61,8.76-.3,0-.59-.02-.88-.05h0c-.58-.62-1.06-1.33-1.41-2.11-.48-1.02-.74-2.15-.74-3.35,0-4.42,3.58-8,8-8h.09c.85,.01,1.66,.15,2.42,.4,.72,1.28,1.14,2.77,1.14,4.35Z"/><g><g><g><path class="cls-2" d="M22.77,4.4C21.28,1.77,18.49,0,15.3,0,10.56,0,6.7,3.93,6.7,8.75c0,4.52,3.39,8.26,7.71,8.71h0c.29,.03,.58,.05,.88,.05,4.75,0,8.61-3.93,8.61-8.76,0-1.58-.42-3.07-1.14-4.35Zm-7.47,11.37c-.81,0-1.58-.14-2.3-.42-2.66-.95-4.57-3.55-4.57-6.6,0-3.87,3.08-7.02,6.87-7.02,2,0,3.8,.87,5.05,2.27,1.13,1.25,1.82,2.92,1.82,4.75,0,3.87-3.08,7.02-6.87,7.02Z"/><g><path class="cls-2" d="M22.92,63.57v.83c0,7.05-3.97,7.6-5.19,7.6h-7.46c-1.22,0-5.19-.55-5.19-7.6v-13.22h-1.08c-2.21,0-4-1.96-4-4.35V30.03c0-4.9,3.37-8.59,7.85-8.59h11.27c.47,0,.86,.38,.86,.86s-.39,.87-.86,.87H7.85c-3.49,0-6.12,2.95-6.12,6.86v16.8c0,1.44,1.02,2.61,2.27,2.61h1.94c.48,0,.87,.39,.87,.87v14.09c0,3.73,1.26,5.87,3.46,5.87h7.46c2.2,0,3.46-2.14,3.46-5.87v-.83c0-.48,.39-.87,.87-.87,.18,0,.35,.06,.49,.16,.23,.15,.37,.41,.37,.71Z"/><path class="cls-2" d="M7.85,21.81C3.59,21.81,.37,25.34,.37,30.03v16.8c0,2.19,1.63,3.98,3.63,3.98h1.45v13.6c0,6.71,3.69,7.23,4.82,7.23h7.46c1.13,0,4.81-.52,4.81-7.23v-.83c0-.27-.22-.49-.49-.49s-.49,.22-.49,.49v.83c0,3.97-1.4,6.24-3.83,6.24h-7.46c-2.44,0-3.84-2.28-3.84-6.24v-14.09c0-.27-.22-.49-.49-.49h-1.94c-1.46,0-2.65-1.34-2.65-2.99V30.03c0-4.12,2.79-7.23,6.49-7.23h11.27c.27,0,.49-.22,.49-.49s-.22-.49-.49-.49H7.85Z"/></g></g><g><path class="cls-2" d="M57.5,4.32c-1.5-2.58-4.26-4.32-7.42-4.32-4.74,0-8.6,3.93-8.6,8.75s3.51,8.4,7.95,8.73c.21,.02,.43,.03,.65,.03,4.75,0,8.61-3.93,8.61-8.76,0-1.62-.44-3.13-1.19-4.43Zm-7.42,11.45c-.71,0-1.4-.11-2.04-.32-2.8-.89-4.83-3.56-4.83-6.7,0-3.87,3.08-7.02,6.87-7.02,2,0,3.8,.87,5.05,2.27,1.13,1.25,1.82,2.92,1.82,4.75,0,3.87-3.08,7.02-6.87,7.02Z"/><g><path class="cls-2" d="M62.79,30.03v16.8c0,2.21-1.54,4.06-3.53,4.32-.16,.02-.32,.03-.48,.03h-1.07v13.22c0,6.85-3.75,7.56-5.08,7.6h-7.58c-1.22,0-5.19-.55-5.19-7.6v-7.91c0-.48,.38-.87,.86-.87s.87,.39,.87,.87v7.91c0,3.73,1.26,5.87,3.46,5.87h7.47c2.19,0,3.45-2.14,3.45-5.87v-14.09c0-.48,.39-.87,.87-.87h1.94c.14,0,.27-.01,.4-.04,1.07-.22,1.88-1.29,1.88-2.57V30.03c0-.86-.13-1.68-.38-2.43-.83-2.64-3.02-4.43-5.74-4.43h-8.69c-.48,0-.87-.39-.87-.87s.39-.86,.87-.86h8.69c4.22,0,7.45,3.27,7.81,7.74,.03,.28,.04,.56,.04,.85Z"/><path class="cls-2" d="M40.72,56c-.27,0-.49,.22-.49,.49v7.91c0,6.71,3.69,7.23,4.82,7.23h7.46c1.13,0,4.81-.52,4.81-7.23v-13.6h1.45c2,0,3.63-1.78,3.63-3.98V30.03c0-4.68-3.21-8.22-7.47-8.22h-8.69c-.27,0-.49,.22-.49,.49s.22,.49,.49,.49h8.69c3.7,0,6.49,3.11,6.49,7.23v16.8c0,1.65-1.19,2.99-2.65,2.99h-1.94c-.27,0-.49,.22-.49,.49v14.09c0,3.97-1.4,6.24-3.83,6.24h-7.46c-2.44,0-3.84-2.28-3.84-6.24v-7.91c0-.27-.22-.49-.49-.49Z"/></g></g></g><g><path class="cls-2" d="M36.99,43.74v-3.95h-14.42c-.48,0-.87-.39-.87-.87v-2.7l-8.09,8.24,1.26,1.28,6.83,6.95v-2.7c0-.48,.39-.86,.87-.86h15.29c.47,0,.86,.38,.86,.86s-.39,.87-.86,.87h-14.42v3.95c0,.35-.22,.67-.54,.8-.11,.05-.22,.07-.33,.07h-.02c-.22-.01-.43-.1-.6-.26l-8.02-8.16-2.15-2.19c-.33-.34-.33-.88,0-1.22l10.17-10.35c.25-.25,.62-.33,.95-.2,.32,.14,.54,.45,.54,.81v3.95h14.42c.47,0,.86,.39,.86,.86v2.7l8.09-8.23-8.09-8.23v2.7c0,.48-.39,.86-.86,.86h-15.29c-.48,0-.87-.38-.87-.86s.39-.87,.87-.87h14.42v-3.95c0-.35,.21-.67,.54-.8,.32-.14,.7-.06,.94,.19l10.18,10.35c.33,.34,.33,.88,0,1.22l-10.18,10.35c-.24,.25-.62,.33-.94,.2-.33-.14-.54-.45-.54-.81Z"/><path class="cls-2" d="M22.57,33.61c-.13,0-.26,.05-.35,.15l-10.17,10.35c-.19,.19-.19,.5,0,.69l10.17,10.35c.14,.14,.36,.19,.54,.11,.19-.08,.31-.25,.31-.46v-4.33h14.79c.27,0,.49-.22,.49-.49s-.22-.49-.49-.49h-15.29c-.27,0-.49,.22-.49,.49v3.62l-8.99-9.15,8.99-9.15v3.62c0,.27,.22,.49,.49,.49h14.79v4.33c0,.2,.12,.38,.31,.46,.18,.08,.4,.03,.54-.11l10.17-10.35c.19-.19,.19-.5,0-.69l-10.17-10.35c-.14-.14-.35-.19-.54-.11-.19,.08-.3,.25-.3,.46v4.33h-14.79c-.27,0-.49,.22-.49,.49s.22,.49,.49,.49h15.29c.27,0,.49-.22,.49-.49v-3.62l8.99,9.15-8.99,9.15v-3.62c0-.27-.22-.49-.49-.49h-14.79v-4.33c0-.2-.12-.38-.31-.46-.06-.02-.12-.04-.19-.04Z"/></g></g></g></g></svg>