<?xml version="1.0" encoding="UTF-8"?><svg id="Layer_2" xmlns="http://www.w3.org/2000/svg" viewBox="0 0 78.16 79.24"><defs><style>.cls-1{fill:none;}.cls-2{fill:#68bbea;}.cls-3{fill:#27367e;}</style></defs><g id="Layer_1-2"><g><path class="cls-2" d="M78,55.46c-.72,4.07-3.22,8.43-7.04,12.26l-.06,.06-1.15,5.58c-.2,.97-.46,1.95-.78,2.93-.75,.19-1.52,.36-2.29,.52-3.74,.77-7.72,1.27-11.85,1.65-44,4-39-7.28-39-36,0-.59,.01-1.18,.02-1.76,.03-1.22,.09-2.44,.19-3.64,.2-2.61,.55-5.16,1.03-7.65,.19-1,.41-1.99,.64-2.96,.24-.99,.5-1.97,.78-2.93,.1-.31,.19-.62,.28-.92,.34-1.09,.71-2.17,1.1-3.22,.27-.72,.55-1.43,.84-2.13,1.07-2.56,2.29-4.99,3.65-7.26,.32-.53,.65-1.05,.98-1.56,1.11-1.71,2.3-3.31,3.56-4.81,.82-.98,1.67-1.91,2.55-2.79,2.38-.54,4.91-.83,7.58-.83,19.79,0,35.3,15.77,35.3,35.89,0,3.18-.12,7.36-.29,9.95v.15l.12,.08c3.1,2.25,4.5,5.67,3.84,9.39Z"/><g><path class="cls-3" d="M68.41,51.46c-.55,0-1-.45-1-1,0-2.49-.78-4.87-2.25-6.88l-3.95-5.4c-1.26-1.72-1.92-3.75-1.92-5.88,0-2.83,1.21-5.54,3.33-7.43l6.33-5.7c.41-.37,1.04-.34,1.41,.07,.37,.41,.34,1.04-.07,1.41l-6.33,5.71c-1.69,1.51-2.66,3.67-2.66,5.94,0,1.7,.53,3.32,1.54,4.7l3.95,5.4c1.72,2.36,2.63,5.14,2.63,8.06,0,.55-.45,1-1,1Z"/><path class="cls-3" d="M10.49,51.46c-.55,0-1-.45-1-1,0-2.92,.91-5.7,2.63-8.06l3.96-5.4c1-1.38,1.54-3,1.54-4.7,0-2.26-.97-4.43-2.66-5.94l-6.33-5.71c-.41-.37-.44-1-.07-1.41,.37-.41,1-.44,1.41-.07l6.33,5.71c2.11,1.88,3.33,4.59,3.33,7.43,0,2.12-.67,4.16-1.92,5.88l-3.96,5.4c-1.47,2.01-2.25,4.39-2.25,6.88,0,.55-.45,1-1,1Z"/></g><circle class="cls-3" cx="35.81" cy="14.96" r="1.27"/><circle class="cls-3" cx="35.81" cy="9.88" r="1.27"/><circle class="cls-3" cx="35.81" cy="4.81" r="1.27"/><circle class="cls-3" cx="29.47" cy="16.23" r="1.27"/><circle class="cls-3" cx="29.47" cy="11.15" r="1.27"/><circle class="cls-3" cx="29.19" cy="6.22" r="1.27"/><g><circle class="cls-3" cx="24.39" cy="19.4" r="1.27"/><circle class="cls-3" cx="24.25" cy="14.04" r="1.27"/><circle class="cls-3" cx="24.11" cy="8.75" r="1.27"/></g><circle class="cls-3" cx="14.96" cy="16.93" r="1.27"/><circle class="cls-3" cx="19.74" cy="23.4" r="1.27"/><circle class="cls-3" cx="19.78" cy="18.12" r="1.27"/><circle class="cls-3" cx="19.31" cy="11.79" r="1.27"/><path class="cls-3" d="M78,55.46c-.72,4.07-3.22,8.43-7.04,12.26l-.06,.06-1.15,5.58c-.2,.97-.46,1.95-.78,2.93-.2,.68-.44,1.36-.71,2.04-.21,.51-.79,.76-1.3,.56-.51-.2-.77-.78-.57-1.29,.1-.26,.2-.53,.29-.79,.48-1.29,.84-2.58,1.11-3.86l1.27-6.16,.48-.48c3.54-3.55,5.85-7.52,6.49-11.2,.52-2.94-.59-5.64-3.05-7.41l-1.01-.73,.08-1.25c.16-2.55,.28-6.69,.28-9.83,0-5.16-1.08-10.01-3.03-14.35-.28-.63-.58-1.26-.9-1.87C62.83,9.06,51.89,2,39.03,2c-3.67,0-7.05,.58-10.13,1.62-8.37,2.81-14.56,8.99-18.42,16.02-.34,.61-.65,1.22-.94,1.84-2.51,5.18-3.79,10.68-3.79,15.56,0,2.71,.12,6.46,.27,8.73l.08,1.24-.99,.74c-2.41,1.77-3.49,4.46-2.98,7.36,.65,3.72,2.99,7.74,6.57,11.3l.49,.48,1.26,6.06c.31,1.53,.78,3.09,1.39,4.65,.2,.51-.05,1.09-.57,1.29-.12,.05-.24,.07-.36,.07-.4,0-.78-.24-.93-.63-.65-1.67-1.16-3.34-1.49-4.97l-1.2-5.53C3.42,63.98,.89,59.58,.16,55.46c-.65-3.68,.72-7.08,3.76-9.32l.11-.09v-.15c-.16-2.3-.28-6.11-.28-8.86C3.75,23.31,13.33,4.91,31.45,.83c2.38-.54,4.91-.83,7.58-.83,19.79,0,35.3,15.77,35.3,35.89,0,3.18-.12,7.36-.29,9.95v.15l.12,.08c3.1,2.25,4.5,5.67,3.84,9.39Z"/><circle class="cls-3" cx="42.25" cy="14.96" r="1.27"/><circle class="cls-3" cx="42.25" cy="9.88" r="1.27"/><circle class="cls-3" cx="42.25" cy="4.81" r="1.27"/><circle class="cls-3" cx="48.6" cy="16.23" r="1.27"/><circle class="cls-3" cx="48.6" cy="11.15" r="1.27"/><circle class="cls-3" cx="48.88" cy="6.22" r="1.27"/><g><circle class="cls-3" cx="53.68" cy="19.4" r="1.27"/><circle class="cls-3" cx="53.82" cy="14.04" r="1.27"/><circle class="cls-3" cx="53.95" cy="8.75" r="1.27"/></g><circle class="cls-3" cx="63.1" cy="16.93" r="1.27"/><circle class="cls-3" cx="58.32" cy="23.4" r="1.27"/><circle class="cls-3" cx="58.28" cy="18.12" r="1.27"/><circle class="cls-3" cx="58.75" cy="11.79" r="1.27"/><path class="cls-3" d="M39.6,75.32c-1.91,0-3.81-.57-5.39-1.71l-1.91-1.38h-1.57c-.55,0-1-.45-1-1s.45-1,1-1h2.22l2.43,1.76c2.55,1.85,6.2,1.77,8.68-.17l2.02-1.58h2.32c.55,0,1,.45,1,1s-.45,1-1,1h-1.63l-1.48,1.16c-1.63,1.28-3.67,1.93-5.7,1.93Z"/><path class="cls-3" d="M53.45,56.73c-2.43,0-3.74-.5-4.69-.87-.67-.26-1.03-.4-1.75-.4h-1.17c-.55,0-1-.45-1-1s.45-1,1-1h1.17c1.1,0,1.73,.25,2.47,.53,.9,.35,1.92,.74,3.98,.74,2.69,0,5.55-1.88,6.36-2.45,.45-.32,1.07-.21,1.39,.24,.32,.45,.21,1.08-.24,1.39-1.2,.85-4.32,2.82-7.51,2.82Z"/><path class="cls-3" d="M59.02,42.46h-14.19c-.55,0-1-.45-1-1s.45-1,1-1h14.19c.55,0,1,.45,1,1s-.45,1-1,1Z"/><path class="cls-3" d="M24.92,56.76c-3.2,0-6.32-1.97-7.51-2.82-.45-.32-.56-.94-.24-1.39,.32-.45,.94-.56,1.39-.24,.81,.58,3.66,2.45,6.36,2.45,2.06,0,3.08-.39,3.98-.74,.74-.29,1.37-.53,2.47-.53h1.17c.55,0,1,.45,1,1s-.45,1-1,1h-1.17c-.72,0-1.09,.14-1.74,.39-.96,.37-2.28,.88-4.7,.88Z"/><g><line class="cls-1" x1="33.54" y1="41.49" x2="19.35" y2="41.49"/><path class="cls-3" d="M33.54,42.49h-14.19c-.55,0-1-.45-1-1s.45-1,1-1h14.19c.55,0,1,.45,1,1s-.45,1-1,1Z"/></g></g></g></svg>