<?xml version="1.0" encoding="UTF-8"?><svg id="Layer_2" xmlns="http://www.w3.org/2000/svg" viewBox="0 0 71.29 75.81"><defs><style>.cls-1{fill:#68bbea;}.cls-2{fill:#27367e;}</style></defs><g id="Layer_1-2"><g><path class="cls-1" d="M50.75,1.28V13.7c0,.71-.58,1.28-1.28,1.28h-3.56v7.75h1.2c.71,0,1.29,.57,1.29,1.28s-.58,1.28-1.29,1.28h-1.79l-6.48,9.8c-.24,.36-.64,.58-1.07,.58h-.37c-.54-.81-1.05-1.67-1.52-2.57-1.23-2.35-2.18-4.98-2.79-7.81-.19-.83-.34-1.69-.45-2.56-.23-1.6-.35-3.26-.35-4.95,0-.95,.04-1.88,.11-2.8,.06-.87,.16-1.72,.29-2.56,.63-4.15,1.97-7.95,3.84-11.14h11.65c0-.71,.58-1.28,1.29-1.28s1.28,.57,1.28,1.28Z"/><g><path class="cls-2" d="M1.28,75.81c-.49,0-.97-.29-1.18-.77-.28-.65,.01-1.4,.66-1.69,5.45-2.37,11.17-4.2,16.99-5.42,5.97-1.25,12.13-1.89,18.29-1.89s12.01,.61,17.84,1.8c5.68,1.16,11.28,2.9,16.62,5.16,.65,.28,.96,1.03,.68,1.68-.28,.65-1.03,.96-1.68,.68-10.6-4.48-21.85-6.75-33.46-6.75s-23.43,2.39-34.26,7.1c-.17,.07-.34,.11-.51,.11Z"/><path class="cls-2" d="M35.64,59.43c-.71,0-1.28-.57-1.28-1.28v-17.42c0-.71,.57-1.28,1.28-1.28s1.28,.57,1.28,1.28v17.42c0,.71-.57,1.28-1.28,1.28Z"/><path class="cls-2" d="M39.63,67.81c-.71,0-1.28-.57-1.28-1.28,0-1.01-1.24-1.86-2.71-1.86s-2.71,.85-2.71,1.86c0,.71-.57,1.28-1.28,1.28s-1.28-.57-1.28-1.28c0-1.22,.6-2.4,1.66-3.23,.98-.77,2.26-1.19,3.61-1.19s2.64,.42,3.61,1.19c1.05,.83,1.66,2,1.66,3.23,0,.71-.57,1.28-1.28,1.28Z"/><g><path class="cls-2" d="M54.64,52.58c-.34,0-.67-.14-.91-.38-.24-.24-.38-.57-.38-.91s.14-.67,.38-.91,.57-.38,.91-.38,.67,.14,.91,.38c.24,.24,.38,.57,.38,.91s-.14,.67-.38,.91c-.24,.24-.57,.38-.91,.38Z"/><path class="cls-2" d="M46.76,57.28c-.44,0-.86-.22-1.1-.63-.36-.61-.16-1.39,.44-1.76l3.9-2.32c.61-.36,1.39-.16,1.76,.44,.36,.61,.16,1.39-.44,1.76l-3.9,2.32c-.21,.12-.43,.18-.66,.18Z"/><path class="cls-2" d="M25.64,57.28c-.34,0-.67-.14-.91-.38-.24-.24-.38-.57-.38-.91s.14-.67,.38-.91c.24-.24,.57-.38,.91-.38s.67,.14,.91,.38c.24,.24,.38,.57,.38,.91s-.14,.67-.38,.91c-.24,.24-.57,.38-.91,.38Z"/><path class="cls-2" d="M21.94,54.99c-.23,0-.46-.06-.67-.19l-3.87-2.4c-.6-.37-.79-1.16-.41-1.76,.37-.6,1.16-.79,1.76-.41l3.87,2.4c.6,.37,.79,1.16,.41,1.76-.24,.39-.66,.61-1.09,.61Z"/><path class="cls-2" d="M15.52,63.55c-.71,0-1.28-.57-1.28-1.28,0-.71,.57-1.28,1.28-1.28h5.75s0,0,0,0c.71,0,1.28,.57,1.28,1.28,0,.71-.57,1.28-1.28,1.28h-5.75s0,0,0,0Z"/><path class="cls-2" d="M10.74,63.55s0,0-.01,0h-.71c-.71-.02-1.28-.6-1.27-1.3,0-.7,.58-1.27,1.28-1.27,0,0,0,0,.01,0h.71c.71,.02,1.28,.6,1.27,1.3,0,.7-.58,1.27-1.28,1.27Z"/><path class="cls-2" d="M56.43,63.55c-.71,0-1.28-.57-1.28-1.28,0-.71,.57-1.28,1.28-1.28h4.82s0,0,0,0c.71,0,1.28,.57,1.28,1.28,0,.71-.57,1.28-1.28,1.28h-4.82s0,0,0,0Z"/><path class="cls-2" d="M51.99,63.55h-.86c-.71,0-1.28-.58-1.28-1.29,0-.71,.58-1.28,1.28-1.28h.86c.71,0,1.28,.58,1.28,1.29,0,.71-.58,1.28-1.28,1.28Z"/></g><g><g><path class="cls-2" d="M35.72,13.7c0,.71-.57,1.28-1.28,1.28h-12.62c-.7,0-1.28-.57-1.28-1.28V1.28c0-.71,.58-1.28,1.28-1.28s1.29,.57,1.29,1.28V12.42h11.33c.71,0,1.28,.57,1.28,1.28Z"/><path class="cls-2" d="M50.75,1.28V13.7c0,.71-.58,1.28-1.28,1.28h-6.22c-.71,0-1.28-.57-1.28-1.28s.57-1.28,1.28-1.28h4.93V1.28c0-.71,.58-1.28,1.29-1.28s1.28,.57,1.28,1.28Z"/><path class="cls-2" d="M26.66,25.29c-.71,0-1.28-.57-1.28-1.28V13.7c0-.71,.57-1.28,1.28-1.28s1.28,.57,1.28,1.28v10.31c0,.71-.57,1.28-1.28,1.28Z"/><path class="cls-2" d="M45.91,13.7v10.32c0,.09-.01,.17-.03,.25-.01,.07-.03,.14-.06,.21-.03,.08-.07,.16-.12,.23l-.02,.04c-.24,.33-.62,.54-1.05,.54-.71,0-1.29-.57-1.29-1.28V13.7c0-.71,.58-1.28,1.29-1.28s1.28,.57,1.28,1.28Z"/><path class="cls-2" d="M45.91,24.01h0c0,.1-.01,.18-.03,.26-.01,.07-.03,.14-.06,.21-.03,.08-.07,.16-.12,.23l-.02,.04-.36,.54-6.48,9.8c-.24,.36-.64,.58-1.07,.58h-4.25c-.43,0-.83-.22-1.07-.58l-6.48-9.8-.36-.54-.02-.04c-.05-.07-.09-.15-.12-.23-.03-.07-.05-.14-.06-.21-.02-.08-.03-.16-.03-.25h0c0-.22,.05-.42,.16-.62,.22-.42,.65-.67,1.12-.67h8.46c.7,0,1.28,.57,1.28,1.28s-.58,1.28-1.28,1.28h-6.07l5.16,7.81h2.87l5.16-7.81h-.01c-.7,0-1.28-.57-1.28-1.28s.58-1.28,1.28-1.28h2.4c.47,0,.9,.25,1.12,.67,.11,.2,.16,.4,.16,.61Z"/></g><path class="cls-2" d="M26.66,25.29h-2.49c-.71,0-1.28-.57-1.28-1.28s.57-1.28,1.28-1.28h2.49c.71,0,1.28,.57,1.28,1.28s-.57,1.28-1.28,1.28Z"/><path class="cls-2" d="M48.4,24.01c0,.71-.58,1.28-1.29,1.28h-2.48c-.71,0-1.29-.57-1.29-1.28s.58-1.28,1.29-1.28h2.48c.71,0,1.29,.57,1.29,1.28Z"/></g></g><path class="cls-2" d="M23.11,1.28h-2.57c0-.71,.58-1.28,1.28-1.28s1.29,.57,1.29,1.28Z"/><path class="cls-2" d="M50.75,1.28h-2.57c0-.71,.58-1.28,1.29-1.28s1.28,.57,1.28,1.28Z"/></g></g></svg>