<?xml version="1.0" encoding="UTF-8"?><svg id="Layer_2" xmlns="http://www.w3.org/2000/svg" viewBox="0 0 61.83 80.04"><defs><style>.cls-1{fill:#68bbea;}.cls-2{fill:#27367e;}.cls-3{fill:none;stroke:#27367e;stroke-linecap:round;stroke-miterlimit:10;stroke-width:2px;}</style></defs><g id="Layer_1-2"><g><ellipse class="cls-1" cx="50.74" cy="26.94" rx="6.11" ry="8.31" transform="translate(-.66 52.59) rotate(-54.49)"/><rect class="cls-1" x="35.91" y="2.69" width="6.36" height="51.24" rx="2.88" ry="2.88" transform="translate(24.76 -17.78) rotate(36.82)"/><g><g><polygon class="cls-2" points="27.53 51.88 18.48 44.64 37.68 17.71 39.6 19.08 21.7 44.19 27.06 48.47 44.88 23.46 46.81 24.83 27.53 51.88"/><line class="cls-3" x1="14.35" y1="60.31" x2="1" y2="79.04"/><polygon class="cls-2" points="16.22 62.89 11.39 59.45 16 49.17 17.16 47.55 19.08 48.92 17.99 50.45 14.33 58.65 16.01 59.85 22.57 53.72 23.67 52.19 25.59 53.56 24.27 55.36 16.22 62.89"/></g><rect class="cls-2" x="46.49" y="12.69" width="11.58" height="2.36" transform="translate(10.67 48.42) rotate(-54.56)"/><rect class="cls-2" x="40.42" y="8.6" width="11.58" height="2.36" transform="translate(11.44 41.76) rotate(-54.56)"/><path class="cls-2" d="M55.89,35.12c-.74,.26-1.55,.41-2.41,.43-2.14,.05-4.39-.68-6.34-2.07l1.37-1.92c1.53,1.09,3.27,1.67,4.91,1.63,1.5-.04,2.72-.6,3.43-1.6,.71-.99,.85-2.33,.39-3.77-.49-1.56-1.61-3.02-3.14-4.11l-18.44-13.15c-1.46-1.04-2.89-1.5-4.14-1.34-1.12,.15-2.14,.81-2.92,1.91-.81,1.14-1.16,2.44-.99,3.65,.2,1.36,1.05,2.61,2.46,3.62l4.52,3.23-1.37,1.92-4.52-3.23c-1.95-1.39-3.14-3.19-3.43-5.2-.27-1.82,.23-3.73,1.4-5.36,1.17-1.65,2.74-2.65,4.54-2.88,1.85-.24,3.87,.37,5.82,1.76l18.44,13.15c1.94,1.39,3.38,3.27,4.02,5.31,.69,2.16,.43,4.24-.72,5.85-.71,1-1.7,1.73-2.88,2.15Z"/><rect class="cls-2" x="51.83" y="-3.23" width="2.36" height="19.98" transform="translate(16.73 46) rotate(-54.52)"/></g></g></g></svg>