<?xml version="1.0" encoding="UTF-8"?><svg id="Layer_2" xmlns="http://www.w3.org/2000/svg" viewBox="0 0 79.73 73.44"><defs><style>.cls-1{fill:#68bbea;}.cls-2{fill:#27367e;}</style></defs><g id="Layer_1-2"><g><path class="cls-1" d="M77.39,42.61c.43,.34,.5,.97,.16,1.4-.03,.03-1.23,1.53-2.99,2.95-3.99,1.72-7.7,1.92-10.6,.25-.78-.45-1.47-1.02-2.06-1.69-5.52-6.15-3.81-21.12,4.53-35.57,1.6-2.76,3.33-5.33,5.14-7.65,.46-.58,.92-1.14,1.38-1.69,2.05,.65,3.43,1.74,4.3,2.7,.31,.34,.59,.7,.83,1.09,1.07,1.58,1.65,3.5,1.65,5.44,0,8.32-5.36,14.96-10.09,20.82-3.33,4.12-6.48,8.01-6.48,11.21,0,.24,.01,.46,.03,.68,.36,4.58,4.34,4.95,5.6,4.95,2.77,0,6.13-3.42,7.19-4.74,.35-.42,.98-.49,1.41-.15Z"/><path class="cls-1" d="M46.73,43.94c0,16.29-11.19,29.5-25,29.5-7.68,0-14.55-4.08-19.12-10.51-.64-.88-1.23-1.81-1.76-2.78,.04,.03,.09,.07,.13,.1,6.27,4.61,13.34,6.26,20.45,4.78,8.21-1.7,14.47-6.54,18.62-14.38,3.26-6.16,4.46-12.73,5.17-16.8,.04,.09,.06,.18,.09,.28,.92,3.07,1.42,6.37,1.42,9.81Z"/><path class="cls-2" d="M77.39,42.61c.43,.34,.5,.97,.16,1.4-.03,.03-1.23,1.53-2.99,2.95-1.61,1.3-3.69,2.54-5.77,2.54-2.61,0-5.56-1.1-6.89-3.98-.47-1-.74-2.2-.74-3.65,0-.09,0-.17,.01-.26,.14-3.83,3.43-7.9,6.91-12.21,4.52-5.6,9.65-11.95,9.65-19.56,0-1.92-.71-3.81-1.96-5.18-.2-.21-.42-.44-.69-.65-.8-.68-1.93-1.34-3.51-1.71-.8-.19-1.73-.3-2.78-.3-6.99,0-12.99,4.99-17.36,14.42-3.38,7.3-4.84,15.27-4.84,17.72,0,.55-.44,.99-.99,1h-.01c-.06,0-.12-.01-.18-.02-.14-.02-.27-.08-.39-.16-.26-.18-.43-.48-.43-.82,0-2.6,1.52-10.98,5.03-18.56C54.34,5.39,60.97,0,68.79,0c1.63,0,3,.24,4.16,.61,2.05,.65,3.43,1.74,4.3,2.7,.31,.34,.59,.7,.83,1.09,1.07,1.58,1.65,3.5,1.65,5.44,0,8.32-5.36,14.96-10.09,20.82-3.33,4.12-6.48,8.01-6.48,11.21,0,.24,.01,.46,.03,.68,.36,4.58,4.34,4.95,5.6,4.95,2.77,0,6.13-3.42,7.19-4.74,.35-.42,.98-.49,1.41-.15Z"/><path class="cls-2" d="M45.31,34.13c-.02-.15-.04-.29-.06-.42-.01,.04-.02,.09-.03,.14-.71,4.07-1.91,10.64-5.17,16.8-4.15,7.84-10.41,12.68-18.62,14.38-7.11,1.48-14.18-.17-20.45-4.78-.04-.03-.09-.07-.13-.1-.3-.21-.58-.43-.85-.65,.46,.75,.98,1.49,1.57,2.23,.33,.42,.68,.82,1.04,1.2,4.82,5.24,11.37,7.04,19.5,5.35,15.04-3.12,20.36-15.22,22.19-22.16,1.32-5,1.38-9.31,1.01-11.99Z"/></g></g></svg>