<?xml version="1.0" encoding="UTF-8"?><svg id="Layer_2" xmlns="http://www.w3.org/2000/svg" viewBox="0 0 70.62 70.62"><defs><style>.cls-1{fill:#68bbea;}.cls-2{fill:#27367e;}</style></defs><g id="Layer_1-2"><g><path class="cls-1" d="M70.62,53.08v5.78c0,2.48-.75,4.78-2.03,6.7-.68,1.03-1.51,1.95-2.48,2.72-.65,.22-1.21,.5-1.81,.8-1.45,.72-3.09,1.54-6.21,1.54s-4.75-.82-6.2-1.54c-1.4-.7-2.61-1.31-5.2-1.31s-3.79,.61-5.19,1.31c-1.45,.72-3.09,1.54-6.2,1.54s-4.75-.82-6.2-1.54c-1.4-.7-2.61-1.31-5.2-1.31s-3.79,.61-5.19,1.31c-.42,.21-.86,.43-1.34,.63-.87-.42-1.69-.96-2.42-1.58-2.65-2.21-4.33-5.54-4.33-9.27v-5.78c0-.85,.09-1.68,.26-2.48,.15-.77,.39-1.5,.68-2.2,1.61-3.83,5.13-6.66,9.36-7.3,.59-.08,1.2-.13,1.81-.13H58.51c1.85,0,3.6,.41,5.16,1.16,1.73,.81,3.24,2.02,4.39,3.52,.53,.67,.99,1.4,1.36,2.18,.77,1.59,1.2,3.37,1.2,5.25Z"/><path class="cls-1" d="M59.13,39.89c-.14,.37-.3,.72-.47,1.08-.19,.39-.4,.78-.62,1.16-1.2,2.05-2.82,3.83-4.74,5.2-.72,.53-1.49,.99-2.29,1.39-2.26,1.13-4.8,1.76-7.48,1.76-2.31,0-4.51-.47-6.51-1.31-1.41-.6-2.73-1.38-3.91-2.33h-.01c-1.98-1.57-3.6-3.58-4.71-5.87-1.06-2.21-1.66-4.68-1.66-7.28,0-7.22,4.66-13.3,8.76-18.66,1.06-1.39,2.06-2.7,2.98-4.01,.01,0,.01-.01,.01-.01l.17-.25c.4-.56,.8-1.13,1.18-1.71,.12,.16,.23,.33,.35,.49l.18,.24c.92,1.32,1.92,2.63,2.99,4.02,4.1,5.36,8.75,11.44,8.75,18.66,0,3.1-.85,6.02-2.32,8.51h4.35c.02-.6,.51-1.08,1.12-1.08h3.88Z"/><g><path class="cls-2" d="M69.5,42.13h-14.25c-.62,0-1.12-.5-1.12-1.12s.5-1.12,1.12-1.12h14.25c.62,0,1.12,.5,1.12,1.12s-.5,1.12-1.12,1.12Z"/><path class="cls-2" d="M15.37,42.13H1.12c-.62,0-1.12-.5-1.12-1.12s.5-1.12,1.12-1.12H15.37c.62,0,1.12,.5,1.12,1.12s-.5,1.12-1.12,1.12Z"/><path class="cls-2" d="M70.62,66.65c0,.62-.5,1.12-1.12,1.12-1.48,0-2.51,.2-3.39,.51-.65,.22-1.21,.5-1.81,.8-1.45,.72-3.09,1.54-6.21,1.54s-4.75-.82-6.2-1.54c-1.4-.7-2.61-1.31-5.2-1.31s-3.79,.61-5.19,1.31c-1.45,.72-3.09,1.54-6.2,1.54s-4.75-.82-6.2-1.54c-1.4-.7-2.61-1.31-5.2-1.31s-3.79,.61-5.19,1.31c-.42,.21-.86,.43-1.34,.63-1.18,.5-2.65,.91-4.86,.91-3.11,0-4.75-.82-6.2-1.54-1.4-.7-2.61-1.31-5.19-1.31-.62,0-1.12-.5-1.12-1.12s.5-1.12,1.12-1.12c3.12,0,4.75,.82,6.2,1.54,1.4,.7,2.61,1.3,5.19,1.3,.98,0,1.77-.09,2.44-.24,1.09-.23,1.88-.63,2.75-1.06,1.45-.72,3.09-1.54,6.2-1.54s4.76,.82,6.21,1.54c1.4,.7,2.61,1.3,5.19,1.3s3.79-.6,5.19-1.3c1.45-.72,3.09-1.54,6.2-1.54s4.76,.82,6.21,1.54c1.4,.7,2.61,1.3,5.19,1.3s3.8-.6,5.2-1.3c1.3-.65,2.76-1.37,5.3-1.51,.29-.02,.59-.03,.91-.03,.62,0,1.12,.5,1.12,1.12Z"/><g><path class="cls-2" d="M5.87,60.16c-.51,0-1-.21-1.38-.56-.36-.36-.56-.85-.56-1.36,0-.26,.05-.51,.15-.74,.1-.23,.23-.46,.41-.64,.74-.72,2.02-.72,2.77,0,.18,.18,.31,.41,.41,.64,.1,.23,.15,.49,.15,.74s-.05,.49-.15,.74c-.1,.23-.26,.44-.41,.62-.18,.18-.41,.33-.64,.44-.23,.08-.49,.13-.74,.13Z"/><path class="cls-2" d="M15.67,60.16c-.26,0-.49-.05-.74-.13-.23-.1-.44-.26-.62-.44-.36-.36-.56-.85-.56-1.36,0-.26,.05-.51,.13-.74,.1-.23,.26-.46,.44-.64,.72-.72,2.02-.72,2.74,0,.18,.18,.31,.41,.41,.64,.1,.23,.15,.49,.15,.74,0,.51-.21,1-.56,1.36-.18,.18-.41,.33-.64,.44-.23,.08-.49,.13-.74,.13Z"/><path class="cls-2" d="M25.51,60.16c-.26,0-.51-.05-.74-.13-.23-.1-.46-.26-.64-.44-.18-.18-.31-.39-.41-.62-.1-.26-.15-.49-.15-.74,0-.51,.21-1.02,.56-1.38,.54-.54,1.41-.72,2.13-.41,.23,.1,.44,.23,.61,.41s.33,.41,.41,.64c.1,.23,.15,.49,.15,.74,0,.51-.21,1-.56,1.36-.18,.18-.38,.33-.61,.44-.26,.08-.49,.13-.74,.13Z"/><path class="cls-2" d="M35.31,60.16c-.26,0-.51-.05-.74-.13-.23-.1-.46-.26-.64-.44-.36-.36-.56-.85-.56-1.36,0-.26,.05-.51,.15-.74,.1-.23,.23-.46,.41-.64s.41-.31,.64-.41c.72-.31,1.56-.13,2.1,.41,.18,.18,.33,.41,.44,.64,.1,.23,.15,.49,.15,.74,0,.51-.23,1-.59,1.36-.18,.18-.38,.33-.61,.44-.26,.08-.49,.13-.74,.13Z"/><path class="cls-2" d="M45.12,60.16c-.26,0-.49-.05-.74-.13-.23-.1-.44-.26-.62-.44-.36-.36-.59-.85-.59-1.36,0-.26,.05-.51,.15-.74,.1-.23,.26-.46,.44-.64,.54-.54,1.38-.72,2.1-.41,.23,.1,.46,.23,.64,.41,.18,.18,.31,.41,.41,.64,.1,.23,.15,.49,.15,.74,0,.51-.21,1-.56,1.36-.18,.18-.41,.33-.64,.44-.23,.08-.49,.13-.74,.13Z"/><path class="cls-2" d="M54.95,60.16c-.51,0-1.02-.21-1.38-.56-.36-.36-.56-.85-.56-1.36,0-.26,.05-.51,.15-.74,.08-.23,.23-.46,.41-.64,.72-.72,2.02-.72,2.74,0,.18,.18,.33,.41,.41,.64,.1,.23,.15,.49,.15,.74,0,.51-.21,1-.56,1.36-.18,.18-.38,.33-.64,.44-.23,.08-.49,.13-.72,.13Z"/><path class="cls-2" d="M64.76,60.16c-.26,0-.51-.05-.74-.13-.23-.1-.46-.26-.64-.44-.36-.36-.56-.85-.56-1.36,0-.26,.05-.51,.15-.74,.1-.23,.23-.46,.41-.64,.72-.72,2.02-.72,2.74,0,.18,.18,.33,.41,.44,.64,.08,.23,.13,.49,.13,.74,0,.51-.21,1-.56,1.36-.36,.36-.85,.56-1.36,.56Z"/></g><path class="cls-2" d="M35.31,49.26c-9.26,0-16.79-7.53-16.79-16.79,0-7.22,4.65-13.3,8.76-18.66,1.06-1.39,2.07-2.7,2.99-4.02l.18-.25c1.84-2.63,3.75-5.34,3.75-8.41,0-.62,.5-1.12,1.12-1.12s1.12,.5,1.12,1.12c0,3.07,1.91,5.78,3.75,8.41l.17,.25c.92,1.32,1.93,2.63,2.99,4.02,4.1,5.36,8.76,11.44,8.76,18.66,0,9.26-7.53,16.79-16.79,16.79Zm0-43.37c-.82,1.79-1.96,3.42-3.03,4.94l-.17,.25c-.95,1.36-1.97,2.69-3.04,4.09-4.08,5.33-8.29,10.84-8.29,17.3,0,8.02,6.52,14.54,14.54,14.54s14.54-6.52,14.54-14.54c0-6.46-4.22-11.97-8.29-17.3-1.08-1.41-2.09-2.74-3.04-4.09l-.17-.25c-1.07-1.52-2.21-3.16-3.03-4.95Z"/><path class="cls-2" d="M58.1,50.68c-3.11,0-4.76-.82-6.2-1.54-.43-.22-.86-.43-1.34-.62-.57-.23-.85-.89-.62-1.47,.23-.57,.89-.85,1.47-.62,.53,.22,1.01,.46,1.49,.7,1.4,.7,2.61,1.31,5.2,1.31s3.8-.61,5.2-1.31c1.45-.72,3.09-1.54,6.2-1.54,.62,0,1.12,.5,1.12,1.12s-.5,1.12-1.12,1.12c-2.59,0-3.8,.61-5.2,1.31-1.45,.72-3.09,1.54-6.2,1.54Z"/><path class="cls-2" d="M12.51,50.68c-3.11,0-4.75-.82-6.2-1.54-1.4-.7-2.61-1.31-5.19-1.31-.62,0-1.12-.5-1.12-1.12s.5-1.12,1.12-1.12c3.11,0,4.75,.82,6.2,1.54,1.4,.7,2.61,1.31,5.19,1.31s3.79-.61,5.19-1.31c.49-.24,.97-.49,1.51-.7,.58-.23,1.23,.05,1.46,.62,.23,.58-.04,1.23-.62,1.46-.48,.19-.92,.41-1.35,.63-1.45,.72-3.09,1.54-6.2,1.54Z"/></g></g></g></svg>