<?xml version="1.0" encoding="UTF-8"?><svg id="Layer_2" xmlns="http://www.w3.org/2000/svg" viewBox="0 0 67.06 67.43"><defs><style>.cls-1{fill:#68bbea;}.cls-2{fill:#27367e;}</style></defs><g id="Layer_1-2"><g><path class="cls-1" d="M67.06,55.99c0,3.13-.26,6.35-.77,9.6-.68,.14-1.4,.27-2.17,.4-1.37,.24-2.86,.46-4.48,.65-.5,.06-1,.12-1.52,.18-3.52,.37-7.56,.61-12.13,.61-3.46,0-6.59-.14-9.4-.37h-.01c-.07,0-.14-.01-.21-.02-1.72-.14-3.32-.32-4.8-.52-.67-.09-1.31-.18-1.93-.28-1.3-.21-2.49-.43-3.57-.65-1.62-.34-3-.68-4.15-1.01-2.88-.81-4.28-1.49-4.28-1.49-.44-2.79-.67-5.59-.67-8.28,0-8.05,1.81-14.69,3.33-18.84,2.26-6.24,3.41-12.59,3.41-18.87V5.89h0c.05-.12,1.88-3.89,22.76-3.89,4.55,0,8.2,.18,11.12,.46,.74,.07,1.44,.15,2.09,.24V14.17c0,6.72,1.22,13.53,3.63,20.22,1.71,4.75,3.75,12.36,3.75,21.6Z"/><path class="cls-2" d="M20.42,66.77c-.58,0-1.05-.47-1.05-1.05s.47-1.05,1.05-1.05c6.64,0,12.05-5.41,12.05-12.05,0-.58,.47-1.05,1.05-1.05s1.05,.47,1.05,1.05c0,7.8-6.35,14.15-14.15,14.15Z"/><path class="cls-2" d="M46.61,66.77c-7.8,0-14.15-6.35-14.15-14.15,0-.58,.47-1.05,1.05-1.05s1.05,.47,1.05,1.05c0,6.64,5.41,12.05,12.05,12.05,.58,0,1.05,.47,1.05,1.05s-.47,1.05-1.05,1.05Z"/><path class="cls-2" d="M30.66,67.06c-.58,0-1.05-.47-1.05-1.05v-4.43c0-.58,.47-1.05,1.05-1.05s1.05,.47,1.05,1.05v4.43c0,.58-.47,1.05-1.05,1.05Z"/><path class="cls-2" d="M36.58,67.06c-.58,0-1.05-.47-1.05-1.05v-4.43c0-.58,.47-1.05,1.05-1.05s1.05,.47,1.05,1.05v4.43c0,.58-.47,1.05-1.05,1.05Z"/><path class="cls-2" d="M1.89,67.06c-.5,0-.95-.36-1.03-.88-.57-3.45-.86-6.88-.86-10.2,0-9.23,2.04-16.84,3.75-21.6,2.41-6.69,3.63-13.49,3.63-20.22V1.05C7.38,.47,7.85,0,8.43,0s1.05,.47,1.05,1.05V14.17c0,6.97-1.26,14.01-3.75,20.93-1.65,4.6-3.63,11.96-3.63,20.89,0,3.21,.28,6.52,.83,9.86,.09,.57-.29,1.11-.86,1.2-.06,0-.12,.01-.17,.01Z"/><path class="cls-2" d="M67.06,55.99c0,3.13-.26,6.35-.77,9.6-.02,.2-.06,.4-.09,.6-.08,.51-.53,.87-1.03,.87-.06,0-.12,0-.17-.01-.52-.09-.89-.54-.88-1.06,0-.05,0-.1,0-.15,.56-3.33,.84-6.65,.84-9.85,0-8.93-1.98-16.29-3.63-20.89-2.49-6.92-3.75-13.96-3.75-20.93V1.05c0-.58,.46-1.05,1.04-1.05s1.05,.47,1.05,1.05V14.17c0,6.72,1.22,13.53,3.63,20.22,1.71,4.75,3.75,12.36,3.75,21.6Z"/><g><path class="cls-2" d="M58.79,67.06c-.27,0-.54-.12-.74-.3-.09-.09-.17-.21-.22-.35-.05-.13-.08-.26-.08-.4s.03-.27,.08-.4c.05-.13,.13-.24,.22-.35,.39-.39,1.09-.39,1.49,0,.09,.1,.17,.22,.22,.35,.05,.13,.08,.26,.08,.4,0,.27-.11,.54-.3,.74-.2,.19-.47,.3-.74,.3Z"/><path class="cls-2" d="M59.27,62.99c-.58-.07-.98-.59-.92-1.16,.06-.58,.59-.98,1.15-.92,.58,.06,1,.58,.93,1.15-.06,.53-.51,.93-1.05,.93h-.12Zm.39-4.1c-.58-.02-1.04-.51-1.01-1.09,.02-.58,.5-1.03,1.08-1.01,.58,.02,1.04,.5,1.01,1.08h.01c-.02,.57-.49,1.02-1.06,1.02h-.03Zm-1.03-5.12c-.02-.58,.43-1.07,1.01-1.09,.59-.03,1.07,.42,1.09,1.01,.02,.58-.42,1.06-1.01,1.09h-.04c-.55,0-1.02-.44-1.05-1.01Zm-.3-4.03c-.07-.57,.35-1.09,.92-1.15,.58-.07,1.09,.35,1.15,.92h.01c.06,.58-.36,1.09-.93,1.16h-.12c-.52,0-.97-.39-1.04-.93Zm-.61-3.99h.01c-.12-.57,.26-1.11,.83-1.23,.58-.1,1.12,.27,1.23,.84,.1,.58-.27,1.12-.84,1.23-.06,.01-.13,.02-.19,.02-.5,0-.94-.36-1.04-.86Zm-.88-3.94c-.15-.57,.19-1.13,.74-1.28,.57-.15,1.13,.19,1.29,.74,.15,.57-.2,1.13-.75,1.28-.08,.02-.18,.04-.26,.04-.47,0-.89-.31-1.02-.79Zm-1.16-3.87h-.01c-.18-.56,.11-1.14,.66-1.33,.54-.19,1.14,.1,1.33,.65,.19,.54-.1,1.14-.65,1.33-.11,.04-.23,.05-.35,.05-.44,0-.84-.27-.98-.7Zm-1.33-3.93c-.17-.56,.14-1.14,.69-1.32,.56-.17,1.14,.15,1.31,.7,.18,.54-.14,1.13-.69,1.3-.1,.04-.21,.05-.31,.05-.44,0-.86-.29-1-.73Zm-1.11-4.03c-.14-.57,.21-1.13,.76-1.27,.57-.14,1.13,.21,1.27,.78h0c.14,.56-.2,1.12-.76,1.27-.08,.01-.17,.02-.25,.02-.47,0-.9-.31-1.02-.8Zm-.87-4.09c-.1-.57,.27-1.11,.84-1.22,.58-.1,1.12,.27,1.23,.84,.09,.58-.28,1.12-.85,1.23-.06,.01-.13,.01-.19,.01-.49,0-.93-.36-1.03-.86Zm-.62-4.14c-.06-.58,.35-1.09,.92-1.16,.57-.06,1.09,.35,1.16,.92,.06,.58-.35,1.09-.92,1.16-.04,0-.08,.01-.12,.01-.52,0-.98-.4-1.04-.93Zm-.36-4.16h0c-.03-.59,.41-1.08,.99-1.11,.58-.02,1.07,.42,1.1,1,.03,.58-.42,1.07-1,1.1h-.05c-.56,0-1.02-.43-1.05-.98Zm-.1-4.17c0-.59,.47-1.05,1.05-1.05s1.05,.46,1.05,1.05-.46,1.04-1.05,1.04-1.05-.46-1.05-1.04Zm0-4.12c0-.59,.47-1.05,1.05-1.05s1.05,.46,1.05,1.05-.46,1.05-1.05,1.05-1.05-.47-1.05-1.05Zm0-4.12c0-.59,.47-1.05,1.05-1.05s1.05,.46,1.05,1.05-.46,1.05-1.05,1.05-1.05-.47-1.05-1.05Z"/><path class="cls-2" d="M52.34,2.1c-.27,0-.54-.12-.73-.3-.2-.2-.32-.47-.32-.74,0-.14,.03-.27,.08-.4,.05-.13,.13-.24,.23-.35,.38-.39,1.09-.39,1.48,0,.1,.1,.18,.22,.23,.35,.05,.13,.07,.26,.07,.4,0,.27-.1,.54-.3,.74-.19,.19-.46,.3-.74,.3Z"/></g><g><path class="cls-2" d="M14.71,2.1c-.06,0-.14-.01-.2-.02-.07-.01-.14-.03-.2-.06-.06-.02-.12-.05-.18-.09-.06-.04-.11-.08-.17-.13-.04-.05-.08-.1-.13-.16-.04-.06-.07-.13-.09-.19-.03-.06-.05-.13-.06-.19-.01-.07-.02-.15-.02-.21s.01-.14,.02-.21c.01-.06,.03-.13,.06-.19,.02-.06,.05-.13,.09-.19,.04-.05,.08-.1,.13-.16,.05-.04,.1-.08,.17-.13,.05-.04,.12-.07,.18-.09,.06-.03,.13-.05,.2-.06,.13-.03,.27-.03,.41,0,.06,.01,.13,.03,.19,.06,.06,.02,.13,.05,.19,.09,.05,.04,.1,.08,.16,.13,.19,.2,.3,.47,.3,.74s-.12,.54-.3,.74c-.05,.04-.11,.08-.16,.13-.06,.04-.13,.07-.19,.09-.06,.03-.13,.05-.19,.06-.07,.01-.14,.02-.21,.02Z"/><path class="cls-2" d="M6.62,62.04c-.06-.58,.36-1.09,.93-1.16,.58-.06,1.09,.36,1.15,.93,.06,.58-.35,1.09-.92,1.15-.04,.01-.07,.01-.12,.01-.53,0-.98-.4-1.05-.93Zm-.3-4.18c-.02-.58,.43-1.07,1.01-1.09,.58-.02,1.07,.43,1.09,1.02,.02,.58-.43,1.06-1.01,1.08h-.04c-.57,0-1.03-.44-1.05-1.01Zm1.02-3.11c-.58-.02-1.03-.5-1.01-1.08h0c.03-.59,.51-1.04,1.09-1.01,.58,.02,1.03,.5,1.01,1.09h0c-.02,.56-.48,1-1.05,1h-.04Zm.24-4.11c-.58-.06-.98-.59-.92-1.15,.06-.58,.59-1,1.16-.92,.58,.06,.98,.58,.92,1.15-.06,.53-.51,.93-1.04,.93-.04,0-.08,0-.13-.01Zm.55-4.08c-.58-.1-.95-.66-.84-1.23,.11-.57,.65-.94,1.22-.84,.58,.1,.94,.66,.84,1.23-.09,.5-.53,.86-1.03,.86-.06,0-.13-.01-.19-.02Zm.83-4.03c-.57-.15-.9-.72-.76-1.28,.15-.57,.72-.9,1.29-.75,.56,.16,.89,.72,.74,1.29-.13,.46-.55,.78-1.02,.78-.08,0-.18-.01-.26-.03Zm1.11-3.96c-.54-.19-.84-.79-.65-1.33,.19-.56,.79-.85,1.33-.66,.54,.19,.84,.79,.65,1.34-.15,.43-.56,.7-.99,.7-.12,0-.23-.02-.35-.05Zm1.35-3.9c-.56-.17-.87-.75-.69-1.31,.17-.54,.75-.86,1.31-.69,.55,.18,.86,.75,.69,1.31-.15,.45-.56,.74-1.01,.74-.1,0-.2-.02-.3-.05Zm1.15-3.95c-.57-.14-.91-.7-.77-1.27,.15-.56,.71-.9,1.27-.76,.57,.14,.91,.7,.77,1.27-.11,.48-.54,.8-1.02,.8-.08,0-.17-.01-.25-.03Zm.92-4c-.58-.1-.95-.65-.85-1.23,.1-.57,.65-.94,1.22-.84,.57,.1,.95,.65,.85,1.22-.09,.5-.53,.86-1.04,.86-.05,0-.12,0-.18-.01Zm.67-4.07c-.58-.07-.99-.59-.92-1.16,.06-.58,.59-.98,1.16-.92,.58,.07,.99,.59,.92,1.16-.06,.53-.52,.93-1.05,.93-.04,0-.07-.01-.12-.01Zm.41-4.1c-.58-.03-1.02-.52-.98-1.1,.03-.58,.52-1.03,1.1-1,.58,.03,1.02,.52,.98,1.11-.02,.56-.49,.98-1.05,.98h-.05Zm-.9-5.17c0-.58,.47-1.04,1.05-1.04s1.05,.46,1.05,1.04-.47,1.06-1.05,1.06-1.05-.47-1.05-1.06Zm0-4.11c0-.58,.47-1.05,1.05-1.05s1.05,.47,1.05,1.05-.47,1.05-1.05,1.05-1.05-.47-1.05-1.05Zm0-4.12c0-.58,.47-1.05,1.05-1.05s1.05,.47,1.05,1.05-.47,1.05-1.05,1.05-1.05-.47-1.05-1.05Z"/><path class="cls-2" d="M8.27,67.06c-.15,0-.27-.03-.41-.08-.13-.05-.24-.13-.34-.22-.09-.1-.18-.21-.23-.35-.05-.13-.07-.26-.07-.4,0-.28,.1-.54,.3-.74,.09-.09,.21-.17,.34-.22,.2-.08,.41-.1,.61-.06,.07,.01,.14,.03,.2,.06,.06,.02,.13,.05,.18,.09,.06,.04,.12,.08,.16,.13,.2,.2,.31,.46,.31,.74,0,.14-.03,.27-.08,.4-.05,.13-.13,.24-.23,.35-.04,.04-.09,.09-.16,.13-.05,.04-.11,.07-.18,.09-.06,.03-.13,.05-.2,.06-.06,.01-.14,.02-.2,.02Z"/></g><path class="cls-2" d="M33.63,35.1c-1.12,0-2.24-.17-3.31-.52-.55-.18-.85-.77-.67-1.32,.18-.55,.77-.85,1.32-.67,1.77,.57,3.71,.56,5.46-.05,.55-.19,1.14,.1,1.33,.65s-.1,1.14-.65,1.33c-1.12,.38-2.3,.58-3.48,.58Z"/></g></g></svg>