<?xml version="1.0" encoding="UTF-8"?><svg id="Layer_2" xmlns="http://www.w3.org/2000/svg" viewBox="0 0 67.75 65.02"><defs><style>.cls-1{fill:#68bbea;}.cls-2{fill:#27367e;}</style></defs><g id="Layer_1-2"><g><path class="cls-1" d="M56.36,24.74H19.84c-.18-1.78-.32-2.84,.37-4,1.25-2.12,5.97-5.68,23.63-5.71,6.88,0,11.37-3.23,12.52-5.78,1.63,2.79,2.05,8.02,0,15.49Z"/><path class="cls-1" d="M67.75,36.61v24.05c0,2.4-1.95,4.36-4.36,4.36H19.75V22.74H62.26c.85,.7,1.39,1.76,1.39,2.94v7.12h.29c2.1,0,3.81,1.71,3.81,3.81Z"/><g><path class="cls-2" d="M63.94,32.8H3.81c-2.1,0-3.81,1.71-3.81,3.81v24.05c0,2.4,1.96,4.36,4.36,4.36H63.39c2.41,0,4.36-1.96,4.36-4.36v-24.05c0-2.1-1.71-3.81-3.81-3.81Zm1.65,27.86c0,1.22-.98,2.2-2.2,2.2H4.36c-1.22,0-2.2-.98-2.2-2.2v-24.05c0-.91,.74-1.65,1.65-1.65H63.94c.91,0,1.65,.74,1.65,1.65v24.05Z"/><path class="cls-2" d="M56.73,23.96c-.05-.02-.1-.04-.15-.07-.41-.23-.62-.7-.52-1.15H19.75v1.28H57.11c-.13,0-.26-.02-.38-.06Zm5.53-1.22c-.66-.54-1.5-.87-2.42-.87H7.91c-2.1,0-3.81,1.71-3.81,3.81v8.2c0,.59,.48,1.08,1.08,1.08H62.57c.6,0,1.08-.49,1.08-1.08v-8.2c0-1.18-.54-2.24-1.39-2.94ZM6.26,32.8v-7.12c0-.91,.74-1.66,1.65-1.66H59.84c.91,0,1.65,.75,1.65,1.66v7.12H6.26Z"/><path class="cls-2" d="M57.11,24.02c-.13,0-.25-.02-.38-.07-.56-.21-.84-.83-.63-1.39,2.91-7.75-.81-15.64-2.82-19.07-1.39,3.04-4.95,8.17-13.18,8.17-21.13,.03-26.78,4.29-28.28,6.83-1.23,2.09-.25,3.91-.24,3.92,.29,.52,.1,1.18-.42,1.47-.52,.29-1.18,.1-1.47-.42-.07-.12-1.58-2.92,.26-6.06,3.06-5.21,13.2-7.87,30.13-7.89,9.91,0,11.78-8.3,11.85-8.65,.09-.41,.41-.74,.82-.83,.41-.09,.84,.07,1.1,.41,.35,.47,8.51,11.54,4.25,22.89-.16,.43-.57,.7-1.01,.7Z"/></g></g></g></svg>