<?xml version="1.0" encoding="UTF-8"?><svg id="Layer_2" xmlns="http://www.w3.org/2000/svg" viewBox="0 0 57.32 77.37"><defs><style>.cls-1{fill:#68bbea;}.cls-2{fill:#27367e;}</style></defs><g id="Layer_1-2"><g><path class="cls-1" d="M57.18,54.43c-1.01,8.88-3.49,15.61-4.57,18.21-.71,.13-1.53,.24-2.48,.35-2.77,.3-6.63,.5-12.04,.5-3.34,0-6.09-.08-8.35-.2-.78-.05-1.49-.1-2.16-.16-7.96-.67-8.44-2.08-8.64-2.55h0c-.03-.08-2.84-6.79-3.86-16.25-.01-.12-.03-.25-.04-.37-.07-.65-.1-1.3-.1-1.97,0-3.17,.72-6.54,1.75-9.89,.2-.68,.42-1.37,.66-2.06,.77-2.29,1.64-4.56,2.48-6.73,1.19-3.08,2.31-5.99,2.91-8.44,.64-2.62,.39-5.7-.22-8.65-.16-.71-.33-1.42-.52-2.1-.59-2.2-1.34-4.25-2-5.87-.41-1.02,3.77-5.76,18-5.76,4.77,0,8.43,.53,11.17,1.28,.75,.2,1.44,.42,2.06,.66-1.63,3.45-4.06,9.46-3.89,14.29,.03,.85,.14,1.66,.34,2.42,.66,2.45,1.98,5.53,3.38,8.79,1.09,2.55,2.23,5.21,3.23,7.92,2.03,5.49,3.5,11.18,2.89,16.58Z"/><g><path class="cls-2" d="M6.19,74.43c-.4,0-.79-.23-.97-.62-.15-.33-3.8-8.13-5.07-19.38-.92-8.07,2.82-16.8,6.11-24.5,1.4-3.26,2.72-6.34,3.39-8.8C11.59,13.99,4.72,1.73,4.66,1.61c-.29-.52-.11-1.17,.41-1.47,.52-.29,1.17-.11,1.47,.41,.3,.53,7.37,13.16,5.19,21.16-.71,2.6-2.06,5.75-3.48,9.08-3.19,7.46-6.81,15.9-5.95,23.41,1.24,10.9,4.84,18.63,4.88,18.71,.25,.54,.02,1.18-.51,1.43-.15,.07-.31,.1-.46,.1Z"/><path class="cls-2" d="M57.18,54.43c-1.01,8.88-3.49,15.61-4.57,18.21-.29,.7-.48,1.11-.51,1.18-.18,.39-.57,.61-.97,.61-.16,0-.31-.03-.46-.1-.51-.24-.74-.83-.54-1.34,0-.03,.02-.06,.03-.09,.03-.08,3.64-7.81,4.88-18.71,.07-.61,.11-1.22,.12-1.83,.02-.71,0-1.44-.06-2.16-.24-3.5-1.23-7.13-2.5-10.7-.24-.67-.49-1.35-.76-2.02-.87-2.29-1.83-4.53-2.76-6.7-1.43-3.33-2.77-6.48-3.48-9.08-.2-.73-.32-1.51-.37-2.32-.06-.77-.05-1.57,.01-2.39,.35-4.75,2.42-9.97,3.93-13.22,.9-1.94,1.6-3.18,1.62-3.22,.29-.52,.95-.7,1.47-.41,.51,.3,.69,.95,.4,1.47-.02,.04-.63,1.12-1.43,2.82-1.63,3.45-4.06,9.46-3.89,14.29,.03,.85,.14,1.66,.34,2.42,.66,2.45,1.98,5.53,3.38,8.79,1.09,2.55,2.23,5.21,3.23,7.92,2.03,5.49,3.5,11.18,2.89,16.58Z"/></g><path class="cls-2" d="M11.06,19.79c-.39,0-.76-.21-.95-.57-.28-.53-.08-1.18,.44-1.46,.33-.17,8.11-4.25,18.47-4.25s17.48,4.1,17.77,4.28c.51,.3,.68,.96,.38,1.47-.3,.51-.96,.68-1.47,.38-.07-.04-6.91-3.98-16.68-3.98s-17.39,3.96-17.46,4c-.16,.09-.33,.13-.5,.13Z"/><path class="cls-2" d="M28.66,44.32c-8.7,0-23.8-6.43-24.44-6.7-.55-.23-.8-.87-.57-1.41,.23-.55,.87-.8,1.41-.57,.15,.07,15.33,6.53,23.59,6.53s24.12-4.97,24.28-5.02c.56-.18,1.17,.13,1.35,.7,.18,.57-.13,1.17-.7,1.35-.66,.21-16.28,5.12-24.92,5.12Z"/><path class="cls-2" d="M28.66,77.37c-.59,0-1.08-.48-1.08-1.08v-14.82C19.26,52.73,1.35,51.57,1.17,51.56c-.59-.04-1.05-.54-1.01-1.14,.03-.59,.53-1.04,1.14-1.01,.79,.05,19.38,1.26,28.15,10.91l.28,.31v15.66c0,.59-.48,1.08-1.08,1.08Z"/><path class="cls-2" d="M29.24,61.56c-.26,0-.52-.09-.72-.28-.44-.4-.47-1.08-.07-1.52,8.8-9.69,26.08-9.57,26.81-9.56,.59,0,1.07,.5,1.06,1.09,0,.59-.49,1.06-1.08,1.06h-.07c-1.11,0-17.23,.16-25.13,8.86-.21,.23-.5,.35-.8,.35Z"/><path class="cls-2" d="M28.66,39.42c-.59,0-1.08-.48-1.08-1.08v-3.85c0-.59,.48-1.08,1.08-1.08s1.08,.48,1.08,1.08v3.85c0,.59-.48,1.08-1.08,1.08Z"/></g></g></svg>