<?xml version="1.0" encoding="UTF-8"?><svg id="Layer_2" xmlns="http://www.w3.org/2000/svg" viewBox="0 0 74.37 74.37"><defs><style>.cls-1{fill:#68bbea;}.cls-2{fill:#27367e;}</style></defs><g id="Layer_1-2"><g><path class="cls-1" d="M67.83,37.85c0,16.57-13.43,30-30,30-4.19,0-8.18-.86-11.81-2.43-5.08-5.37-8.19-12.61-8.19-20.57,0-16.57,13.43-30,30-30,4.19,0,8.18,.86,11.81,2.43,5.08,5.37,8.19,12.61,8.19,20.57Z"/><g><path class="cls-2" d="M7.57,32.11s-.09,0-.14-.01c-.39-.08-.65-.46-.57-.85,2.37-12.21,12.17-22.01,24.38-24.38,.39-.08,.77,.18,.85,.57,.08,.39-.18,.77-.57,.85-11.64,2.26-20.98,11.6-23.24,23.24-.07,.35-.37,.59-.71,.59Z"/><path class="cls-2" d="M42.99,67.52c-.34,0-.64-.24-.71-.59-.08-.39,.18-.77,.57-.85,11.64-2.26,20.98-11.6,23.24-23.24,.08-.39,.46-.65,.85-.57,.39,.08,.65,.46,.57,.85-2.37,12.21-12.17,22.01-24.38,24.38-.05,0-.09,.01-.14,.01Z"/><path class="cls-2" d="M31.38,67.52s-.09,0-.14-.01c-12.21-2.37-22.01-12.17-24.38-24.38-.08-.39,.18-.77,.57-.85,.39-.08,.77,.18,.85,.57,2.26,11.64,11.6,20.98,23.24,23.24,.39,.08,.65,.46,.57,.85-.07,.35-.37,.59-.71,.59Z"/><path class="cls-2" d="M66.8,32.11c-.34,0-.64-.24-.71-.59-2.26-11.64-11.6-20.98-23.24-23.24-.39-.08-.65-.46-.57-.85s.46-.65,.85-.57c12.21,2.37,22.01,12.17,24.38,24.38,.08,.39-.18,.77-.57,.85-.05,0-.09,.01-.14,.01Z"/><path class="cls-2" d="M37.18,57.09c-10.98,0-19.9-8.93-19.9-19.9s8.93-19.9,19.9-19.9,19.9,8.93,19.9,19.9-8.93,19.9-19.9,19.9Zm0-38.36c-10.18,0-18.45,8.28-18.45,18.45s8.28,18.45,18.45,18.45,18.45-8.28,18.45-18.45-8.28-18.45-18.45-18.45Z"/><path class="cls-2" d="M37.18,46.09c-4.91,0-8.91-4-8.91-8.91s4-8.91,8.91-8.91,8.91,4,8.91,8.91-4,8.91-8.91,8.91Zm0-16.37c-4.11,0-7.46,3.35-7.46,7.46s3.35,7.46,7.46,7.46,7.46-3.35,7.46-7.46-3.35-7.46-7.46-7.46Z"/><path class="cls-2" d="M37.18,14.02c-.4,0-.73-.32-.73-.73V.73c0-.4,.32-.73,.73-.73s.73,.32,.73,.73V13.29c0,.4-.32,.73-.73,.73Z"/><path class="cls-2" d="M37.18,74.37c-.4,0-.73-.32-.73-.73v-12.57c0-.4,.32-.73,.73-.73s.73,.32,.73,.73v12.57c0,.4-.32,.73-.73,.73Z"/><path class="cls-2" d="M13.29,37.91H.73c-.4,0-.73-.32-.73-.73s.32-.73,.73-.73H13.29c.4,0,.73,.32,.73,.73s-.32,.73-.73,.73Z"/><path class="cls-2" d="M73.64,37.91h-12.57c-.4,0-.73-.32-.73-.73s.32-.73,.73-.73h12.57c.4,0,.73,.32,.73,.73s-.32,.73-.73,.73Z"/></g></g></g></svg>