<?xml version="1.0" encoding="UTF-8"?><svg id="Layer_2" xmlns="http://www.w3.org/2000/svg" viewBox="0 0 74.18 66.3"><defs><style>.cls-1{fill:#68bbea;}.cls-2{fill:#27367e;}</style></defs><g id="Layer_1-2"><g><rect class="cls-1" x="7.06" y="20.3" width="29" height="29" rx="14.5" ry="14.5"/><path class="cls-1" d="M74.18,35.69c0,.09-.01,.16-.02,.24,0,.07-.03,.14-.07,.21-.02,.06-.06,.13-.1,.2-.05,.06-.09,.12-.14,.18-.12,.1-.24,.19-.38,.25-.14,.06-.29,.08-.44,.08h-.05c-.09,.57-.23,1.33-.43,2.22,.07-.01,.15,0,.22,.02,.63,.15,1.01,.76,.86,1.38-.13,.54-.6,.9-1.12,.9-.1,0-.19-.02-.27-.04-.1-.02-.19-.06-.27-.1-.21,.68-.46,1.39-.75,2.11,.08,.03,.17,.06,.25,.1,.57,.29,.79,.98,.5,1.55-.19,.4-.6,.63-1.03,.63-.17,0-.34-.03-.52-.11-.05-.03-.1-.06-.14-.09-.34,.65-.71,1.3-1.13,1.92,.02,0,.03,.02,.05,.03,.48,.41,.54,1.15,.14,1.63-.24,.27-.56,.41-.9,.41-.23,0-.48-.07-.69-.24-.49,.56-1.04,1.09-1.63,1.58,.34,.5,.22,1.19-.28,1.55-.21,.15-.45,.23-.68,.23-.34,0-.68-.15-.91-.43-2.54,1.77-4.02,2.98-4.87,3.78-.17,1.18-.26,2.39-.26,3.6v4.35c-.32,.03-.64,.05-.97,.08-.34,.02-.68,.05-1.03,.07-2.24,.14-4.71,.25-7.41,.3-7.96,.16-20.83-.74-22-2.52-.97-1.49-1.16-3.74-1.12-6.21,0-.72,.03-1.46,.06-2.21,.14-3.36,.36-6.84-.64-9.23-.92-2.2-2.63-4.83-4.47-7.61-3.91-5.98-8.35-12.75-7.33-18.6,1.5-8.67,5.92-14.91,5.97-14.97h0c.41-.57,1.58-2.63,29.38-2.63,4.36,0,8.07,.05,11.22,.14,.9,.02,1.75,.05,2.56,.09,.3,.01,.6,.02,.89,.03h.02c3.65,1.2,9.87,4.91,9.87,16.26v7.48c0,.55-.45,1-1,1-.03,0-.07,0-.1-.01,.06,3.89,.08,7.49,.09,9.26,.13,0,.25,.03,.36,.08,.14,.06,.26,.14,.38,.24,.1,.12,.18,.25,.24,.39,.06,.13,.09,.28,.09,.43Z"/><path class="cls-1" d="M59.38,55.88c-.17,1.18-.26,2.39-.26,3.6v5.82c0,.54-.44,.99-.98,1v-2.39s.06-6.52,.06-6.52c0-.05,.04-.42,1.18-1.51Z"/><path class="cls-1" d="M66.12,50.75c.34,.5,.22,1.19-.28,1.55-.21,.15-.45,.23-.68,.23-.34,0-.68-.15-.91-.43,.29-.2,.59-.41,.9-.62,.34-.23,.66-.47,.97-.73Z"/><path class="cls-1" d="M69.2,47.37c.48,.41,.54,1.15,.14,1.63-.24,.27-.56,.41-.9,.41-.23,0-.48-.07-.69-.24,.52-.58,.98-1.19,1.4-1.83,.02,0,.03,.02,.05,.03Z"/><path class="cls-1" d="M71.97,44.99c-.19,.4-.6,.63-1.03,.63-.17,0-.34-.03-.52-.11-.05-.03-.1-.06-.14-.09,.36-.69,.67-1.39,.94-2.08,.08,.03,.17,.06,.25,.1,.57,.29,.79,.98,.5,1.55Z"/><path class="cls-1" d="M73.63,40.47c-.13,.54-.6,.9-1.12,.9-.1,0-.19-.02-.27-.04-.1-.02-.19-.06-.27-.1,.24-.77,.43-1.5,.58-2.16,.07-.01,.15,0,.22,.02,.63,.15,1.01,.76,.86,1.38Z"/><path class="cls-1" d="M72.34,10.64c-.72-2.67-2.28-4.34-5.05-7.46-.81-.91-2.28-1.83-3.95-2.65-.27-.14-.55-.27-.83-.41,.45,.08,1.04,.21,1.72,.44h.02c3.65,1.2,9.87,4.91,9.87,16.26v7.48c0,.55-.45,1-1,1-.03,0-.07,0-.1-.01-.1-6.25-.3-13.24-.68-14.65Z"/><path class="cls-1" d="M74.18,35.69c0,.09-.01,.16-.02,.24,0,.07-.03,.14-.07,.21-.02,.06-.06,.13-.1,.2-.05,.06-.09,.12-.14,.18-.12,.1-.24,.19-.38,.25-.14,.06-.29,.08-.44,.08h-.05c.11-.72,.14-1.15,.14-1.15,0,0,0-.42-.01-1.15,.13,0,.25,.03,.36,.08,.14,.06,.26,.14,.38,.24,.1,.12,.18,.25,.24,.39,.06,.13,.09,.28,.09,.43Z"/><g><path class="cls-2" d="M1.16,36.86c-.15,0-.3-.02-.44-.08-.14-.06-.27-.15-.38-.25-.05-.06-.09-.12-.14-.17-.05-.07-.08-.14-.1-.21-.03-.07-.06-.14-.07-.21-.01-.08-.02-.15-.02-.23,0-.15,.04-.3,.09-.44,.06-.14,.14-.27,.24-.38,.12-.1,.24-.18,.38-.24,.21-.09,.44-.12,.67-.07,.07,.01,.14,.04,.21,.07,.07,.02,.14,.06,.2,.1,.07,.05,.13,.09,.18,.14,.1,.12,.19,.24,.24,.38,.07,.14,.09,.29,.09,.44,0,.08-.01,.15-.02,.23-.01,.07-.03,.14-.07,.21-.02,.07-.06,.14-.1,.21-.03,.06-.09,.12-.14,.17-.06,.05-.12,.1-.18,.14-.06,.05-.13,.08-.2,.12-.07,.02-.14,.05-.21,.06-.08,.02-.15,.02-.23,.02Z"/><path class="cls-2" d="M20.67,55.29c-.03-.65,.45-1.19,1.09-1.23,.65-.03,1.19,.45,1.23,1.09,.04,.64-.45,1.19-1.09,1.23h-.07c-.61,0-1.12-.47-1.16-1.09Zm4.51-.52c-.17-.61,.17-1.26,.79-1.44,.6-.19,1.25,.16,1.44,.78,.18,.61-.16,1.25-.78,1.44-.12,.03-.22,.05-.34,.05-.5,0-.96-.32-1.11-.82Zm4.28-1.55c-.32-.56-.14-1.26,.42-1.59,.56-.31,1.26-.13,1.59,.43,.31,.56,.13,1.26-.43,1.57-.18,.1-.38,.16-.58,.16-.39,0-.79-.21-1-.58Zm-21.12-.91c-.52-.38-.62-1.11-.24-1.62,.38-.52,1.11-.62,1.63-.24h-.01c.52,.38,.62,1.11,.24,1.62-.23,.31-.58,.47-.94,.47-.23,0-.47-.08-.68-.23Zm24.92-1.59c-.44-.46-.42-1.19,.05-1.63,.46-.44,1.19-.42,1.63,.05,.44,.46,.42,1.19-.05,1.63-.22,.22-.51,.31-.8,.31s-.61-.12-.83-.36Zm-28.41-1.71c-.41-.49-.35-1.23,.14-1.63,.5-.42,1.23-.35,1.63,.14,.42,.49,.35,1.23-.14,1.63-.22,.19-.49,.27-.74,.27-.34,0-.66-.14-.89-.41Zm-2.64-4.02c-.29-.57-.07-1.26,.51-1.55,.57-.29,1.26-.06,1.55,.51,.29,.58,.06,1.27-.51,1.56-.17,.08-.35,.12-.52,.12-.43,0-.83-.23-1.03-.64Zm-1.66-4.51c-.15-.62,.23-1.24,.86-1.39,.62-.15,1.25,.23,1.4,.86,.14,.62-.24,1.25-.87,1.39-.08,.02-.17,.04-.27,.04-.52,0-1-.36-1.12-.89Z"/><path class="cls-2" d="M37.03,47.6c-.07,0-.15-.01-.23-.02-.07-.01-.14-.03-.21-.07-.07-.02-.14-.06-.21-.1-.06-.05-.12-.09-.17-.14-.21-.22-.34-.52-.34-.82s.13-.6,.34-.82c.06-.05,.12-.1,.17-.14,.07-.05,.14-.08,.21-.1,.07-.04,.14-.06,.21-.07,.38-.08,.78,.05,1.05,.31,.21,.22,.34,.52,.34,.82s-.13,.6-.34,.82c-.22,.21-.52,.34-.82,.34Z"/><path class="cls-2" d="M14.03,41.47c-.12,0-.26-.02-.41-.04-.12-.02-.24-.06-.37-.12-.12-.04-.24-.1-.37-.18-.1-.08-.2-.16-.3-.24-.37-.39-.59-.92-.59-1.44s.22-1.06,.59-1.44c.1-.08,.2-.18,.3-.24,.12-.08,.24-.14,.37-.18,.12-.06,.24-.1,.37-.12,.67-.14,1.36,.08,1.85,.55,.37,.39,.59,.91,.59,1.44s-.22,1.06-.59,1.44c-.39,.37-.91,.59-1.44,.59Z"/><path class="cls-2" d="M61.03,41.47c-.12,0-.26-.02-.41-.04-.12-.02-.24-.06-.37-.12-.12-.04-.24-.1-.37-.18-.1-.08-.2-.16-.3-.24-.37-.39-.59-.92-.59-1.44s.22-1.06,.59-1.44c.1-.08,.2-.18,.3-.24,.12-.08,.24-.14,.37-.18,.12-.06,.24-.1,.37-.12,.67-.14,1.36,.08,1.85,.55,.37,.39,.59,.91,.59,1.44s-.22,1.06-.59,1.44c-.39,.37-.91,.59-1.44,.59Z"/></g><path class="cls-2" d="M1.06,25.3c-.55,0-1-.45-1-1v-7.48C.06,.83,12.4,.01,12.53,0c.55-.03,1.02,.4,1.05,.95,.03,.55-.4,1.02-.95,1.05-.43,.03-10.57,.82-10.57,14.82v7.48c0,.55-.45,1-1,1Z"/><path class="cls-2" d="M20.06,50.3c-8.27,0-15-6.73-15-15,0-4.71,2.69-8.39,5.59-11.66,2.41-2.72,4.41-5.52,4.41-12.34,0-.55,.45-1,1-1s1,.45,1,1c0,7.5-2.32,10.74-4.91,13.66-2.64,2.98-5.09,6.3-5.09,10.34,0,7.17,5.83,13,13,13s13-5.83,13-13c0-2.63-.78-5.17-2.27-7.34-.31-.46-.2-1.08,.26-1.39,.45-.31,1.08-.19,1.39,.26,1.71,2.5,2.62,5.43,2.62,8.47,0,8.27-6.73,15-15,15Z"/><path class="cls-2" d="M16.06,66.3c-.55,0-1-.45-1-1v-5.82c0-2.78-.46-5.52-1.36-8.15l-1.17-2.68c-.22-.51,.01-1.1,.52-1.32,.51-.22,1.1,.01,1.32,.52l1.2,2.75c1.01,2.91,1.5,5.87,1.5,8.87v5.82c0,.55-.45,1-1,1Z"/><g><path class="cls-2" d="M74.18,35.69c0,.09-.01,.16-.02,.24,0,.07-.03,.14-.07,.21-.02,.06-.06,.13-.1,.2-.05,.06-.09,.12-.14,.18-.12,.1-.24,.19-.38,.25-.14,.06-.29,.08-.44,.08h-.05c-.06,0-.12,0-.18-.02-.07-.01-.14-.04-.21-.06-.07-.03-.14-.07-.2-.11-.07-.04-.13-.1-.18-.14-.05-.06-.11-.12-.14-.18-.05-.07-.08-.14-.11-.2-.03-.07-.06-.14-.07-.21-.01-.08-.02-.15-.02-.24,0-.15,.02-.3,.09-.43,.06-.14,.14-.27,.25-.39,.05-.04,.11-.09,.18-.14,.06-.04,.13-.08,.2-.1,.07-.03,.14-.06,.21-.07,.11-.02,.21-.02,.31-.01,.13,0,.25,.03,.36,.08,.14,.06,.26,.14,.38,.24,.1,.12,.18,.25,.24,.39,.06,.13,.09,.28,.09,.43Z"/><path class="cls-2" d="M72.77,39.09c-.07-.02-.15-.03-.22-.02-.54-.04-1.05,.32-1.18,.87-.12,.53,.14,1.05,.6,1.29,.08,.04,.17,.08,.27,.1,.08,.02,.17,.04,.27,.04,.52,0,.99-.36,1.12-.9,.15-.62-.23-1.23-.86-1.38Zm-1.3,4.35c-.08-.04-.17-.07-.25-.1-.51-.12-1.06,.12-1.31,.61-.26,.53-.09,1.15,.37,1.47,.04,.03,.09,.06,.14,.09,.18,.08,.35,.11,.52,.11,.43,0,.84-.23,1.03-.63,.29-.57,.07-1.26-.5-1.55Zm-2.27,3.93s-.03-.03-.05-.03c-.5-.38-1.19-.3-1.59,.17-.41,.49-.34,1.23,.14,1.63,.02,.01,.03,.03,.05,.03,.21,.17,.46,.24,.69,.24,.34,0,.66-.14,.9-.41,.4-.48,.34-1.22-.14-1.63Zm-28.32,1.71c-.46-.43-1.19-.41-1.63,.05-.44,.46-.42,1.19,.04,1.63,.22,.22,.51,.31,.8,.31s.62-.11,.84-.35c.44-.47,.41-1.2-.05-1.64Zm25.24,1.67s-.02-.05-.04-.07c-.38-.52-1.1-.62-1.62-.24-.52,.38-.62,1.11-.24,1.62,.01,.01,.02,.03,.03,.04,.23,.28,.57,.43,.91,.43,.23,0,.47-.08,.68-.23,.5-.36,.62-1.05,.28-1.55Zm-21.82,.88c-.55-.31-1.26-.13-1.58,.43-.31,.55-.13,1.26,.43,1.57,.18,.11,.38,.16,.58,.16,.39,0,.78-.2,.99-.57,.32-.56,.14-1.27-.42-1.59Zm3.92,1.7c-.61-.18-1.25,.16-1.44,.78-.18,.61,.16,1.25,.78,1.43,.11,.04,.22,.05,.33,.05,.5,0,.96-.33,1.11-.82,.18-.62-.17-1.26-.78-1.44Zm4.21,.73c-.65-.03-1.19,.45-1.23,1.09-.03,.64,.45,1.19,1.09,1.23h.07c.61,0,1.12-.48,1.16-1.09,.03-.65-.46-1.19-1.09-1.23Z"/></g><path class="cls-2" d="M74.12,16.82v7.48c0,.55-.45,1-1,1-.03,0-.07,0-.1-.01-.5-.05-.9-.47-.9-.99v-7.48c0-14-10.14-14.79-10.57-14.82-.55-.03-.97-.51-.94-1.05,.01-.19,.07-.36,.17-.51,.19-.29,.52-.47,.87-.44,.02,0,.34,.02,.85,.12,.01-.01,.01,0,.01,0,.45,.08,1.04,.21,1.72,.44h.02c3.65,1.2,9.87,4.91,9.87,16.26Z"/><path class="cls-2" d="M54.12,50.3c-8.27,0-15-6.73-15-15,0-3.04,.9-5.97,2.62-8.47,.31-.45,.94-.57,1.39-.26,.46,.31,.57,.93,.26,1.39-1.48,2.17-2.27,4.7-2.27,7.34,0,7.17,5.83,13,13,13s13-5.83,13-13c0-4.04-2.45-7.36-5.09-10.34-2.59-2.92-4.91-6.16-4.91-13.66,0-.55,.45-1,1-1s1,.45,1,1c0,6.81,2,9.62,4.41,12.34,2.9,3.27,5.59,6.95,5.59,11.66,0,8.27-6.73,15-15,15Z"/><path class="cls-2" d="M61.74,48.22c.01,.15-.02,.3-.08,.44l-1.21,2.75c-.49,1.44-.85,2.94-1.07,4.47-.17,1.18-.26,2.39-.26,3.6v5.82c0,.54-.44,.99-.98,1h-.02c-.55,0-1-.45-1-1v-5.82c0-3,.5-5.96,1.47-8.79l.55-1.26,.68-1.57c.22-.51,.81-.74,1.32-.52,.36,.15,.58,.51,.6,.88Z"/></g></g></svg>