<?xml version="1.0" encoding="UTF-8"?><svg id="Layer_2" xmlns="http://www.w3.org/2000/svg" viewBox="0 0 80.94 76.27"><defs><style>.cls-1{fill:#68bbea;}.cls-2{fill:#27367e;}</style></defs><g id="Layer_1-2"><g><path class="cls-1" d="M80.94,23.76c0,8.64-5.01,14.05-7.17,15.98-.45,.4-.78,.94-.94,1.56-1.49,5.85-7.84,25.56-26.99,33.86-.88,.38-1.79,.66-2.71,.85-.86-.55-1.68-1.14-2.47-1.75-4.37-3.35-7.69-7.41-10.19-11.4-.4-.63-.78-1.26-1.14-1.89-3.31-5.84-4.93-11.27-5.57-13.84-.33-1.3-1-2.44-1.95-3.31-2.2-2.01-5.9-6.44-5.9-13.46,0-1.96,.34-3.31,.82-9.41,.05-.61,.1-1.27,.15-1.98,.16-2.27,.33-5.09,.51-8.63,.17-3.23,2.5-6.03,5.87-6.97,8.02-2.24,22.88-1.93,36.68-1.93,5.66,0,10.32-.3,14.07-.37,.32-.01,.63-.01,.93-.01,.37-.01,.73-.02,1.07-.01V10.56c0,.55-.45,1-1,1-.02,0-.05,0-.07-.01v2.54c.77,.2,1.78,.59,2.74,1.35,1.69,1.32,3.26,3.78,3.26,8.32Z"/><path class="cls-1" d="M75.01,11.56s-.05,0-.07-.01V.01s.05-.01,.07-.01c.55,0,1,.45,1,1V10.56c0,.55-.45,1-1,1Z"/><path class="cls-1" d="M77.68,15.44h-2.74v-1.35c.77,.2,1.78,.59,2.74,1.35Z"/><path class="cls-2" d="M80.94,23.76c0,8.64-5.01,14.05-7.17,15.98-.45,.4-.78,.94-.94,1.56-1.49,5.85-7.84,25.56-26.99,33.86-.88,.38-1.79,.66-2.71,.85-.87,.17-1.76,.26-2.66,.26-1.86,0-3.67-.38-5.37-1.11-19.16-8.3-25.51-28.01-27-33.86-.16-.62-.48-1.16-.93-1.57-2.16-1.92-7.17-7.33-7.17-15.97C0,13.99,7.26,13.88,7.33,13.88h2.55c.55,0,1,.44,1,1s-.45,1-1,1h-2.55c-.21,0-5.33,.21-5.33,7.88s4.54,12.74,6.5,14.48c.75,.68,1.28,1.56,1.54,2.57,1.43,5.62,7.53,24.58,25.85,32.51,1.51,.66,3.14,.97,4.77,.94,1.5-.03,2.99-.34,4.38-.94,18.32-7.93,24.42-26.89,25.86-32.51,.25-1.01,.79-1.9,1.54-2.57,1.95-1.74,6.5-6.64,6.5-14.48s-5.13-7.88-5.35-7.88h-2.53c-.55,0-1-.45-1-1s.45-1,1-1h2.55s.55,.01,1.33,.21c.77,.2,1.78,.59,2.74,1.35,1.69,1.32,3.26,3.78,3.26,8.32Z"/><path class="cls-2" d="M76.01,1V10.56c0,.55-.45,1-1,1-.02,0-.05,0-.07-.01-.53-.03-.93-.46-.93-.99V1c0-.53,.4-.96,.93-.99,.02-.01,.05-.01,.07-.01,.55,0,1,.45,1,1Z"/><path class="cls-2" d="M8.01,11.56c-.55,0-1-.45-1-1V1C7.01,.45,7.45,0,8.01,0s1,.45,1,1V10.56c0,.55-.45,1-1,1Z"/><path class="cls-2" d="M59.48,23.98c-1.97,0-4.27-.25-5.47-.4-1.02-.13-2.09-.19-3.17-.19h-.71c-.55,0-1-.45-1-1s.45-1,1-1h.71c1.17,0,2.32,.07,3.42,.21,1.15,.14,3.36,.39,5.22,.39,1.03,0,2.01-.67,2.66-1.23,1.37-1.18,3.14-1.83,5-1.83,.55,0,1,.45,1,1s-.45,1-1,1c-1.38,0-2.69,.48-3.69,1.34-.9,.78-2.32,1.72-3.97,1.72Z"/><path class="cls-2" d="M48.73,14.21c-.13,0-.26-.03-.39-.08-.51-.21-.75-.8-.53-1.31,2.78-6.59,15.34-5.93,16.77-5.84,.55,.04,.97,.51,.93,1.07-.04,.55-.51,.96-1.07,.93-.51-.03-12.51-.78-14.79,4.62-.16,.38-.53,.61-.92,.61Z"/><path class="cls-2" d="M24.58,24.04c-1.64,0-3.07-.94-3.97-1.72-1-.87-2.31-1.34-3.69-1.34-.55,0-1-.45-1-1s.45-1,1-1c1.86,0,3.63,.65,5,1.83,.53,.46,1.58,1.23,2.66,1.23,1.85,0,4.07-.24,5.23-.39,1.1-.14,2.25-.21,3.42-.21h.71c.55,0,1,.45,1,1s-.45,1-1,1h-.71c-1.08,0-2.15,.07-3.17,.19-1.2,.15-3.51,.4-5.47,.4Z"/><path class="cls-2" d="M35.33,14.27c-.39,0-.76-.23-.92-.61-2.28-5.4-14.28-4.66-14.79-4.62-.55,.02-1.03-.38-1.07-.93-.04-.55,.38-1.03,.93-1.07,1.42-.1,13.98-.75,16.77,5.84,.21,.51-.02,1.1-.53,1.31-.13,.05-.26,.08-.39,.08Z"/><path class="cls-2" d="M40.6,39.26c-.53,0-1.07-.11-1.57-.32l-2.36-1.02c-.72-.31-1.48-.46-2.26-.46h-.31c-.55,0-1-.45-1-1s.45-1,1-1h.31c1.05,0,2.08,.21,3.05,.63l2.36,1.01c.52,.22,1.11,.21,1.62-.03l1.91-.89c1.03-.48,2.13-.73,3.27-.73h.28c.55,0,1,.45,1,1s-.45,1-1,1h-.28c-.84,0-1.66,.18-2.43,.54l-1.91,.89c-.53,.25-1.11,.37-1.69,.37Z"/><g><path class="cls-2" d="M21.35,57.79c-.33,0-.64-.12-.88-.36-.11-.11-.2-.25-.26-.4-.06-.16-.1-.32-.1-.48s.04-.32,.1-.47c.06-.15,.15-.28,.26-.41,.46-.46,1.28-.46,1.75,0,.11,.12,.2,.26,.26,.41,.06,.15,.1,.31,.1,.47s-.04,.32-.1,.48c-.06,.15-.15,.28-.26,.4-.23,.23-.56,.36-.88,.36Z"/><path class="cls-2" d="M39.22,63.99c0-.68,.55-1.23,1.23-1.23s1.23,.56,1.23,1.23-.56,1.23-1.23,1.23-1.23-.56-1.23-1.23Zm5.16-.53c-.16-.65,.25-1.33,.9-1.49,.67-.16,1.33,.25,1.49,.9,.17,.67-.23,1.33-.9,1.49-.1,.02-.2,.04-.3,.04-.56,0-1.06-.37-1.2-.94Zm-9.34,.9c-.67-.16-1.06-.83-.9-1.49,.16-.67,.83-1.06,1.49-.9,.65,.16,1.06,.83,.9,1.49-.13,.56-.64,.94-1.2,.94-.1,0-.2-.01-.3-.04Zm14.36-2.28c-.25-.64,.07-1.36,.71-1.59,.64-.23,1.35,.09,1.59,.73,.23,.63-.09,1.34-.73,1.58-.13,.06-.28,.09-.43,.09-.49,0-.96-.31-1.15-.8Zm-19.46,.71c-.64-.25-.96-.95-.73-1.59,.25-.64,.95-.96,1.59-.73,.64,.25,.96,.95,.73,1.59-.19,.49-.65,.8-1.16,.8-.15,0-.28-.02-.43-.07Zm24.26-2.71c-.33-.59-.11-1.34,.48-1.68,.59-.33,1.34-.11,1.68,.48,.32,.6,.11,1.36-.48,1.68-.2,.11-.4,.16-.6,.16-.43,0-.85-.23-1.07-.64Zm-29.15,.48c-.6-.33-.81-1.09-.48-1.68,.32-.6,1.07-.81,1.67-.49h0c.6,.33,.81,1.09,.48,1.68-.22,.41-.64,.64-1.07,.64-.21,0-.41-.05-.59-.15Z"/><path class="cls-2" d="M59.59,57.79c-.32,0-.64-.12-.88-.36-.22-.23-.36-.54-.36-.88s.13-.64,.36-.86c.46-.47,1.29-.47,1.75,0,.22,.22,.36,.54,.36,.86s-.14,.64-.36,.88c-.23,.23-.56,.36-.88,.36Z"/></g><path class="cls-2" d="M40.95,59.15c-1.98,0-5.46-.8-6.31-1.62-.4-.38-.41-1.02-.03-1.41,.38-.39,1-.41,1.4-.04,.47,.34,3.14,1.08,4.94,1.08s4.49-.75,4.95-1.08c.4-.38,1.02-.36,1.4,.04,.38,.4,.36,1.04-.04,1.42-.85,.82-4.33,1.62-6.31,1.62Z"/><path class="cls-2" d="M48.89,53.96c-.26,0-.52-.11-.7-.32-.21-.24-.45-.56-.71-.92-1.01-1.36-2.54-3.43-4.21-3.43-.49,0-.91,.05-1.38,.16-.64,.15-1.29,.15-1.93,0-.42-.1-.9-.15-1.39-.16-1.65,0-3.18,2.06-4.19,3.42-.28,.38-.51,.68-.71,.92-.33,.39-.91,.43-1.29,.1-.39-.33-.43-.91-.1-1.29,.18-.21,.38-.48,.61-.79,1.26-1.7,3.12-4.2,5.71-4.2,.64,0,1.25,.08,1.8,.21,.36,.08,.73,.08,1.1,0,.6-.14,1.17-.21,1.8-.21,2.59,0,4.45,2.51,5.68,4.17,.24,.32,.45,.6,.63,.82,.33,.39,.28,.96-.11,1.29-.17,.15-.38,.22-.59,.22Z"/><path class="cls-2" d="M40.87,55.13c-4.02,0-7.42-.67-8.28-1.29-.45-.33-.54-.95-.22-1.4,.32-.44,.94-.54,1.38-.23,.47,.27,3.25,.92,7.11,.92,4.31,0,6.88-.68,7.28-.92,.44-.34,1.05-.24,1.39,.2s.24,1.08-.2,1.41c-.84,.64-4.24,1.31-8.47,1.31Z"/></g></g></svg>