<?xml version="1.0" encoding="UTF-8"?><svg id="Layer_2" xmlns="http://www.w3.org/2000/svg" viewBox="0 0 79.2 87.95"><defs><style>.cls-1{fill:#68bbea;}.cls-2{fill:#27367e;}</style></defs><g id="Layer_1-2"><g><path class="cls-1" d="M55.29,19.06c0,7.13-3.93,13.35-9.73,16.62-1.12-.18-2.19-.53-3.21-1.04-5.08-2.48-8.67-8.65-8.67-15.88s3.28-12.84,8-15.53c.96-.56,1.98-.97,3.05-1.22,6.26,3.13,10.56,9.59,10.56,17.05Z"/><path class="cls-1" d="M79.2,62.01c0,4.96-5.27,9.36-13.35,12.03-5.22,1.74-11.61,2.76-18.51,2.76-.82,0-1.64-.01-2.45-.05-.8-.02-1.59-.06-2.37-.12-2.88-.2-5.64-.58-8.21-1.12-3.27-.68-6.25-1.61-8.83-2.74-4.82-2.1-8.22-4.9-9.47-8.05-.36-.88-.54-1.78-.54-2.71,0-8.17,14.27-14.8,31.87-14.8,.37,0,.74,0,1.11,.01,4.83,.08,9.38,.65,13.43,1.63,10.29,2.45,17.32,7.42,17.32,13.16Z"/><g><g><path class="cls-2" d="M65.85,71.05c-.36,0-.71-.17-.94-.48-.38-.52-.26-1.24,.26-1.62,2.27-1.65,4.98-4.33,4.98-7.74,0-8.15-15.53-15.04-33.92-15.04S2.32,53.06,2.32,61.21c0,3.41,2.7,6.09,4.97,7.74,.52,.38,.63,1.1,.26,1.62-.38,.52-1.1,.63-1.62,.26-3.88-2.82-5.93-6.15-5.93-9.62,0-9.73,15.91-17.36,36.23-17.36s36.24,7.63,36.24,17.36c0,3.48-2.05,6.8-5.93,9.62-.21,.15-.44,.22-.68,.22Z"/><path class="cls-2" d="M44.73,2.01c-2.56-1.29-5.45-2.01-8.5-2.01-10.52,0-19.07,8.55-19.07,19.06s8.55,19.07,19.07,19.07c3.39,0,6.57-.89,9.33-2.45,5.8-3.27,9.73-9.49,9.73-16.62s-4.3-13.92-10.56-17.05Zm-2.38,32.63c-1.9,.76-3.96,1.17-6.12,1.17-9.24,0-16.75-7.51-16.75-16.75S26.99,2.31,36.23,2.31c1.91,0,3.74,.32,5.45,.92,6.56,2.26,11.29,8.51,11.29,15.83s-4.41,13.14-10.62,15.58Z"/></g><path class="cls-2" d="M53.31,65.31c-.13-.41-.5-.71-.93-.78l-4.87-.72-2.1-.31h-.06s-4.65-.7-4.65-.7l-1.66-3.36-.18-.37-.23-.5-3.16-6.46c-.21-.39-.59-.64-1.05-.64-.43,0-.84,.25-1.04,.64l-2.99,6.1-2.23,4.59-11.67,1.73c-.18,.03-.34,.09-.48,.19-.22,.13-.38,.34-.46,.59-.13,.43-.04,.89,.28,1.18l8.46,8.35-2,11.77c-.07,.43,.12,.87,.48,1.12,.18,.16,.43,.22,.66,.22,.2,0,.39-.04,.55-.13l6.78-3.6,.36-.2,3.3-1.76,4.08,2.17,.2,.11,1.89,1,4.28,2.28c.39,.2,.86,.18,1.23-.09,.2-.14,.34-.32,.41-.55,.07-.18,.09-.36,.04-.57l-.09-.61-1.57-9.25-.32-1.91,7.88-7.78,.57-.57c.11-.11,.2-.25,.25-.39,.11-.25,.13-.52,.04-.79Zm-3.73,1.34l-7.08,6.97c-.27,.25-.38,.63-.32,1l.34,2.01,1.37,8.02v.03l-2.71-1.44-2.27-1.21-3.94-2.09c-.16-.09-.37-.13-.55-.13s-.36,.04-.54,.13l-2.28,1.21-.36,.18-6.26,3.35,1.7-10.06c.07-.37-.06-.75-.34-1l-.86-.85-6.35-6.28,9.97-1.48c.38-.04,.7-.29,.88-.63l2.89-5.95,1.55-3.16,1.62,3.3,1.55,3.12,.18,.39,1.11,2.3c.16,.34,.5,.59,.87,.63l4.59,.69,2.26,.34,3.14,.45-.16,.16Z"/></g></g></g></svg>