<?xml version="1.0" encoding="UTF-8"?><svg id="Layer_2" xmlns="http://www.w3.org/2000/svg" viewBox="0 0 91.17 77.64"><defs><style>.cls-1{fill:#68bbea;}.cls-2{fill:#27367e;}</style></defs><g id="Layer_1-2"><g><circle class="cls-1" cx="84.61" cy="23.23" r="6.17"/><path class="cls-1" d="M54.31,76.34c.12,.12,.23,.25,.37,.35h-5.86c.12-.1,.25-.21,.35-.33,.53-.6,.86-1.3,.99-2.06,.02,.06,.06,.08,.08,.12,.23,.23,.53,.37,.86,.37h2.34c.12,.47,.37,.93,.7,1.32,.04,.08,.1,.16,.16,.23Z"/><path class="cls-1" d="M68.97,10.4c-.62,.39-1.23,.78-1.83,1.21-1.89,1.36-3.02,3.64-3.02,6.13v1.07c0,8.08-2.02,15.67-5.84,21.92-2.71,4.48-2.71,8.41-2.71,10.53,0,4.65-1.4,8.2-2.73,11.62-1.11,2.86-2.26,5.82-2.73,9.62-.25-2.47-.78-4.58-1.44-6.54-.45-1.44-.99-2.78-1.5-4.11-.97-2.51-1.91-4.89-2.32-7.69-.02-.25-.06-.49-.08-.74-.08-.68-.12-1.4-.12-2.16v-.08c0-1.17-.02-2.96-.45-5.12-.41-2.01-1.19-4.36-2.67-6.81-1.48-2.43-2.67-5.08-3.54-7.92-1.23-3.91-1.87-8.12-1.87-12.52v-1.07c0-1.09-.16-2.14-.47-3.15-.31-1.03-.76-1.97-1.4-2.84-.14-.27-.33-.51-.56-.76-.45-.1-.35,0-.45-.1,1.71-.33,3.56-1.11,5.12-1.87,1.4-.7,2.63-1.67,3.66-2.53,1.25-1.05,3.54-2.63,6.68-3.29,.95-.23,1.97-.35,3.08-.35,1.64,0,3.17,.29,4.48,.72,.35,.27,.68,.51,.95,.74,.93,.78,1.95,1.58,3.08,2.14,.76,.37,1.56,.7,2.39,.95t.02,0c.76,.6,1.58,1.17,2.51,1.62,.14,.06,.27,.12,.41,.19,.68,.33,1.38,.6,2.08,.82,.43,.14,.86,.27,1.3,.37Z"/><g><path class="cls-2" d="M40.08,77.64h-3.04v-2.85h3.04c.31,0,.6-.13,.81-.36,.22-.24,.33-.57,.3-.91-.38-4.3-1.64-7.52-2.86-10.64-1.34-3.43-2.72-6.97-2.72-11.62,0-2.12,0-6.06-2.72-10.52-3.81-6.26-5.83-13.84-5.83-21.92v-1.08c0-2.47-1.14-4.76-3.04-6.13-4.78-3.43-10.47-5.19-16.31-5.2-2.68,.01-4.87,2.26-4.87,5.01v10.66H0V11.42C0,7.11,3.46,3.59,7.7,3.56c6.44,0,12.71,1.95,17.99,5.73,2.65,1.9,4.23,5.05,4.23,8.44v1.08c0,7.56,1.87,14.62,5.41,20.44,3.14,5.15,3.14,9.77,3.14,11.99,0,4.13,1.23,7.27,2.53,10.6,1.29,3.3,2.63,6.72,3.04,11.43,.1,1.13-.28,2.25-1.04,3.08-.75,.82-1.81,1.28-2.92,1.28Z"/><path class="cls-2" d="M12.13,17.27c-2.42-3.03-3.6-6.79-3.6-11.49h2.85c0,4.03,.97,7.2,2.98,9.71l-2.23,1.78Z"/><path class="cls-2" d="M8.55,32.77C3.83,32.77,0,28.29,0,22.8S3.83,12.82,8.55,12.82s8.55,4.47,8.55,9.97-3.83,9.97-8.55,9.97Zm0-17.09c-3.14,0-5.7,3.2-5.7,7.12s2.56,7.12,5.7,7.12,5.7-3.2,5.7-7.12-2.56-7.12-5.7-7.12Z"/><path class="cls-2" d="M91.17,11.41v10.67h-2.86V11.41c0-2.73-2.18-4.98-4.85-5h-.14c-.23,0-.47,0-.7,.02-.97,.02-1.91,.08-2.86,.21-3.82,.49-7.48,1.77-10.79,3.76-.62,.39-1.23,.78-1.83,1.21-1.89,1.36-3.02,3.64-3.02,6.13v1.07c0,8.08-2.02,15.67-5.84,21.92-2.71,4.48-2.71,8.41-2.71,10.53,0,4.65-1.4,8.2-2.73,11.62-1.11,2.86-2.26,5.82-2.73,9.62-.04,.37-.08,.74-.12,1.13-.04,.31,.08,.53,.18,.68,.02,.06,.06,.08,.08,.12,.23,.23,.53,.37,.86,.37h3.04v2.84h-3.04c-1.13,0-2.2-.47-2.96-1.3-.74-.8-1.11-1.87-1.01-2.96,.23-2.86,.82-5.26,1.52-7.42,.47-1.44,1.01-2.8,1.52-4.11,1.32-3.33,2.53-6.48,2.53-10.59,0-2.22,0-6.85,3.15-12.01,3.54-5.8,5.41-12.87,5.41-20.44v-1.07c0-2.67,.99-5.2,2.69-7.07,.45-.51,.97-.97,1.52-1.38,.04-.02,.08-.06,.12-.08,.51-.37,1.05-.72,1.58-1.05,4.89-3.04,10.51-4.61,16.28-4.61,4.26,.02,7.71,3.56,7.71,7.85Z"/><path class="cls-2" d="M78.83,17.29l-2.23-1.78c2.11-2.65,3.18-5.92,3.18-9.73h2.85c0,4.47-1.28,8.34-3.8,11.51Z"/><path class="cls-2" d="M82.63,31.34c-4.71,0-8.55-4.15-8.55-9.26s3.83-9.26,8.55-9.26,8.55,4.15,8.55,9.26-3.83,9.26-8.55,9.26Zm0-15.67c-3.14,0-5.7,2.88-5.7,6.41s2.56,6.41,5.7,6.41,5.7-2.88,5.7-6.41-2.56-6.41-5.7-6.41Z"/><path class="cls-2" d="M67.67,8.18v2.86c-1.25,0-2.49-.12-3.72-.37-1.71-.33-3.37-.88-4.93-1.64-1.42-.7-2.65-1.67-3.66-2.53-1.25-1.05-3.56-2.63-6.68-3.29-.97-.23-1.99-.35-3.08-.35-4.73,0-8.14,2.28-9.77,3.64-1.03,.86-2.26,1.83-3.66,2.53-2.67,1.32-5.67,2.02-8.66,2.02v-2.86c2.55,0,5.1-.6,7.4-1.73,1.13-.56,2.14-1.36,3.08-2.14,1.91-1.6,5.96-4.32,11.6-4.32,4.81,0,8.49,1.99,10.65,3.58,.35,.27,.68,.51,.95,.74,.93,.78,1.95,1.58,3.08,2.14,.76,.37,1.56,.7,2.39,.95t.02,0c1.46,.47,2.96,.72,4.48,.76,.02,.02,.02,0,.02,0,.16,.02,.33,.02,.49,.02Z"/><path class="cls-2" d="M47.01,44.88h-2.85c0-3.63,1.29-7.34,3.54-10.2,3.32-4.21,5-8.45,5-12.59s2.45-11.4,7.12-11.4v2.85c-2.12,0-4.27,4.97-4.27,8.55,0,4.8-1.89,9.63-5.61,14.35-1.84,2.33-2.93,5.48-2.93,8.44Z"/><path class="cls-2" d="M45.59,54.23c-1.86,0-2.86-.83-3.59-1.44-.61-.51-.94-.79-1.79-.79h-.32v-2.85h.32c1.87,0,2.88,.84,3.61,1.45,.6,.5,.94,.78,1.77,.78s1.17-.28,1.77-.78c.73-.61,1.74-1.45,3.61-1.45h.32v2.85h-.32c-.84,0-1.18,.28-1.79,.79-.73,.61-1.73,1.44-3.59,1.44Z"/><path class="cls-2" d="M45.59,16.38c-4.8,0-7.87-1.06-10.33-1.91-1.53-.53-2.73-.94-3.92-.94v-2.85c1.66,0,3.14,.51,4.85,1.1,2.38,.82,5.07,1.75,9.4,1.75s7.02-.93,9.4-1.75c1.71-.59,3.18-1.1,4.85-1.1v2.85c-1.19,0-2.39,.42-3.92,.94-2.46,.85-5.52,1.91-10.33,1.91Z"/><path class="cls-2" d="M47.01,53.42h-2.85v-8.55c0-2.95-1.1-6.11-2.93-8.44-3.73-4.73-5.61-9.56-5.61-14.35,0-3.57-2.15-8.55-4.27-8.55v-2.85c4.68,0,7.12,7.42,7.12,11.4s1.68,8.38,5,12.59c2.25,2.86,3.54,6.58,3.54,10.2v8.55Z"/></g></g></g></svg>