<?xml version="1.0" encoding="UTF-8"?><svg id="Layer_2" xmlns="http://www.w3.org/2000/svg" viewBox="0 0 447.02 141.21"><defs><style>.cls-1{fill:#fff;}.cls-2{fill:#e7343f;}</style></defs><g id="Layer_2-2"><g id="Layer_1-2"><g><path class="cls-1" d="M39.81,107.49l-13.54,31.77H0L61.78,1.97h25.1l61.97,137.28h-26.67l-13.73-31.77-8.43-20.01-25.89-60.01-25.69,60.01-8.63,20.01h0Z"/><path class="cls-1" d="M290.16,139.26l-.2-91-45.1,75.31h-11.38l-45.11-74.14v89.83h-24.32V1.97h20.99l54.52,91L293.11,1.97h20.99l.19,137.28h-24.13Z"/><path class="cls-1" d="M360.86,136.71c-9.87-3.01-17.69-7-23.44-11.97l8.82-19.81c5.62,4.45,12.52,8.08,20.69,10.89s16.38,4.22,24.61,4.22c10.2,0,17.81-1.63,22.85-4.9,5.03-3.27,7.55-7.58,7.55-12.95,0-3.92-1.41-7.16-4.22-9.71s-6.37-4.54-10.69-5.98-10.2-3.07-17.65-4.9c-10.46-2.48-18.93-4.97-25.4-7.46-6.47-2.48-12.03-6.37-16.67-11.67-4.64-5.3-6.97-12.46-6.97-21.48,0-7.58,2.06-14.48,6.18-20.69,4.12-6.21,10.33-11.14,18.63-14.81,8.3-3.66,18.47-5.49,30.5-5.49,8.37,0,16.6,1.05,24.71,3.14,8.1,2.09,15.1,5.1,20.98,9.02l-8.04,19.81c-6.02-3.53-12.29-6.21-18.83-8.04s-12.88-2.75-19.02-2.75c-10.07,0-17.55,1.7-22.46,5.1-4.9,3.4-7.36,7.91-7.36,13.54,0,3.92,1.41,7.13,4.22,9.61,2.81,2.49,6.38,4.45,10.69,5.89s10.2,3.07,17.65,4.9c10.2,2.35,18.56,4.8,25.1,7.35,6.54,2.55,12.13,6.44,16.77,11.67,4.64,5.23,6.96,12.29,6.96,21.18,0,7.58-2.06,14.45-6.18,20.59-4.12,6.15-10.36,11.05-18.73,14.71-8.37,3.66-18.57,5.49-30.59,5.49-10.59,0-20.82-1.5-30.69-4.51h.03Z"/></g><circle class="cls-2" cx="74.51" cy="125.32" r="13.79"/></g></g></svg>