<?xml version="1.0" encoding="UTF-8"?><svg id="Layer_2" xmlns="http://www.w3.org/2000/svg" viewBox="0 0 501.13 299.07"><defs><style>.cls-1{fill:#f99352;}.cls-2,.cls-3{fill:#f4c9a5;}.cls-4{fill:#f27f11;}.cls-5{fill:#f78e27;}.cls-6{fill:#e65e00;}.cls-7{fill:#ffebd8;}.cls-8{fill:#fadec7;}.cls-9{fill:#ffae73;}.cls-10{fill:#fc9f38;}.cls-11{fill:#ff912b;}.cls-12{fill:#f70;}.cls-13{fill:#9ddeda;}.cls-14{fill:#c8dffd;}.cls-15{fill:#dceaff;}.cls-16{fill:#da6e0e;}.cls-17{fill:#25468f;}.cls-18{fill:#1e3865;}.cls-19{fill:#7fcfcf;}.cls-20{fill:#2a3967;}.cls-21{fill:#5b9ef6;}.cls-22{fill:#4fb8c0;}.cls-23{fill:#ffe0c8;}.cls-23,.cls-3{opacity:.5;}.cls-23,.cls-3,.cls-24{isolation:isolate;}.cls-24{fill:#e6f2ff;opacity:.4;}</style></defs><g id="Layer_1-2"><path id="Path_182" class="cls-15" d="M321.28,7.84c-11.81-17.46-42.24-.31-42.24-.31,0,0-10.51,41.25-16.65,44.25s2.1-37.02,2.1-37.02c-12.85,3.06-39.31,29.16-39.31,29.16,0,0,15.48,38.62,8.78,40.02s-11.96-34.89-11.96-34.89c-10.8,7.73-17.21,25.62-17.21,25.62-6.2,27.67,29.65,34.21,29.65,34.21,0,0,5.08,13.5,2.01,32.03h0c-.67,2.99-1.06,6.04-1.16,9.11l3.28-1.12c-.03-.97-.03-1.92,.02-2.85,0,0,0-.01,0-.02v-.04c.05-.58,.13-1.42,.23-2.43h0c.33-2.31,.51-4,.58-5.19h0c.89-7.2,2.47-16.7,4.78-19.38-.46-.37-.87-.79-1.22-1.26l1.22,1.26c9.74,10.11,38.5,2.49,53.04-6.08s6.21-10.65-4.66-14.92-27.88,3.66-34.05,2.64,.48-6.44,11.18-9.21,19.49,5.87,36.89,1.7,19.37-40.25,19.37-40.25c-10.39,7.6-33.45,8.33-35.62,4.59s28.84-13.92,33.24-16.77,9.53-15.36-2.28-32.83Z"/><path id="Path_183" class="cls-14" d="M115.53,51.79c6.75-12.85,28.88-3.44,28.88-3.44,0,0,10.34,27.42,14.77,29.01s-4.26-25.17-4.26-25.17c9.02,1.11,29.12,16.95,29.12,16.95,0,0-7.64,27.6-2.96,28.05s5.52-24.79,5.52-24.79c7.98,4.47,13.73,16.22,13.73,16.22,6.35,18.46-17.68,25.67-17.68,25.67-1.42,7.33-1.06,14.9,1.06,22.07h0c.69,2,1.19,4.05,1.49,6.15l-2.33-.52c-.05-.67-.13-1.32-.23-1.95,0,0,0,0,0-.01v-.03c-.08-.4-.2-.96-.34-1.65h0c-.4-1.56-.65-2.69-.79-3.51h0c-1.16-4.86-2.96-11.24-4.74-12.9,.29-.29,.53-.61,.74-.96l-.74,.96c-5.89,7.66-26.15,4.64-36.76-.11s-5.06-6.81,2.05-10.56,19.35,.38,23.5-.79-.82-4.37-8.36-5.45-12.89,5.5-25.11,3.97-16.32-26.07-16.32-26.07c7.69,4.41,23.52,3.15,24.73,.43s-20.8-7.32-24.02-8.94-7.7-9.79-.95-22.64Z"/><g id="Group_185"><g id="Group_149"><g id="Group_148"><g id="Group_147"><path id="Path_52" class="cls-7" d="M255.67,79.67v113.04c-.02,6.96-5.66,12.59-12.61,12.61h-67.19c-1.74,0-3.47-.36-5.06-1.07-4.58-2.02-7.54-6.54-7.55-11.55V79.67c.02-6.96,5.66-12.59,12.61-12.61h67.19c6.96,.02,12.59,5.66,12.61,12.61Z"/><path id="Path_53" class="cls-8" d="M225.91,109.56c-7.1-2.67-10.69-10.58-8.03-17.68,2.67-7.1,10.58-10.69,17.68-8.03s10.69,10.58,8.03,17.68c0,0,0,0,0,0-2.67,7.1-10.58,10.69-17.68,8.03,0,0,0,0,0,0Z"/><path id="Path_54" class="cls-2" d="M243.59,101.54l-25.71-9.65c2.63-7.11,10.52-10.75,17.64-8.12,7.11,2.63,10.75,10.52,8.12,17.64-.02,.05-.03,.09-.05,.14Z"/><path id="Path_55" class="cls-8" d="M179.51,107.34c-5.87-4.79-6.75-13.44-1.95-19.32,4.79-5.87,13.44-6.75,19.32-1.95,5.87,4.79,6.75,13.44,1.95,19.32,0,0,0,0,0,0-4.79,5.87-13.44,6.75-19.32,1.95Z"/><path id="Path_56" class="cls-2" d="M198.83,105.39l-21.27-17.36c4.8-5.87,13.44-6.75,19.32-1.95,5.87,4.8,6.75,13.44,1.95,19.32Z"/><path id="Path_57" class="cls-8" d="M225.91,193.32c-7.1-2.67-10.69-10.58-8.03-17.68,2.67-7.1,10.58-10.69,17.68-8.03s10.69,10.58,8.03,17.68c0,0,0,0,0,0-2.66,7.1-10.58,10.69-17.68,8.03,0,0,0,0,0,0Z"/><path id="Path_58" class="cls-2" d="M243.59,186.22l-25.71-9.65c2.67-7.1,10.58-10.69,17.68-8.03,7.1,2.67,10.69,10.58,8.03,17.68Z"/><path id="Path_59" class="cls-8" d="M179.51,191.1c-5.87-4.79-6.75-13.44-1.95-19.32,4.79-5.87,13.44-6.75,19.32-1.95,5.87,4.79,6.75,13.44,1.95,19.32,0,0,0,0,0,0-4.8,5.87-13.44,6.75-19.32,1.95Z"/><path id="Path_60" class="cls-2" d="M198.83,190.08l-21.27-17.36c4.8-5.87,13.44-6.75,19.32-1.95,5.87,4.8,6.75,13.44,1.95,19.32Z"/><g id="Group_146"><path id="Path_61" class="cls-8" d="M236.62,152.55c-6.85,3.25-15.04,.33-18.29-6.53s-.33-15.04,6.53-18.29,15.04-.33,18.29,6.53c0,0,0,0,0,0,3.25,6.85,.33,15.04-6.53,18.29h0Z"/><path id="Path_62" class="cls-2" d="M243.14,134.26l-24.81,11.76c-3.28-6.84-.4-15.04,6.43-18.32,6.84-3.28,15.04-.4,18.32,6.43,.02,.04,.04,.08,.06,.13Z"/></g><path id="Path_63" class="cls-8" d="M175.45,135.04c2.82-7.04,10.81-10.46,17.85-7.64,7.04,2.82,10.46,10.81,7.64,17.85-2.82,7.04-10.81,10.46-17.85,7.64-7.04-2.82-10.46-10.81-7.65-17.85,0,0,0,0,0,0Z"/><path id="Path_64" class="cls-2" d="M183.09,152.89l10.2-25.49c7.01,2.88,10.36,10.91,7.48,17.92-2.84,6.92-10.71,10.29-17.68,7.58Z"/></g></g><path id="Path_65" class="cls-3" d="M255.67,95.14v98.36c.06,6.44-5.1,11.72-11.54,11.82h-61.48c-1.6,0-3.18-.34-4.63-1V108.75c0-3.75,1.52-7.34,4.23-9.93,.96-.92,2.06-1.7,3.25-2.3,1.81-.91,3.8-1.38,5.82-1.38h64.35Z"/></g><g id="Group_152"><g id="Group_151"><rect id="Rectangle_98" class="cls-7" x="180.21" y="95.77" width="92.41" height="138.26" rx="17.97" ry="17.97"/><path id="Path_66" class="cls-8" d="M242.86,138.28c-7.1-2.66-10.69-10.58-8.03-17.68,2.66-7.1,10.58-10.69,17.68-8.03,7.1,2.66,10.69,10.58,8.03,17.68,0,0,0,0,0,0-2.66,7.1-10.58,10.69-17.68,8.03,0,0,0,0,0,0Z"/><path id="Path_67" class="cls-2" d="M260.54,130.25l-25.71-9.65c2.67-7.1,10.58-10.69,17.68-8.03,7.1,2.67,10.69,10.58,8.03,17.68Z"/><path id="Path_68" class="cls-8" d="M196.47,136.06c-5.87-4.8-6.75-13.44-1.95-19.32s13.44-6.75,19.32-1.95c5.87,4.79,6.75,13.44,1.95,19.32-4.79,5.87-13.44,6.75-19.32,1.95,0,0,0,0,0,0Z"/><path id="Path_69" class="cls-2" d="M215.78,134.11l-21.27-17.36c4.8-5.87,13.44-6.75,19.32-1.95s6.75,13.44,1.95,19.32h0Z"/><path id="Path_70" class="cls-8" d="M242.86,222.03c-7.1-2.66-10.69-10.58-8.03-17.68,2.66-7.1,10.58-10.69,17.68-8.03,7.1,2.66,10.69,10.58,8.03,17.68,0,0,0,0,0,0-2.66,7.1-10.58,10.69-17.68,8.03,0,0,0,0,0,0Z"/><path id="Path_71" class="cls-2" d="M260.54,214.94l-25.71-9.65c2.67-7.1,10.58-10.69,17.68-8.03,7.1,2.67,10.69,10.58,8.03,17.68h0Z"/><path id="Path_72" class="cls-8" d="M196.47,219.82c-5.87-4.8-6.75-13.44-1.95-19.32s13.44-6.75,19.32-1.95c5.87,4.79,6.75,13.44,1.95,19.32-4.79,5.87-13.44,6.75-19.32,1.95,0,0,0,0,0,0Z"/><path id="Path_73" class="cls-2" d="M215.78,218.8l-21.27-17.36c4.8-5.87,13.44-6.75,19.32-1.95s6.75,13.44,1.95,19.32Z"/><g id="Group_150"><path id="Path_74" class="cls-8" d="M253.57,181.27c-6.85,3.25-15.04,.32-18.29-6.53s-.32-15.04,6.53-18.29c6.85-3.25,15.04-.32,18.28,6.53,3.25,6.85,.33,15.04-6.53,18.29h0Z"/><path id="Path_75" class="cls-2" d="M260.1,162.98l-24.81,11.76c-3.21-6.87-.25-15.04,6.62-18.25,6.82-3.19,14.94-.29,18.19,6.49Z"/></g><path id="Path_76" class="cls-8" d="M192.4,163.76c2.82-7.04,10.81-10.46,17.85-7.64,7.04,2.82,10.46,10.81,7.64,17.85-2.82,7.04-10.81,10.46-17.85,7.64-7.04-2.82-10.46-10.81-7.64-17.85,0,0,0,0,0,0Z"/><path id="Path_77" class="cls-2" d="M200.05,181.61l10.2-25.49c7,2.9,10.33,10.94,7.43,17.94-2.85,6.88-10.67,10.23-17.63,7.55Z"/></g></g><g id="Group_153"><rect id="Rectangle_99" class="cls-12" x="156.7" y="140.86" width="105.52" height="157.48"/><rect id="Rectangle_100" class="cls-11" x="171.4" y="140.86" width="105.52" height="157.48"/><path id="Path_78" class="cls-6" d="M171.4,150l-5.06,7.87h-9.64v-17h14.7v9.13Z"/><path id="Path_79" class="cls-11" d="M162.39,153.27h-14.7l9.01-12.41h14.7l-9.01,12.41Z"/><path id="Path_80" class="cls-3" d="M225.83,298.85h-54.42V148.04l54.42,5.23v145.58Z"/><path id="Path_81" class="cls-12" d="M276.93,153.27l-8.56,4.6h-91.87l-5.09-7.86v-9.14l105.52,12.4Z"/><path id="Path_82" class="cls-11" d="M284.38,153.27h-105.52l-7.45-12.41h105.52l7.45,12.41Z"/></g></g><g id="Group_186"><g id="Group_163"><path id="Path_103" class="cls-1" d="M100.84,151.19c-2.09-6.71-11.18-7.97-14.84-1.97-.7,1.13-1.08,2.42-1.11,3.74-.2,7.87,15.32,38.33,17.38,41.03,3.75,4.91,26.39,16.7,26.39,16.7l4.81-.7c-1.99-1.32-3.85-2.83-5.54-4.52-5.82-5.81-14.3-15.25-15.85-16.56-2.66-2.24-7.28-24.98-11.24-37.72Z"/><g id="Group_162"><g id="Group_161"><rect id="Rectangle_101" class="cls-7" x="120.56" y="213.29" width="126.53" height="84.57" rx="16.44" ry="16.44"/><path id="Path_104" class="cls-8" d="M159.47,240.53c-2.44,6.5-9.68,9.79-16.18,7.35-6.5-2.44-9.79-9.68-7.35-16.18,2.44-6.5,9.68-9.79,16.18-7.35,6.5,2.44,9.79,9.68,7.35,16.18,0,0,0,0,0,0Z"/><path id="Path_105" class="cls-2" d="M152.12,224.35l-8.83,23.53c-6.51-2.4-9.84-9.63-7.44-16.14,2.4-6.51,9.63-9.84,16.14-7.44,.05,.02,.09,.03,.14,.05Z"/><circle id="Ellipse_14" class="cls-8" cx="147.71" cy="275.04" r="12.57"/><path id="Path_106" class="cls-2" d="M155.65,265.31l-15.89,19.47c-5.38-4.39-6.18-12.3-1.79-17.68,4.39-5.38,12.3-6.18,17.68-1.79h0Z"/><path id="Path_107" class="cls-8" d="M236.11,240.53c-2.44,6.5-9.68,9.79-16.18,7.35s-9.79-9.68-7.35-16.18c2.44-6.5,9.68-9.79,16.18-7.35h0c6.5,2.44,9.79,9.68,7.35,16.18,0,0,0,0,0,0Z"/><path id="Path_108" class="cls-2" d="M228.77,224.35l-8.83,23.53c-6.49-2.46-9.76-9.71-7.3-16.2,2.45-6.46,9.66-9.74,16.14-7.33Z"/><path id="Path_109" class="cls-8" d="M234.08,282.99c-4.21,5.16-11.73,6.14-17.12,2.22-.19-.13-.38-.28-.56-.43-5.38-4.39-6.18-12.3-1.79-17.68,4.39-5.38,12.3-6.18,17.68-1.79h0c.18,.15,.36,.3,.53,.46,4.92,4.5,5.47,12.05,1.25,17.22Z"/><path id="Path_110" class="cls-2" d="M232.83,265.77l-15.87,19.43c-.19-.13-.38-.28-.56-.43-5.38-4.39-6.18-12.3-1.79-17.68,4.39-5.38,12.3-6.18,17.68-1.79,.19,.15,.36,.3,.54,.46Z"/><g id="Group_160"><path id="Path_111" class="cls-8" d="M198.81,230.73c2.97,6.27,.3,13.76-5.97,16.74-6.27,2.97-13.76,.3-16.74-5.97-2.97-6.27-.3-13.76,5.97-16.74,6.27-2.97,13.76-.3,16.74,5.97,0,0,0,0,0,0Z"/><path id="Path_112" class="cls-2" d="M182.07,224.76l10.76,22.71c-6.27,2.97-13.76,.3-16.74-5.97-2.97-6.27-.3-13.76,5.97-16.74h0Z"/></g><path id="Path_113" class="cls-8" d="M182.78,286.71c-6.44-2.58-9.58-9.89-7-16.33,2.58-6.44,9.89-9.58,16.33-7,6.44,2.58,9.58,9.89,7,16.33-2.58,6.44-9.89,9.58-16.33,7,0,0,0,0,0,0Z"/><path id="Path_114" class="cls-2" d="M199.12,279.71l-23.33-9.34c2.53-6.46,9.83-9.64,16.29-7.11s9.64,9.83,7.11,16.29c-.02,.05-.04,.11-.06,.16Z"/></g></g><path id="Path_115" class="cls-17" d="M107.41,112.68c.13-.51-10.98,5.02-11.55,5.65-5.21,5.78-3.72,13.32-.74,13.39,1.91,.05,1.54,3.22,1.54,3.22l21.3-9.01s-2.57-14.95-10.55-13.25Z"/><path id="Path_116" class="cls-17" d="M110.04,113.85s.76-8.3-8.51-8.3c1.57,.43,3.03,1.21,4.26,2.29,0,0-5.91-3.47-12.35,1.86s-2.44,18.71-4.39,21.25-9.58,3.05-8.64,11.26,24.18,18.5,22.69,25.29c0,0,9.11-13.39,2.6-19.51,0,0,3.18,2.99,3.5,6.55,0,0,.86-6.94-3.56-9.16-3.91-1.96-7.11-9.15-6.77-10.44s11.17-21.09,11.17-21.09Z"/><path id="Path_117" class="cls-17" d="M84,293.24l-4.61-.68c-10.14-9.12-16.49-21.72-17.8-35.29-.24-2.34-2.01-10.56-3.68-13.27-1.65-2.67-4.47-7.71-7.57-13.38-5.59-10.2-12.09-22.39-14.32-26.28-7.11-12.38-3.68-20.7-3.68-20.7,0,0,19.83-1.96,25.27-6.71l1.96,3.02s4.3,19.02,4.09,19.11c.21,.65,.43,1.31,.64,1.98,3.39,10.47,7.29,23.55,9.42,34.21,1.2,6,1.51,17.88,1.84,20.19,1.92,13.65,8.44,37.8,8.44,37.8Z"/><path id="Path_118" class="cls-18" d="M93.67,299.07h-19.23c-.25-1.74-.06-3.51,.54-5.15,.96-2.13,2.33-2.2,.18-5.55,1.22,1.26,5.15,1.78,7.93,1.4,.34,.55,2.2,4.26,3.33,5.07,1.26,.91,6.86,.59,7.25,4.22Z"/><path id="Path_119" class="cls-18" d="M50.34,230.63c-5.59-10.2-12.09-22.39-14.32-26.28-7.11-12.38-3.68-20.7-3.68-20.7,0,0,9.61-3.17,15.05-7.93,0,0,4.44,38.7,2.96,54.9Z"/><path id="Path_120" class="cls-17" d="M50.81,185.08l.07-3.6c-7.16,.9-24.7-8.56-24.7-8.56,0,0-7.5,4.98-8.52,19.22-.5,6.95-3.67,36.34-4.02,45.12-.13,3.18-3.26,10.99-4.37,13.06-10.93,20.34-5.22,47.98-5.22,47.98l2.54-.65s9.24-28.65,15.29-41.05c1.03-2.1,7.4-12.13,9.76-17.77,4.46-10.66,8.8-24.73,11.89-35.62,.21,.05,7.29-18.13,7.29-18.13Z"/><path id="Path_121" class="cls-9" d="M92.74,161.08c-11.71-2.69-4.23-19.15-3.55-18.86,1.62-.33,5.19-3.18,8.38-8.74l.43,.37,7.19,6.31s-1.66,2.45-3.06,4.86c-1.09,1.88-2.02,3.73-1.87,4.37,.58,.46-4.39,12.42-7.51,11.7Z"/><path id="Path_122" class="cls-19" d="M100.14,148.85c1.23,2.45,2.28,4.99,3.16,7.58,1.1,3.52,3.85,14.72,3.85,14.72,0,0-5.67,6.47-13.56,6.09,0,0-4.24-6.64-2.75-12.63s9.3-15.76,9.3-15.76Z"/><path id="Path_123" class="cls-1" d="M105.19,140.16s-1.66,2.45-3.06,4.86c-4.47-2.76-4.48-8.3-4.13-11.16l7.2,6.31Z"/><path id="Path_124" class="cls-9" d="M105.39,143.32s-10.86-6.04-6.99-12.75,5.07-12,12.17-8.43,6.96,6.9,6.21,9.45-8.46,13.12-11.38,11.72Z"/><path id="Path_125" class="cls-17" d="M118.61,127.68c-.5-2.98-2.01-3.26-3.06-3.06-2.04-3.77-6.53-5.49-10.56-4.04-2.17,2.65-5.2,4.47-8.56,5.14,0,0,1.26,2.34,6.45,3.8,1.71,.37,3.49,.23,5.12-.41-2.32,1.26-4.8,2.19-7.37,2.78,6.84,.63,13.35-5.63,14.03-6.3,.53,1.43,.71,2.97,.54,4.48-.45,2.02-2.24,5.67-1.15,6.14,0,0,5.31-4.06,4.56-8.53Z"/><path id="Path_126" class="cls-18" d="M19.34,299.07H.11c-.25-1.74-.06-3.51,.54-5.15,.96-2.13,2.47-3.1,2.11-5.68,1.5,1.7,3.74,2.56,5.99,2.29,.34,.55,2.2,3.51,3.34,4.32,1.26,.9,6.86,.58,7.25,4.22Z"/><path id="Path_127" class="cls-13" d="M94.12,174.13c-3.1,.9-6.28,1.48-9.5,1.72-5.06,.55-10.28,.93-13.01,2.02-1.29,.52-2.52,1.18-3.65,1.99h0s-.07,.05-.11,.08c-.54,.39-1.04,.82-1.51,1.3-.75,.75-1.35,1.64-1.76,2.62-1,2.48,.32,9.35,1.18,13.1,.35,1.51-.37,3.07-1.75,3.79-1.92,.99-3.81,1.91-5.67,2.75-.1,.05-.2,.09-.29,.13,.02-.38,.02-.76,.02-1.13,0-1.59-.11-3.17-.32-4.75-.46,2.61-2.18,5.44-3.79,7.61-25.8,10.35-43.83,5.85-43.54,.7,1.02-17.91,13.09-33.14,13.09-33.14,22.52-26.19,68.08-33.09,68.08-33.09,0,0,2.18-.26,4.81,2.9,3.79,4.56,3.98,5.74,3.98,5.74,0,0,1,23.11-6.28,25.65Z"/><path id="Path_128" class="cls-19" d="M84.62,175.85c-5.06,.55-10.28,.93-13.01,2.02-.6-10.2,1.75-20.36,6.76-29.26,0,0,5.14,20.92,6.25,27.24Z"/><path id="Path_129" class="cls-9" d="M89.93,145.38s-12.67,1.25-13.69,9.48,12.15,41.77,14.03,44.81c3.43,5.53,23.64,24.48,23.64,24.48l3.73-2.26s-14.33-24.27-16.55-26.54c-3.49-3.56-6.87-47.12-11.16-49.97Z"/><path id="Path_130" class="cls-13" d="M96.42,161.11s1.3-21.23-14.95-16.1,2.52,41.65,2.52,41.65c0,0,9.54-.47,12.92-8.79l-.49-16.76Z"/><path id="Path_131" class="cls-19" d="M65.76,196.96c.35,1.51-.37,3.07-1.75,3.78-1.92,.99-3.81,1.91-5.67,2.75-.1-.32-.19-.65-.27-1-.33-1.56-.43-3.16-.32-4.75,.43-7.93,5.83-13.93,8.6-16.51-.75,.75-1.35,1.64-1.76,2.62-1,2.48,.33,9.35,1.17,13.1Z"/><path id="Path_132" class="cls-19" d="M91.61,139.83s1.98-2.51,3.32-2.43c0,0,5.42,7.59,5.47,11.07,0,0-6.76-9-8.79-8.65Z"/><path id="Path_133" class="cls-1" d="M143.63,213.29s-2.88,.05-3.51-.04c-.74-.17-1.49-.3-2.25-.38-.78,.03-1.56,.16-2.31,.39-.11,.02-.23,.03-.34,.03h-4.78c-.42-.26-.77-.63-1.01-1.07-.23-.37-.26-1.24-.77-1.52-2.9-1.62,4.81-.7,4.81-.7,0,0,4.84-.09,5.29,.24,.8,.6,5.05,2.82,4.87,3.05Z"/><path id="Path_134" class="cls-1" d="M130.44,213.29c1.28,.35,2.53,.82,3.73,1.39l.84,.53s.49-.54-.28-1.15c-.8-.54-1.36-1.37-1.56-2.32-.04-1.07-3.35-.13-2.74,1.55Z"/><path id="Path_135" class="cls-9" d="M117.65,221.89c1.08,.97,2.33,1.74,3.69,2.26,1.6,.39,3.41,4.96,3.7,5.61s-1.52-.29-2.25-1.4-1.22-1.55-1.43-1.31c-.08,1.76,.39,3.5,1.34,4.98,1.21,1.69,1.93,3.19,1.06,3.09s-6.04-1.35-7.11-4.5-.28-3.25-2.73-6.48,3.72-2.26,3.72-2.26Z"/></g></g><g id="Group_187"><g id="Group_167"><path id="Path_165" class="cls-17" d="M176.52,291.11c-.01,3.98-3.24,7.21-7.23,7.23h-34.12c-3.99-.01-7.22-3.25-7.21-7.24,.01-3.98,3.23-7.2,7.21-7.21h34.12c3.98,.01,7.21,3.24,7.23,7.22Z"/><path id="Path_166" class="cls-21" d="M158.92,291.11c-.01,3.99-3.24,7.21-7.22,7.23h-16.52c-3.99-.01-7.22-3.25-7.21-7.24,.01-3.98,3.23-7.2,7.21-7.21h16.52c3.98,.01,7.21,3.24,7.22,7.22Z"/><path id="Rectangle_102" class="cls-24" d="M137.44,285.49h32.31c.63,0,1.14,.51,1.14,1.14h0c0,.63-.51,1.14-1.14,1.14h-32.31c-.63,0-1.14-.51-1.14-1.14h0c0-.63,.51-1.14,1.14-1.14h0Z"/></g><g id="Group_168"><path id="Path_167" class="cls-12" d="M147.4,270.65c1.88,3.78,.35,8.38-3.42,10.28l-32.34,16.21c-3.78,1.9-8.39,.36-10.28-3.42-1.9-3.78-.36-8.39,3.42-10.28l32.34-16.21c3.78-1.88,8.38-.35,10.28,3.42Z"/><path id="Path_168" class="cls-11" d="M130.72,279.01c1.88,3.78,.36,8.37-3.41,10.28l-15.66,7.85c-3.78,1.9-8.39,.36-10.28-3.42-1.9-3.78-.36-8.39,3.42-10.28h0l15.66-7.85c3.78-1.88,8.37-.35,10.28,3.42Z"/><path id="Path_169" class="cls-23" d="M139.51,270.64l-30.85,15.46c-.54,.27-1.19,.05-1.46-.48l-.11-.22c-.27-.54-.05-1.19,.48-1.46l30.85-15.46c.54-.27,1.19-.05,1.46,.48l.11,.22c.27,.54,.05,1.19-.48,1.46Z"/></g></g><g id="Group_181"><path id="Path_136" class="cls-20" d="M409.39,53.21c-.02-.6-.49-7.09-10.37-7.43,0,0,4.86,.58,5.7,2.72,0,0-3.31-2.64-6-1.79s-4.28,5.57-4.29,7.12,1.48,6.56,3.19,6.98c.68,.14,1.39,.14,2.07,0-.49,.76-.93,1.55-1.33,2.37-3.94,8.09,.12,16,3.46,15.13,2.14-.56,2.75,3.09,2.75,3.09l20.8-16.84s-7.65-15.81-15.98-11.36Z"/><path id="Path_137" class="cls-13" d="M445,139.15c-.69,1.63-1.52,3.19-2.49,4.67-1.1,1.81-2.63,3.32-4.45,4.39-1.37-.66-3.85-1.64-4.9-2.29-3.8-2.32-9.22-8.9-13.64-15.95-.67-1.08-1.33-2.16-1.95-3.25-.13-.19-.24-.39-.34-.6-1.5-2.57-2.7-5.31-3.58-8.15l8.04-17.18s2.5,1.49,4.67,7.75c3.24,9.31,8.49,22.53,12.13,26.58,.85,.94,3.34,2.37,6.35,3.88h0c.06,.1,.11,.15,.15,.15Z"/><path id="Path_138" class="cls-19" d="M442.5,143.83c-1.1,1.81-2.63,3.32-4.45,4.39-1.37-.66-3.85-1.64-4.9-2.29-3.8-2.32-9.22-8.9-13.64-15.95,.16-2.22,11.77,9.17,13.25,11.23,1.11,1.56,6.85,2.33,9.74,2.62Z"/><g id="Group_165"><path id="Path_139" class="cls-17" d="M461.91,279.23l-1.62,15c-.33,2.97-3,5.12-5.98,4.81l-15-1.62c-2.97-.33-5.12-3-4.81-5.98l1.62-15c.3-2.7,2.55-4.77,5.26-4.84,.24,0,.48,0,.72,.03l15,1.62c2.97,.33,5.12,3,4.81,5.98Z"/><path id="Path_140" class="cls-18" d="M453.47,278.81c-10.61,.59-12.78,18.77-14.16,18.62-2.98-.33-5.12-3-4.81-5.98l1.62-15c.3-2.7,2.55-4.77,5.26-4.84,9.35,3.4,17.42,6.9,12.09,7.2Z"/><path id="Path_141" class="cls-8" d="M500.29,95.61l-20.22,113.97-11.4,64.3c-.66,3.71-4.08,6.27-7.82,5.87l-18.42-1.99-4.16-.45c-5.23-.57-9.11-5.1-8.86-10.35l2.96-62.53,5.46-115.57,38.5,4.16,23.96,2.59Z"/><path id="Path_142" class="cls-3" d="M476.33,93.03l-19.63,112.14-11.94,68.27c-.28,1.66-1.1,3.18-2.33,4.32l-4.16-.45c-5.23-.57-9.11-5.1-8.86-10.35l2.96-62.53,5.46-115.57,38.5,4.16Z"/><path id="Path_143" class="cls-4" d="M501.13,87.83l-.84,7.79-23.96-2.59-38.5-4.16,.84-7.78,38.75,4.18,23.71,2.56Z"/><path id="Path_144" class="cls-10" d="M480.07,209.58l-11.48,64.71c-.62,3.47-3.82,5.88-7.33,5.5l-17.34-1.87-7.23-.78c-4.34-.47-7.57-4.24-7.36-8.6l3.03-64.11,24.69,2.67,23.02,2.49Z"/><path id="Path_145" class="cls-5" d="M457.05,207.1l-12.06,67.98c-.18,1.01-.54,1.97-1.07,2.84l-7.23-.78c-4.34-.47-7.57-4.24-7.36-8.6l3.03-64.11,24.69,2.67Z"/><path id="Path_146" class="cls-16" d="M477.41,85.27l-1.09,7.76-38.5-4.16,.84-7.78,38.74,4.18Z"/></g><path id="Path_147" class="cls-17" d="M416.63,291.65l-4.42,1.65s-19.19-26.61-21.55-50.03c-.42-4.18,.44-13.04,.11-14.94-.15-.89-.34-1.95-.55-3.17-.62-3.57-1.48-8.46-2.46-14.03-2.26-12.81-5.18-29.2-7.46-41.24l1.19-.38,12.88-4.16,2.66-8.45,9.59-2.53s2.14,4.19,4.06,23.99c.35,2.6,.67,5.46,.92,8.57,.88,11.56,.58,23.18-.91,34.68-.44,3.44-2.27,16.97-2.05,21.15,.97,19.15,7.99,48.89,7.99,48.89Z"/><path id="Path_148" class="cls-18" d="M411.61,186.93l-20.83,41.4c-.15-.89-.34-1.95-.55-3.17-.62-3.57-1.48-8.46-2.46-14.03-2.26-12.81-5.18-29.2-7.46-41.24l1.19-.38,12.88-4.16,2.66-8.45,9.59-2.53s2.14,4.19,4.06,23.99c.35,2.6,.68,5.46,.92,8.57Z"/><path id="Path_149" class="cls-17" d="M402.45,159.69l-.48-4.14c-8.08,2.15-29.66-5.99-29.66-5.99,0,0-7.82,6.88-6.8,23.36,.5,8.05,1.42,42.24,2.37,52.36,.35,3.67-2.03,13.1-2.99,15.65-9.39,25.02,1.45,55.83,1.45,55.83l2.81-1.13s17.79-64.5,19.62-71.33c3.47-12.92,6.26-29.72,8.12-42.69,.26,.01,5.56-21.92,5.56-21.92Z"/><path id="Path_150" class="cls-9" d="M408.57,111.72c-13.89,.76-10.83-19.94-9.99-19.83,1.7-.89,4.75-5.2,6.51-12.41l.6,.28,10.02,4.71s-1.06,3.26-1.85,6.38c-.61,2.44-1.05,4.8-.68,5.46,.79,.32,1.26,.52,1.26,.52,0,0,0,0,0,.01,.1,.26-2.17,14.68-5.87,14.88Z"/><path id="Path_151" class="cls-1" d="M415.72,84.47s-1.07,3.26-1.85,6.38c-5.86-1.63-7.64-7.79-8.17-11.09l10.02,4.71Z"/><path id="Path_152" class="cls-9" d="M416.95,87.92s-14.01-3.24-11.86-11.94,1.8-14.97,10.83-13.27,9.95,5.45,9.93,8.53-5.21,17.3-8.91,16.68Z"/><path id="Path_153" class="cls-20" d="M426.65,66.31c-1.51-3.15-3.28-2.98-4.39-2.42-3.48-3.54-9.01-4.01-13.04-1.11-1.56,3.65-4.35,6.64-7.87,8.46,0,0,2.15,2.2,8.39,2.16,2.02-.14,3.96-.87,5.57-2.1-2.18,2.14-4.63,3.97-7.31,5.45,7.81-1.5,13.05-10.54,13.58-11.5,1.05,1.42,1.74,3.07,2.03,4.81,.15,2.39-.68,7.02,.69,7.2,0,0,4.6-6.21,2.34-10.94Z"/><path id="Path_154" class="cls-18" d="M382.68,299.07h-22.25c-.29-2.01-.07-4.06,.63-5.96,1.11-2.47,2.86-3.59,2.44-6.58,1.74,1.97,4.33,2.96,6.93,2.65,.39,.64,2.54,4.06,3.86,5,1.45,1.05,7.93,.68,8.38,4.89Z"/><path id="Path_155" class="cls-18" d="M430.46,299.07h-22.25s-.83-3.55,.63-5.96c1.29-2.14,.8-3.35-.16-5.12,1.18,.51,2.46,.75,3.75,.7,1.18-.13,2.31-.53,3.31-1.16,1.98,2.34,4.1,4.56,6.34,6.66,1.45,1.04,7.94,.67,8.39,4.88Z"/><path id="Path_156" class="cls-13" d="M421.69,100.8l-3.65,49-2.23,30c-3.43,1.07-6.7,1.9-9.8,2.54-.2-1.86-.54-3.71-1.02-5.52,.04,1.58-1.81,4.6-2.9,6.24-28.49,4.56-41.85-7.86-41.85-7.86,1.11-11,5.91-33.26,11.66-51.91,1.2-3.88,2.43-7.6,3.69-11.04,1.79-5.12,3.86-10.15,6.2-15.05,2.92-6.01,15.98-5.63,15.98-5.63,1.71,5.69,4.98,10.78,9.43,14.72,3.69-2.17,6.43-9.78,6.43-9.78l8.06,4.29Z"/><path id="Path_157" class="cls-9" d="M444.55,152.11c-2.17,.06-4.34-.2-6.43-.78,0,0,5.36-.08,4.22-1.77-.21-.31-2.88-.07-5.85-.07-1.47,.28-2.86,.88-4.08,1.75-2.16-.29-4.12-.7-4.75-.84-.08-.01-.16-.04-.23-.07l-1.91,5.55s.4,.1,1.1,.23c3.01,.72,5.96,1.62,8.86,2.71,3.44,1.46,7.43,.6,9.96-2.14,.99-.91,1.62-2.16,1.77-3.5-.06-1.11-1.54-1.06-2.66-1.07Z"/><path id="Path_158" class="cls-22" d="M400.64,89.88s-2.37,.16-2.88,1.68c0,0,3.09,12.45,9.43,14.72l-6.55-16.39Z"/><path id="Path_159" class="cls-22" d="M407.18,106.27s5.91-9.83,5.89-11.31c0,0,2.44,.95,2.29,2.46,0,0-5.09,8.17-8.18,8.84Z"/><path id="Path_160" class="cls-19" d="M390.96,101.85c.17,.59,21.5,34.65,21.97,41.43s-8.97,2.95-9.12,2.06-12.85-43.49-12.85-43.49Z"/><path id="Path_161" class="cls-19" d="M418.04,149.8l-2.23,30c-30.52-8.79-32.19-73.18-32.19-73.18l18.86,34.05,15.4,8.9s.06,.08,.17,.23Z"/><path id="Path_162" class="cls-9" d="M431.61,152.54l-1.17,4.28s-1.47-.27-3.81-.7c-.7-.14-1.1-.24-1.1-.24-1.87-.36-4.11-.87-6.55-1.4h-.04c-4.18-1-8.86-2.21-12.8-3.55-.35-.12-.7-.25-1.04-.37-2.33-.86,2.18-12.7,4.22-11.23,.54,.39,1.12,.8,1.73,1.21,3.38,2.3,7.69,4.86,11.51,7.01,1.87,1.07,3.64,2.04,5.12,2.84,2.37,1.3,3.94,2.13,3.94,2.13Z"/><path id="Path_163" class="cls-13" d="M411.04,140.55c-.06,5.04-2.87,9.65-7.32,12.02-8.75-3.16-13.43-16.2-17.04-25.16-.5-1.24-.97-2.47-1.44-3.68-1.58-4.14-2.85-8.38-3.81-12.71-.47-1.99-.77-4.01-.9-6.05-.04-.57-.05-1.13-.03-1.7,.07-9.7,6.92-10.7,7.82-9.59,1.44,1.96,2.64,4.08,3.58,6.32,1.9,4.31,3.91,9.9,5.78,15.44,1.04,3.04,2.04,6.09,3.04,8.89,.57,1.7,1.14,3.31,1.67,4.78,.77,2.24,1.71,4.42,2.81,6.52,1.15,1.46,2.54,2.72,4.11,3.71,.54,.39,1.12,.79,1.72,1.21Z"/><path id="Path_164" class="cls-13" d="M445.04,139.1s-.02,.05-.04,.05l.03-.06c.03-.05,.03-.05,.02,0Z"/></g></g></svg>