<svg xmlns="http://www.w3.org/2000/svg" width="24.414" height="27.248" viewBox="0 0 24.414 27.248">
  <g id="Group_951" data-name="Group 951" transform="translate(-308.362 -18.625)">
    <rect id="Rectangle_235" data-name="Rectangle 235" width="5.495" height="9.892" rx="2.748" transform="translate(312.626 35.981)" fill="#68bbea"/>
    <rect id="Rectangle_236" data-name="Rectangle 236" width="5.495" height="9.892" rx="2.748" transform="translate(324.716 35.981)" fill="#68bbea"/>
    <rect id="Rectangle_237" data-name="Rectangle 237" width="22.348" height="10.624" rx="5.312" transform="translate(310.428 28.288)" fill="#68bbea"/>
    <circle id="Ellipse_29" data-name="Ellipse 29" cx="2.931" cy="2.931" r="2.931" transform="translate(312.259 19.861)" fill="#68bbea"/>
    <circle id="Ellipse_30" data-name="Ellipse 30" cx="2.931" cy="2.931" r="2.931" transform="translate(325.082 19.861)" fill="#68bbea"/>
    <g id="Group_596" data-name="Group 596" transform="translate(308.362 18.625)">
      <g id="Group_593" data-name="Group 593" transform="translate(0 0)">
        <g id="Group_585" data-name="Group 585">
          <g id="Group_581" data-name="Group 581" transform="translate(2.455)">
            <g id="Group_580" data-name="Group 580">
              <g id="Group_579" data-name="Group 579">
                <path id="Path_330" data-name="Path 330" d="M318.591,25.413a3.207,3.207,0,1,1,3.152-3.206A3.183,3.183,0,0,1,318.591,25.413Zm0-5.778a2.572,2.572,0,1,0,2.517,2.571A2.547,2.547,0,0,0,318.591,19.635Z" transform="translate(-315.301 -18.863)" fill="#27367e"/>
                <path id="Path_331" data-name="Path 331" d="M318.353,25.313a3.344,3.344,0,1,1,3.289-3.344A3.321,3.321,0,0,1,318.353,25.313Zm0-6.413a3.07,3.07,0,1,0,3.014,3.069A3.046,3.046,0,0,0,318.353,18.9Zm0,5.778a2.709,2.709,0,1,1,2.654-2.709A2.685,2.685,0,0,1,318.353,24.678Zm0-5.143a2.435,2.435,0,1,0,2.38,2.434A2.41,2.41,0,0,0,318.353,19.535Z" transform="translate(-315.063 -18.625)" fill="#27367e"/>
              </g>
            </g>
          </g>
          <g id="Group_584" data-name="Group 584" transform="translate(0 7.854)">
            <g id="Group_583" data-name="Group 583">
              <g id="Group_582" data-name="Group 582">
                <path id="Path_332" data-name="Path 332" d="M315.236,58.961H312.5c-.447,0-1.9-.2-1.9-2.785V51.333h-.392a1.537,1.537,0,0,1-1.468-1.594V43.584a2.954,2.954,0,0,1,2.876-3.147h4.129a.317.317,0,1,1,0,.635h-4.129a2.335,2.335,0,0,0-2.24,2.512v6.154a.9.9,0,0,0,.833.959h.71a.318.318,0,0,1,.318.318v5.161c0,1.367.462,2.15,1.268,2.15h2.735c.8,0,1.266-.783,1.266-2.15v-.3a.318.318,0,1,1,.635,0v.3C317.137,58.761,315.682,58.961,315.236,58.961Z" transform="translate(-308.6 -40.3)" fill="#27367e"/>
                <path id="Path_333" data-name="Path 333" d="M315,58.861h-2.735c-.479,0-2.041-.211-2.041-2.922V51.232h-.255a1.674,1.674,0,0,1-1.605-1.732V43.346a3.088,3.088,0,0,1,3.013-3.284H315.5a.455.455,0,1,1,0,.91h-4.129a2.2,2.2,0,0,0-2.1,2.375V49.5a.767.767,0,0,0,.7.822h.71a.455.455,0,0,1,.455.455v5.161c0,1.279.412,2.013,1.131,2.013H315c.717,0,1.129-.734,1.129-2.013v-.3a.455.455,0,1,1,.91,0v.3C317.037,58.65,315.476,58.861,315,58.861Zm-3.623-18.524a2.82,2.82,0,0,0-2.738,3.01V49.5a1.4,1.4,0,0,0,1.331,1.457h.53v4.981c0,2.457,1.352,2.648,1.766,2.648H315c.414,0,1.764-.191,1.764-2.648v-.3a.18.18,0,1,0-.36,0v.3c0,1.454-.511,2.288-1.4,2.288h-2.735c-.893,0-1.406-.834-1.406-2.288V50.777a.181.181,0,0,0-.18-.18h-.71a1.04,1.04,0,0,1-.97-1.1V43.346a2.469,2.469,0,0,1,2.378-2.65H315.5a.18.18,0,1,0,0-.36Z" transform="translate(-308.362 -40.062)" fill="#27367e"/>
              </g>
            </g>
          </g>
        </g>
        <g id="Group_592" data-name="Group 592" transform="translate(14.603)">
          <g id="Group_588" data-name="Group 588" transform="translate(0.595)">
            <g id="Group_587" data-name="Group 587">
              <g id="Group_586" data-name="Group 586">
                <path id="Path_334" data-name="Path 334" d="M353.372,25.413a3.207,3.207,0,1,1,3.152-3.206A3.183,3.183,0,0,1,353.372,25.413Zm0-5.778a2.572,2.572,0,1,0,2.517,2.571A2.547,2.547,0,0,0,353.372,19.635Z" transform="translate(-350.083 -18.863)" fill="#27367e"/>
                <path id="Path_335" data-name="Path 335" d="M353.134,25.313a3.344,3.344,0,1,1,3.289-3.344A3.321,3.321,0,0,1,353.134,25.313Zm0-6.413a3.07,3.07,0,1,0,3.014,3.069A3.046,3.046,0,0,0,353.134,18.9Zm0,5.778a2.709,2.709,0,1,1,2.654-2.709A2.685,2.685,0,0,1,353.134,24.678Zm0-5.143a2.435,2.435,0,1,0,2.38,2.434A2.41,2.41,0,0,0,353.134,19.535Z" transform="translate(-349.845 -18.625)" fill="#27367e"/>
              </g>
            </g>
          </g>
          <g id="Group_591" data-name="Group 591" transform="translate(0 7.854)">
            <g id="Group_590" data-name="Group 590">
              <g id="Group_589" data-name="Group 589">
                <path id="Path_336" data-name="Path 336" d="M353.234,58.961H350.5c-.447,0-1.9-.2-1.9-2.785v-2.9a.317.317,0,1,1,.635,0v2.9c0,1.367.463,2.15,1.269,2.15h2.734c.8,0,1.267-.783,1.267-2.15V51.015a.318.318,0,0,1,.318-.318h.712a.9.9,0,0,0,.833-.959V43.584a2.335,2.335,0,0,0-2.24-2.512h-3.184a.317.317,0,1,1,0-.635h3.184A2.954,2.954,0,0,1,357,43.584v6.154a1.537,1.537,0,0,1-1.468,1.594h-.395v4.844C355.135,58.761,353.68,58.961,353.234,58.961Z" transform="translate(-348.459 -40.3)" fill="#27367e"/>
                <path id="Path_337" data-name="Path 337" d="M353,58.861h-2.734c-.479,0-2.041-.211-2.041-2.922v-2.9a.455.455,0,1,1,.91,0v2.9c0,1.279.413,2.013,1.131,2.013H353c.718,0,1.129-.734,1.129-2.013V50.777a.455.455,0,0,1,.455-.455h.712a.767.767,0,0,0,.7-.822V43.346a2.2,2.2,0,0,0-2.1-2.375H350.7a.455.455,0,1,1,0-.91h3.184a3.088,3.088,0,0,1,3.013,3.284V49.5a1.674,1.674,0,0,1-1.605,1.732h-.258v4.706C355.035,58.65,353.475,58.861,353,58.861Zm-4.32-6a.18.18,0,0,0-.18.18v2.9c0,2.457,1.352,2.648,1.766,2.648H353c.414,0,1.764-.191,1.764-2.648V50.958h.532a1.4,1.4,0,0,0,1.33-1.457V43.346a2.82,2.82,0,0,0-2.738-3.01H350.7a.18.18,0,1,0,0,.36h3.184a2.469,2.469,0,0,1,2.378,2.65V49.5a1.04,1.04,0,0,1-.97,1.1h-.712a.181.181,0,0,0-.18.18v5.161c0,1.454-.512,2.288-1.4,2.288h-2.734c-.894,0-1.406-.834-1.406-2.288v-2.9A.18.18,0,0,0,348.676,52.862Z" transform="translate(-348.221 -40.062)" fill="#27367e"/>
              </g>
            </g>
          </g>
        </g>
      </g>
      <g id="Group_595" data-name="Group 595" transform="translate(4.226 8.123)">
        <g id="Group_594" data-name="Group 594">
          <path id="Path_338" data-name="Path 338" d="M324.315,53.447a.319.319,0,0,1-.227-.1l-3.726-3.793a.317.317,0,0,1,0-.445l3.726-3.793a.318.318,0,0,1,.544.223v1.448h5.283a.317.317,0,0,1,.317.317V48.3l2.964-3.016-2.964-3.017v.989a.318.318,0,0,1-.317.318h-5.6a.318.318,0,0,1,0-.635H329.6V41.489a.317.317,0,0,1,.544-.222l3.726,3.793a.317.317,0,0,1,0,.445L330.142,49.3a.317.317,0,0,1-.544-.222V47.627h-5.283a.318.318,0,0,1-.318-.318V46.32l-2.964,3.016L324,52.353v-.989a.318.318,0,0,1,.318-.318h5.6a.318.318,0,0,1,0,.635h-5.283v1.448a.317.317,0,0,1-.2.294A.314.314,0,0,1,324.315,53.447Z" transform="translate(-320.134 -41.034)" fill="#27367e"/>
          <path id="Path_339" data-name="Path 339" d="M324.078,53.347a.458.458,0,0,1-.325-.136l-3.727-3.793a.457.457,0,0,1,0-.637l3.727-3.793a.455.455,0,0,1,.78.318v1.311h5.146a.455.455,0,0,1,.455.455v.654l2.634-2.681-2.634-2.681v.653a.455.455,0,0,1-.455.455h-5.6a.455.455,0,0,1,0-.91h5.146v-1.31a.455.455,0,0,1,.78-.319l3.726,3.793a.456.456,0,0,1,0,.637L330,49.155a.455.455,0,0,1-.78-.319v-1.31h-5.146a.455.455,0,0,1-.455-.455v-.653L320.99,49.1l2.634,2.681v-.653a.456.456,0,0,1,.455-.455h5.6a.455.455,0,0,1,0,.91h-5.146v1.31a.456.456,0,0,1-.455.455Zm0-8.221a.181.181,0,0,0-.129.054l-3.726,3.793a.181.181,0,0,0,0,.252l3.727,3.793a.183.183,0,0,0,.2.041.179.179,0,0,0,.112-.167V51.306h5.42a.18.18,0,0,0,0-.361h-5.6a.181.181,0,0,0-.18.18v1.325L320.6,49.1l3.294-3.352v1.325a.181.181,0,0,0,.18.18h5.42v1.585a.18.18,0,0,0,.309.126l3.726-3.793a.181.181,0,0,0,0-.252l-3.726-3.793a.18.18,0,0,0-.309.126v1.585h-5.42a.18.18,0,0,0,0,.36h5.6a.18.18,0,0,0,.18-.18V41.692l3.294,3.353L329.859,48.4V47.071a.18.18,0,0,0-.18-.18h-5.42V45.306a.18.18,0,0,0-.112-.167A.176.176,0,0,0,324.078,45.126Z" transform="translate(-319.898 -40.796)" fill="#27367e"/>
        </g>
      </g>
    </g>
  </g>
</svg>
