<svg xmlns="http://www.w3.org/2000/svg" width="27.771" height="27.248" viewBox="0 0 27.771 27.248">
  <g id="Group_952" data-name="Group 952" transform="translate(-194.924 -18.165)">
    <rect id="Rectangle_238" data-name="Rectangle 238" width="10.872" height="10.872" rx="5.436" transform="translate(197.202 25.226)" fill="#68bbea"/>
    <path id="Path_294" data-name="Path 294" d="M210.3,20.222l0,0c.13-.238.506-1.1,9.41-1.1s9.279.864,9.41,1.1l0,0a19.906,19.906,0,0,1,1.911,6.29c.327,2.457-1.1,5.3-2.349,7.817a23.863,23.863,0,0,0-1.431,3.2c-.632,1.993.5,4.685,1.346,6.3.2.386-1.851,2-8.842,2.18-2.547.064-6.67-.31-7.045-1.06-.814-1.629.089-5.423-.544-7.415a24.067,24.067,0,0,0-1.431-3.2c-1.254-2.513-2.676-5.356-2.35-7.814A19.913,19.913,0,0,1,210.3,20.222Z" transform="translate(-8.385 -0.594)" fill="#68bbea"/>
    <g id="Group_525" data-name="Group 525" transform="translate(200.111 35.725)">
      <path id="Path_295" data-name="Path 295" d="M210.61,71.739h-.868V69.559a9.73,9.73,0,0,0-.532-3.176l-.45-1.033.8-.346.463,1.065a10.615,10.615,0,0,1,.591,3.49Z" transform="translate(-208.761 -65.004)" fill="#27367e"/>
    </g>
    <g id="Group_526" data-name="Group 526" transform="translate(196.881 22.054)">
      <path id="Path_296" data-name="Path 296" d="M205.955,43.295a5.811,5.811,0,0,1-4.685-9.25c.2-.3.4-.588.6-.862a6.558,6.558,0,0,0,1.53-4.644h.868a7.422,7.422,0,0,1-1.692,5.148c-.19.265-.388.544-.591.853a4.944,4.944,0,1,0,7.649-.361l.645-.58a5.811,5.811,0,0,1-4.322,9.7Z" transform="translate(-200.144 -28.539)" fill="#27367e"/>
    </g>
    <g id="Group_527" data-name="Group 527" transform="translate(215.662 35.685)">
      <path id="Path_297" data-name="Path 297" d="M251.109,71.674h-.867V69.493a10.6,10.6,0,0,1,.578-3.458l.464-1.136.8.329-.456,1.112a9.724,9.724,0,0,0-.523,3.153Z" transform="translate(-250.242 -64.899)" fill="#27367e"/>
    </g>
    <g id="Group_528" data-name="Group 528" transform="translate(209.119 22.054)">
      <path id="Path_298" data-name="Path 298" d="M238.6,43.295a5.811,5.811,0,0,1-4.322-9.7l.645.58a4.944,4.944,0,1,0,7.663.38c-.216-.328-.415-.605-.6-.871a7.422,7.422,0,0,1-1.692-5.148h.868a6.556,6.556,0,0,0,1.53,4.644c.2.274.4.562.61.881a5.743,5.743,0,0,1,1.113,3.42A5.818,5.818,0,0,1,238.6,43.295Z" transform="translate(-232.789 -28.539)" fill="#27367e"/>
    </g>
    <g id="Group_531" data-name="Group 531" transform="translate(194.924 18.165)">
      <g id="Group_529" data-name="Group 529" transform="translate(0)">
        <path id="Path_299" data-name="Path 299" d="M195.792,26.9h-.868v-2.8c0-5.655,4.275-5.927,4.318-5.93l.042.867-.021-.433.023.433c-.143.008-3.494.256-3.494,5.063Z" transform="translate(-194.924 -18.165)" fill="#27367e"/>
      </g>
      <g id="Group_530" data-name="Group 530" transform="translate(23.405)">
        <path id="Path_300" data-name="Path 300" d="M261.721,26.9h-.868v-2.8c0-4.807-3.355-5.055-3.5-5.063l.044-.867c.043,0,4.322.275,4.322,5.93Z" transform="translate(-257.355 -18.165)" fill="#27367e"/>
      </g>
    </g>
    <g id="Group_542" data-name="Group 542" transform="translate(194.928 30.563)">
      <g id="Group_533" data-name="Group 533" transform="translate(0 0)">
        <g id="Group_532" data-name="Group 532">
          <path id="Path_301" data-name="Path 301" d="M195.369,52.106a.42.42,0,0,1-.165-.03.511.511,0,0,1-.143-.1l-.052-.065a.323.323,0,0,1-.039-.078.289.289,0,0,1-.026-.078.57.57,0,0,1-.009-.087.44.44,0,0,1,.035-.165.505.505,0,0,1,.091-.143.513.513,0,0,1,.143-.091.417.417,0,0,1,.252-.026.284.284,0,0,1,.078.026.257.257,0,0,1,.074.039c.026.017.048.034.069.052a.488.488,0,0,1,.091.143.362.362,0,0,1,.035.165.571.571,0,0,1-.009.087.266.266,0,0,1-.026.078.308.308,0,0,1-.039.078.61.61,0,0,1-.052.065.432.432,0,0,1-.069.052.412.412,0,0,1-.074.043.5.5,0,0,1-.078.022A.309.309,0,0,1,195.369,52.106Z" transform="translate(-194.935 -51.238)" fill="#27367e"/>
        </g>
      </g>
      <g id="Group_535" data-name="Group 535" transform="translate(0.196 1.693)">
        <g id="Group_534" data-name="Group 534">
          <path id="Path_302" data-name="Path 302" d="M203.011,61.839a.435.435,0,1,1,.46.408h-.026A.433.433,0,0,1,203.011,61.839Zm-1.336.3a.431.431,0,1,1,.147-.85.433.433,0,0,1-.073.859A.369.369,0,0,1,201.675,62.139Zm3.028-.494a.434.434,0,1,1,.542.291.417.417,0,0,1-.126.018A.436.436,0,0,1,204.7,61.644Zm-4.755-.022a.434.434,0,1,1,.568-.226.427.427,0,0,1-.395.26A.4.4,0,0,1,199.948,61.623Zm6.36-.56a.434.434,0,0,1,.156-.595.439.439,0,0,1,.595.161.431.431,0,0,1-.16.59.441.441,0,0,1-.217.061A.43.43,0,0,1,206.308,61.063Zm-7.918-.343a.432.432,0,0,1-.091-.607.437.437,0,0,1,.612-.091h0a.436.436,0,0,1-.26.785A.443.443,0,0,1,198.39,60.72Zm9.341-.594a.433.433,0,1,1,.611.017.413.413,0,0,1-.3.117A.42.42,0,0,1,207.731,60.126Zm-10.651-.643a.434.434,0,1,1,.612.052.428.428,0,0,1-.278.1A.439.439,0,0,1,197.08,59.483Zm-.989-1.505a.433.433,0,1,1,.772-.39.437.437,0,0,1-.191.586.455.455,0,0,1-.2.043A.426.426,0,0,1,196.091,57.978Zm-.62-1.692a.43.43,0,0,1,.321-.521.432.432,0,1,1,.2.842.375.375,0,0,1-.1.013A.435.435,0,0,1,195.471,56.286Z" transform="translate(-195.458 -55.753)" fill="#27367e"/>
        </g>
      </g>
      <g id="Group_537" data-name="Group 537" transform="translate(13.449 4.026)">
        <g id="Group_536" data-name="Group 536">
          <path id="Path_303" data-name="Path 303" d="M231.244,62.844a.69.69,0,0,1-.087-.009.277.277,0,0,1-.078-.026.318.318,0,0,1-.078-.039l-.065-.052a.44.44,0,0,1,0-.616A.774.774,0,0,1,231,62.05a.332.332,0,0,1,.078-.039.278.278,0,0,1,.078-.026.443.443,0,0,1,.395.117.434.434,0,0,1-.308.742Z" transform="translate(-230.81 -61.976)" fill="#27367e"/>
        </g>
      </g>
      <g id="Group_539" data-name="Group 539" transform="translate(14.542 1.702)">
        <g id="Group_538" data-name="Group 538">
          <path id="Path_304" data-name="Path 304" d="M238.732,62.262a.439.439,0,0,1-.408-.46.435.435,0,1,1,.434.46Zm1.3-.455a.432.432,0,1,1,.85-.152.433.433,0,0,1-.352.5.439.439,0,0,1-.073,0A.428.428,0,0,1,240.03,61.806Zm-3.072.143a.435.435,0,1,1,.542-.291.441.441,0,0,1-.417.308A.632.632,0,0,1,236.958,61.949Zm4.729-.533a.433.433,0,1,1,.568.226.478.478,0,0,1-.169.035A.436.436,0,0,1,241.687,61.416Zm-6.382-.187a.433.433,0,0,1,.434-.751h0a.435.435,0,1,1-.438.751Zm7.9-.581a.43.43,0,0,1,.087-.6.434.434,0,1,1,.52.694.447.447,0,0,1-.26.087A.426.426,0,0,1,243.209,60.648Zm-9.349-.495a.433.433,0,0,1-.013-.616.428.428,0,0,1,.611-.013.432.432,0,0,1-.3.746A.45.45,0,0,1,233.86,60.153Zm10.655-.594a.436.436,0,1,1,.278.1A.447.447,0,0,1,244.515,59.559Zm1.02-1.367A.432.432,0,1,1,246.12,58h0a.426.426,0,0,1-.386.238A.4.4,0,0,1,245.535,58.192Zm.681-1.562a.428.428,0,0,1-.321-.52.433.433,0,1,1,.421.533A.422.422,0,0,1,246.216,56.63Z" transform="translate(-233.725 -55.776)" fill="#27367e"/>
        </g>
      </g>
      <g id="Group_541" data-name="Group 541" transform="translate(26.899)">
        <g id="Group_540" data-name="Group 540">
          <path id="Path_305" data-name="Path 305" d="M267.119,52.1a.456.456,0,0,1-.308-.126l-.052-.065a.252.252,0,0,1-.039-.078.277.277,0,0,1-.026-.078.622.622,0,0,1-.009-.087.456.456,0,0,1,.126-.308.438.438,0,0,1,.395-.117.594.594,0,0,1,.078.026.346.346,0,0,1,.078.039l.065.052a.458.458,0,0,1,.126.308.567.567,0,0,1-.009.087.266.266,0,0,1-.026.078.324.324,0,0,1-.039.078.727.727,0,0,1-.052.065A.457.457,0,0,1,267.119,52.1Z" transform="translate(-266.685 -51.237)" fill="#27367e"/>
        </g>
      </g>
    </g>
    <g id="Group_543" data-name="Group 543" transform="translate(199.696 31.18)">
      <circle id="Ellipse_31" data-name="Ellipse 31" cx="0.651" cy="0.651" r="0.651" fill="#27367e"/>
    </g>
    <g id="Group_544" data-name="Group 544" transform="translate(216.616 31.18)">
      <circle id="Ellipse_32" data-name="Ellipse 32" cx="0.651" cy="0.651" r="0.651" transform="translate(0)" fill="#27367e"/>
    </g>
  </g>
</svg>
