<svg id="Group_311" data-name="Group 311" xmlns="http://www.w3.org/2000/svg" width="12.932" height="12.96" viewBox="0 0 12.932 12.96">
  <path id="Path_233" data-name="Path 233" d="M562.936,384.395c-.07.151,1.835,3.2,2.619,4.891h.595c.793-1.735,2.749-4.963,2.679-5.115-.084-.183.257-.014-.764-.571a1.813,1.813,0,0,1-.895-1.835h-2.633a1.813,1.813,0,0,1-.895,1.835C562.621,384.157,563.021,384.212,562.936,384.395Z" transform="translate(-559.428 -376.326)" fill="#835f55"/>
  <path id="Path_234" data-name="Path 234" d="M561.215,395.511c-.3.132-2.247.608-1.259,2.131s2.9,3.693,4.881,1.369c2.52-2.959.666-2.968.089-3.473s-1.939,1.617-1.939,1.617Z" transform="translate(-556.55 -388.461)" fill="#5da2d1"/>
  <path id="Path_235" data-name="Path 235" d="M570.843,351.374q-.053.052-.109.1a2.4,2.4,0,0,1-.371.271,1.8,1.8,0,0,1-.357.161,1.708,1.708,0,0,1-.349.072,1.737,1.737,0,0,1-.444-.013,1.672,1.672,0,0,1-.351-.1,1.912,1.912,0,0,1-.36-.19,2.706,2.706,0,0,1-.376-.307c-.5-.478-.491-1.686-.611-1.6-.273.184-.448-.363-.483-.687s.114-.461.251-.324.138-.015.177-.194c.012-.057.027-.114.044-.17q.038-.129.087-.255a3.147,3.147,0,0,1,.138-.306,2.714,2.714,0,0,1,.2-.325,2.261,2.261,0,0,1,.266-.311,1.913,1.913,0,0,1,.342-.264,1.783,1.783,0,0,1,.427-.185,1.942,1.942,0,0,1,.536-.071,1.837,1.837,0,0,1,.518.074,1.777,1.777,0,0,1,.424.187,1.916,1.916,0,0,1,.34.265,2.264,2.264,0,0,1,.264.311,2.736,2.736,0,0,1,.2.324,3.162,3.162,0,0,1,.137.3q.048.125.086.253c.016.055.031.111.043.168.038.178.04.33.177.194s.285,0,.25.324-.209.871-.482.687C571.334,349.687,571.338,350.9,570.843,351.374Z" transform="translate(-563.061 -345.247)" fill="#906a5d"/>
  <path id="Path_236" data-name="Path 236" d="M568.247,336.392c-.333-.177-.388.439-.573.711s-.051.775-.164.674-.229-.109-.267-.179a3.65,3.65,0,0,1,.068-2.338,1.269,1.269,0,0,1,.415-.331c.051-.05.158-.5,1.136-.725a2.581,2.581,0,0,1,2.77,1.027,2.774,2.774,0,0,1,.163,2.37c-.021.121-.2.072-.276.19s-.041-.416-.144-.567-.159-.417-.375-.457A6.8,6.8,0,0,1,568.247,336.392Z" transform="translate(-563.098 -334.134)" fill="#373737"/>
  <g id="Group_294" data-name="Group 294" transform="translate(5.59 7.808)">
    <path id="Path_237" data-name="Path 237" d="M582.9,417.431c-.207-1.511-.558-3.758-.592-3.892h-.483c-.033.134-.385,2.381-.591,3.892Z" transform="translate(-581.237 -412.28)" fill="#0d63b0"/>
    <path id="Path_238" data-name="Path 238" d="M584.615,403.016c-.006-.069-.131-.168-.184-.218a1.633,1.633,0,0,0-.345-.285h-.1a1.633,1.633,0,0,0-.345.285c-.053.051-.178.149-.184.218-.025.287.135.448.276.763a.123.123,0,0,0,.059.056.215.215,0,0,0,.081.016l.131.008v0l.03,0,.03,0v0l.131-.008a.215.215,0,0,0,.081-.016.123.123,0,0,0,.059-.056C584.48,403.464,584.639,403.3,584.615,403.016Z" transform="translate(-583.205 -402.512)" fill="#0f66bf"/>
  </g>
  <path id="Path_239" data-name="Path 239" d="M570.932,390.622c.09-.153.325.37,1.539,1.3.157.12-.81.636-.769,1.065s-1.33-1.187-1.26-1.76C570.452,391.142,570.7,391.012,570.932,390.622Z" transform="translate(-566.082 -384.149)" fill="#b7dff7"/>
  <path id="Path_240" data-name="Path 240" d="M589.881,390.622c-.09-.153-.325.37-1.539,1.3-.157.12.81.636.769,1.065s1.33-1.187,1.26-1.76C590.362,391.142,590.112,391.012,589.881,390.622Z" transform="translate(-581.926 -384.149)" fill="#b7dff7"/>
  <path id="Path_241" data-name="Path 241" d="M548.235,404.739h4.128c-.011-.666-.022-1.082-.03-1.129a1.508,1.508,0,0,0-.191-.578c-.1-.175-.474-.835-.59-1a23.169,23.169,0,0,1-1.358-2.193c-.187-.382-.2-.723-.5-.609a16.655,16.655,0,0,0-2.07.776,9.916,9.916,0,0,1,.4,1.252A15.4,15.4,0,0,1,548.235,404.739Z" transform="translate(-545.874 -391.779)" fill="#f4f4f4"/>
  <path id="Path_242" data-name="Path 242" d="M534.755,410.722a20.444,20.444,0,0,0-.066-2.529,5.307,5.307,0,0,0-.506-2.208c-.08-.117-.558.333-.61.384-.468.462-.638,1.339-1.07,2.979a6.661,6.661,0,0,0-.219,1.375Z" transform="translate(-532.284 -397.762)" fill="#e2e2e2"/>
  <path id="Path_243" data-name="Path 243" d="M592.862,404.713a15.4,15.4,0,0,1,.21-3.478,9.934,9.934,0,0,1,.4-1.252,16.672,16.672,0,0,0-2.07-.776c-.3-.114-.482.167-.669.55a22.861,22.861,0,0,1-1.187,2.252c-.117.163-.495.823-.591,1a1.51,1.51,0,0,0-.191.578c-.008.046-.02.462-.034,1.129Z" transform="translate(-582.284 -391.754)" fill="#ededed"/>
  <path id="Path_244" data-name="Path 244" d="M567.138,395.8c-.161-.12-.174-.37-.4-.779a1.8,1.8,0,0,0-.517-.515c-.2-.168-.3-.142-.3-.142a.276.276,0,0,1,.142.29c0,.066.112.323-.329.973a12.724,12.724,0,0,0-1.663,3.333,12.5,12.5,0,0,0-1.737-3.333c-.452-.64-.348-.893-.329-.973a.581.581,0,0,1,.158-.272s-.114-.044-.313.124a1.8,1.8,0,0,0-.517.515c-.228.408-.241.659-.4.779s1.258.214,1.258.214l-.894.675a14.247,14.247,0,0,0,1.679,1.639,4.541,4.541,0,0,1,.589.629,7.25,7.25,0,0,0,.557.613,3.224,3.224,0,0,1,.385-.613,4.534,4.534,0,0,1,.589-.629,14.253,14.253,0,0,0,1.679-1.639l-.894-.675S567.3,395.922,567.138,395.8Z" transform="translate(-557.649 -387.487)" fill="#e0e0e0"/>
  <g id="Group_296" data-name="Group 296" transform="translate(8.08 6.638)">
    <g id="Group_295" data-name="Group 295">
      <path id="Path_245" data-name="Path 245" d="M603.146,392.272a.1.1,0,0,0-.1.013.067.067,0,0,1,.007.01,2.007,2.007,0,0,0,.185.21,1.24,1.24,0,0,1,.116.124c1.007.658.823,2.22.711,3.091a4.513,4.513,0,0,0-.047.484.11.11,0,0,0,.221,0,4.523,4.523,0,0,1,.046-.456C604.409,394.739,604.648,392.862,603.146,392.272Z" transform="translate(-603.042 -392.264)"/>
    </g>
    <ellipse id="Ellipse_20" data-name="Ellipse 20" cx="0.374" cy="0.374" rx="0.374" ry="0.374" transform="translate(0.644 3.928)" fill="#a4a4a4"/>
    <path id="Path_246" data-name="Path 246" d="M610.2,427.914a.261.261,0,1,1-.261-.261A.261.261,0,0,1,610.2,427.914Z" transform="translate(-608.92 -423.612)" fill="#fff"/>
  </g>
  <g id="Group_301" data-name="Group 301" transform="translate(2.712 6.639)">
    <g id="Group_297" data-name="Group 297" transform="translate(0.719)">
      <path id="Path_247" data-name="Path 247" d="M563.621,392.3l.018-.026c-.027-.014-.075,0-.106.014-.21.079-1.253.6-1.2,3.054a.111.111,0,0,0,.113.108h.007a.11.11,0,0,0,.1-.112,3.441,3.441,0,0,1,.819-2.766A2.856,2.856,0,0,0,563.621,392.3Z" transform="translate(-562.333 -392.273)"/>
    </g>
    <g id="Group_298" data-name="Group 298" transform="translate(0.069 4.706)">
      <path id="Path_248" data-name="Path 248" d="M556.716,434.91c0,.054.006.119.016.186h.075c-.01-.068-.015-.135-.018-.192l0-.043c-.042-.8-.067-1.256-.074-1.346a.037.037,0,0,0-.073.006c.007.09.032.542.074,1.344Z" transform="translate(-556.64 -433.482)" fill="#e5e5e5"/>
    </g>
    <g id="Group_299" data-name="Group 299" transform="translate(1.91 4.556)">
      <path id="Path_249" data-name="Path 249" d="M572.912,433.593a1.183,1.183,0,0,1,0,.342h.076a1.306,1.306,0,0,0,0-.348l0-.044c-.089-.8-.137-1.249-.145-1.339a.037.037,0,0,0-.073.006c.007.09.056.542.145,1.341Z" transform="translate(-572.763 -432.17)" fill="#e5e5e5"/>
    </g>
    <g id="Group_300" data-name="Group 300" transform="translate(0 3.067)">
      <path id="Path_250" data-name="Path 250" d="M558.024,420.656l-.1.008a.058.058,0,0,1-.063-.053c-.055-.517-.315-1.308-.975-1.254s-.638,1.114-.625,1.383a.061.061,0,0,1-.057.064l-.1.008a.062.062,0,0,1-.067-.058,2.993,2.993,0,0,1,.071-.835c.153-.607.5-.76.757-.781.733-.06,1.134.678,1.213,1.454A.059.059,0,0,1,558.024,420.656Z" transform="translate(-556.033 -419.134)"/>
    </g>
  </g>
  <path id="Path_251" data-name="Path 251" d="M623.747,410.722a20.41,20.41,0,0,1,.066-2.529,5.31,5.31,0,0,1,.506-2.208c.08-.117.558.333.61.384.467.462.638,1.339,1.07,2.979a6.67,6.67,0,0,1,.219,1.375Z" transform="translate(-613.285 -397.762)" fill="#e2e2e2"/>
</svg>
