<svg xmlns="http://www.w3.org/2000/svg" width="28.613" height="27.248" viewBox="0 0 28.613 27.248">
  <g id="Group_950" data-name="Group 950" transform="translate(-403.468 -16.468)">
    <path id="Path_290" data-name="Path 290" d="M442.289,33.993a6.479,6.479,0,0,1-12.959,0c0-2.785,1.8-5.13,3.378-7.2.41-.536.8-1.043,1.151-1.551l.068-.1a5.967,5.967,0,0,0,1.446-3.245.434.434,0,0,1,.867,0,5.993,5.993,0,0,0,1.446,3.245l.068.1c.356.507.745,1.015,1.155,1.551C440.494,28.863,442.289,31.209,442.289,33.993Z" transform="translate(-16.558 -3.202)" fill="#68bbea"/>
    <path id="Path_291" data-name="Path 291" d="M437.543,64v8.9a4.724,4.724,0,0,0-2.392.594,3.72,3.72,0,0,1-1.572.486v-.255a.932.932,0,0,1,.3-.637,3.307,3.307,0,0,0,.8-1.9.434.434,0,0,0-.86-.112,2.488,2.488,0,0,1-.443,1.245,2.374,2.374,0,0,0-1.137-1.579.434.434,0,0,0-.378.781c.7.342.853,1.784.853,2.313v.14a3.7,3.7,0,0,1-1.572-.486,5.118,5.118,0,0,0-4.785,0,4.238,4.238,0,0,1-4.008,0,5.118,5.118,0,0,0-4.785,0,3.736,3.736,0,0,1-1.569.486v-.1c0-.5.165-2.007.889-2.356a.434.434,0,1,0-.378-.781,2.444,2.444,0,0,0-1.155,1.6,2.43,2.43,0,0,1-.457-1.263.435.435,0,0,0-.863.108,3.282,3.282,0,0,0,.8,1.9.909.909,0,0,1,.3.626v.266a3.7,3.7,0,0,1-1.572-.486A4.9,4.9,0,0,0,412,72.962V64h7.156a6.464,6.464,0,0,0,10.4,0Z" transform="translate(-5.462 -30.432)" fill="#68bbea"/>
    <g id="Group_636" data-name="Group 636" transform="translate(403.468 16.468)">
      <g id="Group_597" data-name="Group 597" transform="translate(20.884 15.388)">
        <path id="Path_340" data-name="Path 340" d="M467.448,60.109h-5.5a.434.434,0,0,1,0-.868h5.5a.434.434,0,0,1,0,.868Z" transform="translate(-461.518 -59.241)" fill="#27367e"/>
      </g>
      <g id="Group_598" data-name="Group 598" transform="translate(0 15.388)">
        <path id="Path_341" data-name="Path 341" d="M409.4,60.109h-5.5a.434.434,0,0,1,0-.868h5.5a.434.434,0,0,1,0,.868Z" transform="translate(-403.468 -59.241)" fill="#27367e"/>
      </g>
      <g id="Group_599" data-name="Group 599" transform="translate(0 25.281)">
        <path id="Path_342" data-name="Path 342" d="M425.883,88.706a4.7,4.7,0,0,1-2.393-.6,4.241,4.241,0,0,0-4.009,0,5.1,5.1,0,0,1-4.784,0,4.239,4.239,0,0,0-4.008,0,5.1,5.1,0,0,1-4.783,0,3.812,3.812,0,0,0-2-.5.434.434,0,0,1,0-.868,4.7,4.7,0,0,1,2.391.6,4.236,4.236,0,0,0,4.007,0,5.1,5.1,0,0,1,4.785,0,4.239,4.239,0,0,0,4.008,0,5.105,5.105,0,0,1,4.785,0,4.245,4.245,0,0,0,4.011,0,4.7,4.7,0,0,1,2.393-.6.434.434,0,1,1,0,.868,3.819,3.819,0,0,0-2.005.5A4.7,4.7,0,0,1,425.883,88.706Z" transform="translate(-403.468 -86.739)" fill="#27367e"/>
      </g>
      <g id="Group_608" data-name="Group 608" transform="translate(1.098 23.082)">
        <g id="Group_600" data-name="Group 600" transform="translate(0 0)">
          <path id="Path_343" data-name="Path 343" d="M406.955,81.5a.425.425,0,0,1-.166-.032.417.417,0,0,1-.14-.094.448.448,0,0,1-.1-.14.442.442,0,0,1-.032-.169.35.35,0,0,1,.011-.083.363.363,0,0,1,.025-.083.281.281,0,0,1,.04-.072.322.322,0,0,1,.054-.068.513.513,0,0,1,.065-.054.762.762,0,0,1,.076-.04.673.673,0,0,1,.079-.025.464.464,0,0,1,.173,0,.67.67,0,0,1,.079.025.759.759,0,0,1,.076.04c.022.018.047.036.065.054a.321.321,0,0,1,.054.068.28.28,0,0,1,.04.072.365.365,0,0,1,.025.083.348.348,0,0,1,.011.083.439.439,0,0,1-.13.309.418.418,0,0,1-.14.094A.437.437,0,0,1,406.955,81.5Z" transform="translate(-406.52 -80.628)" fill="#27367e"/>
        </g>
        <g id="Group_601" data-name="Group 601" transform="translate(6.595 0.006)">
          <path id="Path_344" data-name="Path 344" d="M425.285,81.505a.436.436,0,0,1-.435-.432.439.439,0,0,1,.129-.309.446.446,0,0,1,.612,0,.439.439,0,0,1,.13.309.43.43,0,0,1-.13.306A.421.421,0,0,1,425.285,81.505Z" transform="translate(-424.85 -80.643)" fill="#27367e"/>
        </g>
        <g id="Group_602" data-name="Group 602" transform="translate(8.796)">
          <path id="Path_345" data-name="Path 345" d="M431.4,81.495a.442.442,0,0,1-.306-.126.439.439,0,0,1,0-.615.439.439,0,0,1,.392-.119.67.67,0,0,1,.079.025.372.372,0,0,1,.076.04.516.516,0,0,1,.065.054.43.43,0,0,1,0,.615A.436.436,0,0,1,431.4,81.495Z" transform="translate(-430.97 -80.627)" fill="#27367e"/>
        </g>
        <g id="Group_603" data-name="Group 603" transform="translate(10.994 0.006)">
          <path id="Path_346" data-name="Path 346" d="M437.512,81.505a.43.43,0,0,1-.432-.435.432.432,0,0,1,.737-.306.43.43,0,0,1,0,.615A.421.421,0,0,1,437.512,81.505Z" transform="translate(-437.08 -80.643)" fill="#27367e"/>
        </g>
        <g id="Group_604" data-name="Group 604" transform="translate(13.193 0)">
          <path id="Path_347" data-name="Path 347" d="M443.622,81.5a.437.437,0,0,1-.165-.032.418.418,0,0,1-.14-.094.5.5,0,0,1-.094-.14.437.437,0,0,1-.032-.165.35.35,0,0,1,.007-.086.725.725,0,0,1,.025-.083.755.755,0,0,1,.04-.076.43.43,0,0,1,.054-.065l.065-.054a.759.759,0,0,1,.076-.04.556.556,0,0,1,.083-.025.445.445,0,0,1,.169,0,.51.51,0,0,1,.079.025.372.372,0,0,1,.076.04c.025.018.047.036.068.054l.054.065a.761.761,0,0,1,.04.076.659.659,0,0,1,.032.169.437.437,0,0,1-.032.165.5.5,0,0,1-.094.14.473.473,0,0,1-.144.094A.424.424,0,0,1,443.622,81.5Z" transform="translate(-443.19 -80.628)" fill="#27367e"/>
        </g>
        <g id="Group_605" data-name="Group 605" transform="translate(15.391 0)">
          <path id="Path_348" data-name="Path 348" d="M449.732,81.5a.427.427,0,0,1-.306-.126.5.5,0,0,1-.094-.14.442.442,0,0,1-.032-.169.449.449,0,0,1,.126-.306l.065-.054a.759.759,0,0,1,.076-.04.555.555,0,0,1,.083-.025.445.445,0,0,1,.169,0,.51.51,0,0,1,.079.025.373.373,0,0,1,.076.04c.025.018.047.036.068.054a.449.449,0,0,1,.126.306.442.442,0,0,1-.032.169.5.5,0,0,1-.094.14.473.473,0,0,1-.144.094A.424.424,0,0,1,449.732,81.5Z" transform="translate(-449.3 -80.628)" fill="#27367e"/>
        </g>
        <g id="Group_606" data-name="Group 606" transform="translate(17.589 0)">
          <path id="Path_349" data-name="Path 349" d="M455.842,81.5a.43.43,0,0,1-.432-.435.449.449,0,0,1,.126-.306l.065-.054a.759.759,0,0,1,.076-.04.725.725,0,0,1,.083-.025.445.445,0,0,1,.169,0,.509.509,0,0,1,.079.025.372.372,0,0,1,.076.04c.025.018.047.036.068.054a.449.449,0,0,1,.126.306.456.456,0,0,1-.032.169.43.43,0,0,1-.234.234A.456.456,0,0,1,455.842,81.5Z" transform="translate(-455.41 -80.628)" fill="#27367e"/>
        </g>
        <g id="Group_607" data-name="Group 607" transform="translate(24.184 0.006)">
          <path id="Path_350" data-name="Path 350" d="M474.172,81.505a.437.437,0,0,1-.165-.032.5.5,0,0,1-.14-.094.444.444,0,0,1-.126-.309.434.434,0,1,1,.867,0,.43.43,0,0,1-.435.435Z" transform="translate(-473.74 -80.643)" fill="#27367e"/>
        </g>
      </g>
      <g id="Group_620" data-name="Group 620" transform="translate(2.199 20.884)">
        <g id="Group_609" data-name="Group 609" transform="translate(0 0.006)">
          <path id="Path_351" data-name="Path 351" d="M410.015,75.4a.442.442,0,0,1-.169-.032.43.43,0,0,1-.234-.234.455.455,0,0,1-.032-.169.7.7,0,0,1,.007-.083.555.555,0,0,1,.025-.083.767.767,0,0,1,.04-.076l.054-.065a.45.45,0,0,1,.615,0l.054.065a.761.761,0,0,1,.04.076.559.559,0,0,1,.025.083.642.642,0,0,1,.007.083.456.456,0,0,1-.032.169.5.5,0,0,1-.094.14A.442.442,0,0,1,410.015,75.4Z" transform="translate(-409.58 -74.533)" fill="#27367e"/>
        </g>
        <g id="Group_610" data-name="Group 610" transform="translate(2.198 0.006)">
          <path id="Path_352" data-name="Path 352" d="M416.122,75.4a.438.438,0,0,1-.165-.032.43.43,0,0,1-.234-.234.456.456,0,0,1-.032-.169.442.442,0,0,1,.126-.306.45.45,0,0,1,.615,0,.436.436,0,0,1,.126.306.429.429,0,0,1-.126.309A.444.444,0,0,1,416.122,75.4Z" transform="translate(-415.69 -74.533)" fill="#27367e"/>
        </g>
        <g id="Group_611" data-name="Group 611" transform="translate(4.396 0.006)">
          <path id="Path_353" data-name="Path 353" d="M422.232,75.4a.437.437,0,0,1-.165-.032.5.5,0,0,1-.14-.094.444.444,0,0,1-.126-.309.436.436,0,0,1,.126-.306.45.45,0,0,1,.615,0,.442.442,0,0,1,.126.306.429.429,0,0,1-.126.309A.444.444,0,0,1,422.232,75.4Z" transform="translate(-421.8 -74.533)" fill="#27367e"/>
        </g>
        <g id="Group_612" data-name="Group 612" transform="translate(6.595 0.006)">
          <path id="Path_354" data-name="Path 354" d="M428.345,75.4a.444.444,0,0,1-.309-.126.451.451,0,0,1-.126-.309.436.436,0,0,1,.126-.306.45.45,0,0,1,.615,0,.442.442,0,0,1,.126.306.429.429,0,0,1-.126.309.5.5,0,0,1-.14.094A.437.437,0,0,1,428.345,75.4Z" transform="translate(-427.91 -74.533)" fill="#27367e"/>
        </g>
        <g id="Group_613" data-name="Group 613" transform="translate(8.793)">
          <path id="Path_355" data-name="Path 355" d="M434.455,75.385a.424.424,0,0,1-.166-.032.472.472,0,0,1-.144-.094.5.5,0,0,1-.094-.14.455.455,0,0,1-.032-.169.7.7,0,0,1,.007-.083.556.556,0,0,1,.025-.083.766.766,0,0,1,.04-.076l.054-.065c.022-.018.043-.036.068-.054a.374.374,0,0,1,.076-.04.51.51,0,0,1,.079-.025.432.432,0,0,1,.518.425.456.456,0,0,1-.032.169.5.5,0,0,1-.094.14A.442.442,0,0,1,434.455,75.385Z" transform="translate(-434.02 -74.517)" fill="#27367e"/>
        </g>
        <g id="Group_614" data-name="Group 614" transform="translate(10.991 0.006)">
          <path id="Path_356" data-name="Path 356" d="M440.565,75.4a.424.424,0,0,1-.165-.032.472.472,0,0,1-.144-.094.444.444,0,0,1-.126-.309.436.436,0,0,1,.126-.306.434.434,0,0,1,.741.306.429.429,0,0,1-.126.309A.442.442,0,0,1,440.565,75.4Z" transform="translate(-440.13 -74.533)" fill="#27367e"/>
        </g>
        <g id="Group_615" data-name="Group 615" transform="translate(13.189)">
          <path id="Path_357" data-name="Path 357" d="M446.675,75.385a.444.444,0,0,1-.309-.126.5.5,0,0,1-.094-.14.456.456,0,0,1-.032-.169.7.7,0,0,1,.007-.083.731.731,0,0,1,.025-.083.753.753,0,0,1,.04-.076l.054-.065a.439.439,0,0,1,.392-.119.556.556,0,0,1,.083.025.762.762,0,0,1,.076.04l.065.054a.442.442,0,0,1,.126.306.429.429,0,0,1-.126.309.456.456,0,0,1-.14.094A.437.437,0,0,1,446.675,75.385Z" transform="translate(-446.24 -74.517)" fill="#27367e"/>
        </g>
        <g id="Group_616" data-name="Group 616" transform="translate(15.387)">
          <path id="Path_358" data-name="Path 358" d="M452.785,75.385a.424.424,0,0,1-.166-.032.417.417,0,0,1-.14-.094.434.434,0,0,1,.389-.734.555.555,0,0,1,.083.025.759.759,0,0,1,.076.04c.022.018.047.036.065.054a.439.439,0,0,1,0,.615A.442.442,0,0,1,452.785,75.385Z" transform="translate(-452.35 -74.517)" fill="#27367e"/>
        </g>
        <g id="Group_617" data-name="Group 617" transform="translate(17.585 0)">
          <path id="Path_359" data-name="Path 359" d="M458.9,75.385a.451.451,0,0,1-.309-.126.444.444,0,0,1-.126-.309.673.673,0,0,1,.032-.165.4.4,0,0,1,.043-.076.8.8,0,0,1,.05-.065.323.323,0,0,1,.068-.054.373.373,0,0,1,.076-.04.671.671,0,0,1,.079-.025.445.445,0,0,1,.169,0,.555.555,0,0,1,.083.025.759.759,0,0,1,.076.04.3.3,0,0,1,.065.054.43.43,0,0,1,.054.065.761.761,0,0,1,.04.076.73.73,0,0,1,.025.083.336.336,0,0,1,.007.083.429.429,0,0,1-.126.309.418.418,0,0,1-.14.094A.437.437,0,0,1,458.9,75.385Z" transform="translate(-458.46 -74.518)" fill="#27367e"/>
        </g>
        <g id="Group_618" data-name="Group 618" transform="translate(19.784 0)">
          <path id="Path_360" data-name="Path 360" d="M465.005,75.385a.424.424,0,0,1-.165-.032.417.417,0,0,1-.14-.094.43.43,0,0,1,0-.615.512.512,0,0,1,.065-.054.372.372,0,0,1,.076-.04.672.672,0,0,1,.079-.025.446.446,0,0,1,.169,0,.555.555,0,0,1,.083.025.752.752,0,0,1,.076.04c.022.018.047.036.065.054a.439.439,0,0,1,0,.615.417.417,0,0,1-.14.094A.437.437,0,0,1,465.005,75.385Z" transform="translate(-464.57 -74.518)" fill="#27367e"/>
        </g>
        <g id="Group_619" data-name="Group 619" transform="translate(21.982)">
          <path id="Path_361" data-name="Path 361" d="M471.115,75.385a.424.424,0,0,1-.165-.032.417.417,0,0,1-.14-.094.43.43,0,0,1,0-.615.516.516,0,0,1,.065-.054.5.5,0,0,1,.076-.04.669.669,0,0,1,.079-.025.438.438,0,0,1,.522.425.436.436,0,0,1-.435.435Z" transform="translate(-470.68 -74.517)" fill="#27367e"/>
        </g>
      </g>
      <g id="Group_623" data-name="Group 623" transform="translate(3.297 23.083)">
        <g id="Group_621" data-name="Group 621" transform="translate(0 0)">
          <path id="Path_362" data-name="Path 362" d="M414.167,84.794a.434.434,0,0,1-.434-.434v-.721a.915.915,0,0,0-.3-.626,3.276,3.276,0,0,1-.8-1.9.434.434,0,0,1,.861-.108,2.427,2.427,0,0,0,.609,1.457,1.756,1.756,0,0,1,.494,1.162v.733A.434.434,0,0,1,414.167,84.794Z" transform="translate(-412.633 -80.629)" fill="#27367e"/>
        </g>
        <g id="Group_622" data-name="Group 622" transform="translate(1.099)">
          <path id="Path_363" data-name="Path 363" d="M416.123,84.244h0a.434.434,0,0,1-.434-.434c0-.253.039-2.489,1.378-3.138a.434.434,0,0,1,.378.781c-.722.35-.888,1.857-.889,2.358A.434.434,0,0,1,416.123,84.244Z" transform="translate(-415.689 -80.628)" fill="#27367e"/>
        </g>
      </g>
      <g id="Group_626" data-name="Group 626" transform="translate(20.884 23.083)">
        <g id="Group_624" data-name="Group 624" transform="translate(1.099 0)">
          <path id="Path_364" data-name="Path 364" d="M465.007,84.794a.434.434,0,0,1-.434-.434v-.721a1.763,1.763,0,0,1,.494-1.174,2.427,2.427,0,0,0,.609-1.457.434.434,0,0,1,.861.108,3.28,3.28,0,0,1-.8,1.9.921.921,0,0,0-.3.637v.71A.434.434,0,0,1,465.007,84.794Z" transform="translate(-464.573 -80.629)" fill="#27367e"/>
        </g>
        <g id="Group_625" data-name="Group 625">
          <path id="Path_365" data-name="Path 365" d="M463.05,84.243h-.006a.434.434,0,0,1-.427-.44c.006-.5-.136-2-.854-2.351a.434.434,0,1,1,.378-.781c1.343.652,1.348,2.892,1.344,3.145A.434.434,0,0,1,463.05,84.243Z" transform="translate(-461.517 -80.628)" fill="#27367e"/>
        </g>
      </g>
      <g id="Group_629" data-name="Group 629" transform="translate(7.145)">
        <g id="Group_628" data-name="Group 628">
          <g id="Group_627" data-name="Group 627">
            <path id="Path_366" data-name="Path 366" d="M429.806,35.472a6.487,6.487,0,0,1-6.479-6.479c0-2.786,1.795-5.131,3.378-7.2.41-.536.8-1.042,1.153-1.55l.067-.1a5.983,5.983,0,0,0,1.447-3.245.434.434,0,0,1,.868,0,5.983,5.983,0,0,0,1.446,3.244l.068.1c.356.508.743,1.014,1.153,1.55,1.583,2.069,3.378,4.414,3.378,7.2A6.487,6.487,0,0,1,429.806,35.472Zm0-16.735a12.339,12.339,0,0,1-1.17,1.908l-.067.1c-.367.523-.759,1.036-1.175,1.579-1.573,2.055-3.2,4.181-3.2,6.673a5.612,5.612,0,0,0,11.223,0c0-2.492-1.627-4.618-3.2-6.673-.416-.543-.809-1.056-1.175-1.579l-.067-.1A12.329,12.329,0,0,1,429.806,18.737Z" transform="translate(-423.327 -16.468)" fill="#27367e"/>
          </g>
        </g>
      </g>
      <g id="Group_630" data-name="Group 630" transform="translate(19.236 17.587)">
        <path id="Path_367" data-name="Path 367" d="M460.116,67.319a4.708,4.708,0,0,1-2.393-.6c-.166-.083-.332-.167-.516-.241a.434.434,0,0,1,.327-.8c.209.085.4.178.576.269a4.245,4.245,0,0,0,4.011,0,4.7,4.7,0,0,1,2.393-.6.434.434,0,1,1,0,.868,3.815,3.815,0,0,0-2.005.5A4.708,4.708,0,0,1,460.116,67.319Z" transform="translate(-456.937 -65.352)" fill="#27367e"/>
      </g>
      <g id="Group_631" data-name="Group 631" transform="translate(0 17.587)">
        <path id="Path_368" data-name="Path 368" d="M408.3,67.319a4.7,4.7,0,0,1-2.391-.6,3.812,3.812,0,0,0-2-.5.434.434,0,0,1,0-.868,4.7,4.7,0,0,1,2.391.6,4.236,4.236,0,0,0,4.007,0c.182-.091.371-.186.583-.272a.434.434,0,1,1,.326.8c-.185.075-.353.16-.521.244A4.7,4.7,0,0,1,408.3,67.319Z" transform="translate(-403.468 -65.352)" fill="#27367e"/>
      </g>
      <g id="Group_632" data-name="Group 632" transform="translate(12.091 8.244)">
        <path id="Path_369" data-name="Path 369" d="M439.708,42.448a.434.434,0,0,1-.434-.434V40.25h-1.33v1.765a.434.434,0,0,1-.868,0v-2.2a.434.434,0,0,1,.434-.434h2.2a.434.434,0,0,1,.434.434v2.2A.434.434,0,0,1,439.708,42.448Z" transform="translate(-437.076 -39.382)" fill="#27367e"/>
      </g>
      <g id="Group_633" data-name="Group 633" transform="translate(12.091 12.641)">
        <path id="Path_370" data-name="Path 370" d="M439.708,54.67h-2.2a.434.434,0,0,1-.434-.434v-2.2a.434.434,0,0,1,.868,0V53.8h1.33V52.038a.434.434,0,1,1,.868,0v2.2A.434.434,0,0,1,439.708,54.67Z" transform="translate(-437.076 -51.604)" fill="#27367e"/>
      </g>
      <g id="Group_634" data-name="Group 634" transform="translate(14.289 10.442)">
        <path id="Path_371" data-name="Path 371" d="M445.818,48.559h-2.2a.434.434,0,0,1,0-.868h1.765V46.361H443.62a.434.434,0,0,1,0-.868h2.2a.434.434,0,0,1,.434.434v2.2A.434.434,0,0,1,445.818,48.559Z" transform="translate(-443.186 -45.493)" fill="#27367e"/>
      </g>
      <g id="Group_635" data-name="Group 635" transform="translate(9.893 10.442)">
        <path id="Path_372" data-name="Path 372" d="M433.6,48.559h-2.2a.434.434,0,0,1-.434-.434v-2.2a.434.434,0,0,1,.434-.434h2.2a.434.434,0,0,1,0,.868h-1.765v1.331H433.6a.434.434,0,0,1,0,.868Z" transform="translate(-430.965 -45.493)" fill="#27367e"/>
      </g>
    </g>
  </g>
</svg>
