<svg xmlns="http://www.w3.org/2000/svg" width="25.164" height="27.248" viewBox="0 0 25.164 27.248">
  <g id="Group_953" data-name="Group 953" transform="translate(-105.031 -16.43)">
    <path id="Path_373" data-name="Path 373" d="M132.976,37.8a22.033,22.033,0,0,1-.266,3.353c0,.036-.047,2.177-11.4,2.5a.012.012,0,0,1-.012-.012V41.519a1.142,1.142,0,0,0-1.048-1.164,1.093,1.093,0,0,0-1.141,1.093v2.217a.012.012,0,0,1-.012.012c-9.383-.061-9.423-2.481-9.423-2.525a22.032,22.032,0,0,1-.266-3.353,22.7,22.7,0,0,1,1.328-7.622,22.619,22.619,0,0,0,1.365-7.637V18s0,0,0,0c.019-.044.75-1.568,9.092-1.568s9.069,1.524,9.088,1.568c0,0,0,0,0,0v4.54a22.534,22.534,0,0,0,1.368,7.637A22.717,22.717,0,0,1,132.976,37.8Z" transform="translate(-2.781)" fill="#68bbea"/>
    <g id="Group_641" data-name="Group 641" transform="translate(112.098 35.457)">
      <path id="Path_306" data-name="Path 306" d="M124.782,74.122a.382.382,0,1,1,0-.765,4.4,4.4,0,0,0,4.4-4.4.382.382,0,1,1,.764,0A5.167,5.167,0,0,1,124.782,74.122Z" transform="translate(-124.4 -68.578)" fill="#27367e"/>
    </g>
    <g id="Group_642" data-name="Group 642" transform="translate(116.877 35.457)">
      <path id="Path_307" data-name="Path 307" d="M142.659,74.122A5.167,5.167,0,0,1,137.5,68.96a.382.382,0,1,1,.764,0,4.4,4.4,0,0,0,4.4,4.4.382.382,0,1,1,0,.765Z" transform="translate(-137.498 -68.578)" fill="#27367e"/>
    </g>
    <g id="Group_643" data-name="Group 643" transform="translate(115.837 38.727)">
      <path id="Path_308" data-name="Path 308" d="M135.029,79.92a.382.382,0,0,1-.382-.382V77.922a.382.382,0,1,1,.765,0v1.615A.382.382,0,0,1,135.029,79.92Z" transform="translate(-134.647 -77.54)" fill="#27367e"/>
    </g>
    <g id="Group_644" data-name="Group 644" transform="translate(117.995 38.727)">
      <path id="Path_309" data-name="Path 309" d="M140.944,79.92a.382.382,0,0,1-.382-.382V77.922a.382.382,0,1,1,.764,0v1.615A.382.382,0,0,1,140.944,79.92Z" transform="translate(-140.562 -77.54)" fill="#27367e"/>
    </g>
    <g id="Group_645" data-name="Group 645" transform="translate(105.031 16.639)">
      <path id="Path_310" data-name="Path 310" d="M105.721,41.471a.382.382,0,0,1-.377-.32,22.857,22.857,0,0,1-.314-3.722,23.541,23.541,0,0,1,1.369-7.881,21.76,21.76,0,0,0,1.324-7.378V17.385a.382.382,0,1,1,.765,0v4.786a22.522,22.522,0,0,1-1.369,7.637,22.764,22.764,0,0,0-1.324,7.622,22.136,22.136,0,0,0,.3,3.6.382.382,0,0,1-.315.44A.413.413,0,0,1,105.721,41.471Z" transform="translate(-105.031 -17.003)" fill="#27367e"/>
    </g>
    <g id="Group_646" data-name="Group 646" transform="translate(126.041 16.639)">
      <path id="Path_311" data-name="Path 311" d="M165.383,41.471a.408.408,0,0,1-.063-.005.382.382,0,0,1-.315-.44,22.1,22.1,0,0,0,.3-3.6,22.765,22.765,0,0,0-1.324-7.622,22.521,22.521,0,0,1-1.369-7.637V17.385a.382.382,0,1,1,.764,0v4.786a21.769,21.769,0,0,0,1.324,7.378,23.531,23.531,0,0,1,1.369,7.881,22.9,22.9,0,0,1-.313,3.722A.382.382,0,0,1,165.383,41.471Z" transform="translate(-162.616 -17.003)" fill="#27367e"/>
    </g>
    <g id="Group_647" data-name="Group 647" transform="translate(123.745 16.644)">
      <g id="Group_552" data-name="Group 552" transform="translate(2.355 23.703)">
        <g id="Group_551" data-name="Group 551">
          <path id="Path_312" data-name="Path 312" d="M163.16,82.74a.4.4,0,0,1-.271-.111.36.36,0,0,1-.08-.126.359.359,0,0,1,0-.29.441.441,0,0,1,.08-.126.4.4,0,0,1,.543,0,.44.44,0,0,1,.08.126.375.375,0,0,1,.031.145.379.379,0,0,1-.382.382Z" transform="translate(-162.778 -81.98)" fill="#27367e"/>
        </g>
      </g>
      <g id="Group_554" data-name="Group 554" transform="translate(0 1.501)">
        <g id="Group_553" data-name="Group 553">
          <path id="Path_313" data-name="Path 313" d="M159.233,42.605a.409.409,0,1,1,.042,0Zm.141-1.495a.383.383,0,1,1,.394-.371h0a.387.387,0,0,1-.386.371ZM159,39.241a.384.384,0,0,1,.367-.4.377.377,0,0,1,.4.367.384.384,0,0,1-.367.4h-.015A.386.386,0,0,1,159,39.241Zm-.111-1.472a.381.381,0,0,1,.757-.084h0a.388.388,0,0,1-.34.424h-.042A.381.381,0,0,1,158.888,37.769Zm-.221-1.457h0a.381.381,0,1,1,.443.306.4.4,0,0,1-.069.008A.385.385,0,0,1,158.667,36.312Zm-.321-1.438a.382.382,0,0,1,.271-.466.382.382,0,1,1,.2.738.411.411,0,0,1-.1.015A.384.384,0,0,1,158.345,34.875Zm-.424-1.411h0a.384.384,0,1,1,.489.237.359.359,0,0,1-.126.019A.377.377,0,0,1,157.921,33.464Zm-.486-1.434a.382.382,0,1,1,.73-.225.376.376,0,0,1-.252.474.3.3,0,0,1-.115.019A.384.384,0,0,1,157.436,32.03Zm-.4-1.472a.381.381,0,1,1,.741-.18v0a.386.386,0,0,1-.279.467.774.774,0,0,1-.092.008A.379.379,0,0,1,157.031,30.559Zm-.317-1.491a.383.383,0,0,1,.753-.138.389.389,0,0,1-.31.447.4.4,0,0,1-.069,0A.384.384,0,0,1,156.713,29.068Zm-.225-1.51a.383.383,0,1,1,.424.336c-.015,0-.031,0-.046,0A.383.383,0,0,1,156.488,27.558Zm-.13-1.518v0a.381.381,0,0,1,.363-.4.383.383,0,0,1,.039.765h-.019A.381.381,0,0,1,156.358,26.04Zm-.035-1.521a.382.382,0,1,1,.382.378A.381.381,0,0,1,156.323,24.518Zm0-1.5a.382.382,0,1,1,.382.382A.381.381,0,0,1,156.323,23.016Zm0-1.5a.382.382,0,1,1,.382.382A.381.381,0,0,1,156.323,21.513Z" transform="translate(-156.323 -21.131)" fill="#27367e"/>
        </g>
      </g>
      <g id="Group_556" data-name="Group 556" transform="translate(0)">
        <g id="Group_555" data-name="Group 555">
          <path id="Path_314" data-name="Path 314" d="M156.705,17.776a.382.382,0,0,1-.267-.653.4.4,0,0,1,.539,0,.445.445,0,0,1,.084.126.374.374,0,0,1,.027.146.378.378,0,0,1-.382.382Z" transform="translate(-156.323 -17.016)" fill="#27367e"/>
        </g>
      </g>
    </g>
    <g id="Group_648" data-name="Group 648" transform="translate(107.337 16.638)">
      <g id="Group_559" data-name="Group 559" transform="translate(2.68)">
        <g id="Group_558" data-name="Group 558">
          <path id="Path_315" data-name="Path 315" d="M119.079,17.765a.442.442,0,0,1-.073-.008.23.23,0,0,1-.073-.023.219.219,0,0,1-.065-.035c-.023-.015-.042-.031-.061-.046l-.046-.058a.28.28,0,0,1-.034-.069.233.233,0,0,1-.023-.069.385.385,0,0,1,0-.153.233.233,0,0,1,.023-.069.294.294,0,0,1,.034-.069l.046-.057c.019-.015.038-.031.061-.046a.219.219,0,0,1,.065-.035.23.23,0,0,1,.073-.023.321.321,0,0,1,.149,0,.242.242,0,0,1,.069.023.282.282,0,0,1,.069.035l.058.046a.388.388,0,0,1,0,.543l-.058.046a.282.282,0,0,1-.069.035.242.242,0,0,1-.069.023A.491.491,0,0,1,119.079,17.765Z" transform="translate(-118.697 -17)" fill="#27367e"/>
        </g>
      </g>
      <g id="Group_561" data-name="Group 561" transform="translate(0 1.503)">
        <g id="Group_560" data-name="Group 560">
          <path id="Path_316" data-name="Path 316" d="M111.462,42.254a.388.388,0,0,1,.34-.425.383.383,0,0,1,.084.761.166.166,0,0,1-.042,0A.385.385,0,0,1,111.462,42.254Zm-.111-1.525a.383.383,0,1,1,.765-.027.38.38,0,0,1-.367.394h-.015A.381.381,0,0,1,111.351,40.729Zm.371-1.135a.38.38,0,0,1-.367-.394v0a.383.383,0,0,1,.764.034v0a.38.38,0,0,1-.382.367Zm.088-1.5a.37.37,0,1,1,.046,0A.179.179,0,0,1,111.81,38.094Zm.2-1.487a.383.383,0,1,1,.443-.306.384.384,0,0,1-.374.314A.443.443,0,0,1,112.008,36.608Zm.3-1.472a.383.383,0,1,1,.195-.741.383.383,0,0,1-.1.753A.408.408,0,0,1,112.311,35.135Zm.4-1.445a.389.389,0,1,1,.126.019A.49.49,0,0,1,112.716,33.691Zm.493-1.422a.378.378,0,0,1-.252-.478.382.382,0,1,1,.363.5A.381.381,0,0,1,113.209,32.268Zm.42-1.441a.383.383,0,0,1-.282-.463.386.386,0,0,1,.462-.279.382.382,0,0,1-.088.753A.377.377,0,0,1,113.629,30.827Zm.337-1.461a.4.4,0,1,1,.065,0A.41.41,0,0,1,113.966,29.367Zm.244-1.484a.37.37,0,1,1,.042,0C114.237,27.887,114.226,27.883,114.21,27.883Zm.149-1.494a.393.393,0,1,1,.019,0Zm-.329-1.885a.382.382,0,0,1,.765,0,.382.382,0,1,1-.765,0Zm0-1.5a.382.382,0,1,1,.382.382A.383.383,0,0,1,114.031,23Zm0-1.5a.382.382,0,1,1,.382.382A.383.383,0,0,1,114.031,21.5Z" transform="translate(-111.35 -21.12)" fill="#27367e"/>
        </g>
      </g>
      <g id="Group_563" data-name="Group 563" transform="translate(0.329 23.704)">
        <g id="Group_562" data-name="Group 562">
          <path id="Path_317" data-name="Path 317" d="M112.635,82.732a.4.4,0,0,1-.149-.031.38.38,0,0,1-.122-.08.414.414,0,0,1-.084-.126.373.373,0,0,1-.027-.145.373.373,0,0,1,.233-.352.371.371,0,0,1,.222-.023.232.232,0,0,1,.073.023.209.209,0,0,1,.065.034.374.374,0,0,1,.057.046.374.374,0,0,1,.084.417.387.387,0,0,1-.084.126.227.227,0,0,1-.057.046.211.211,0,0,1-.065.035.241.241,0,0,1-.073.023A.5.5,0,0,1,112.635,82.732Z" transform="translate(-112.253 -81.967)" fill="#27367e"/>
        </g>
      </g>
    </g>
    <g id="Group_649" data-name="Group 649" transform="translate(115.829 28.49)">
      <path id="Path_318" data-name="Path 318" d="M136.1,50.439a3.913,3.913,0,0,1-1.207-.19.382.382,0,1,1,.236-.727,3.168,3.168,0,0,0,1.994-.017.382.382,0,1,1,.248.723A3.923,3.923,0,0,1,136.1,50.439Z" transform="translate(-134.626 -49.485)" fill="#27367e"/>
    </g>
  </g>
</svg>
