<svg id="Group_239" data-name="Group 239" xmlns="http://www.w3.org/2000/svg" xmlns:xlink="http://www.w3.org/1999/xlink" width="14.657" height="18.141" viewBox="0 0 14.657 18.141">
  <defs>
    <clipPath id="clip-path">
      <path id="Path_222" data-name="Path 222" d="M678.977,275.345a3.671,3.671,0,0,0,2.119,1.146,3.283,3.283,0,0,0,2.069-1.186c.19.206.907.762.907.762l-3.049,7.109-2.844-6.841Z" transform="translate(-678.179 -275.304)" fill="none"/>
    </clipPath>
  </defs>
  <g id="Group_267" data-name="Group 267" transform="translate(0 0)">
    <path id="Path_207" data-name="Path 207" d="M681.237,281.627v-.082c-.346-2.3-.913-2.779-4-4.254a3.333,3.333,0,0,0-1.507-.324l-3.547.075a3.369,3.369,0,0,0-1.053.194c-3.289,1.166-4.167,2.056-4.48,4.721h0a3.34,3.34,0,0,0,3.32,3.709h7.977a3.34,3.34,0,0,0,3.327-3.634Z" transform="translate(-666.628 -267.525)" fill="#9ddeda"/>
    <g id="Group_250" data-name="Group 250" transform="translate(4.966 8.251)">
      <path id="Path_208" data-name="Path 208" d="M680.405,273.742l-.329,1.236,2.3,1.853-.073-2.883Z" transform="translate(-680.076 -273.742)" fill="#cde3e8"/>
      <path id="Path_209" data-name="Path 209" d="M687.957,273.854l.33,1.236-2.3,1.853.073-2.883Z" transform="translate(-683.805 -273.813)" fill="#fff"/>
    </g>
    <path id="Path_210" data-name="Path 210" d="M679.088,275.233a3.666,3.666,0,0,0,2.119,1.144,3.277,3.277,0,0,0,2.069-1.186c.19.206.907.763.907.763l-3.05,7.108-2.843-6.841Z" transform="translate(-673.984 -266.406)" fill="#7fcfcf"/>
    <g id="Group_261" data-name="Group 261" transform="translate(3.546)">
      <g id="Group_253" data-name="Group 253" transform="translate(0 0.145)">
        <g id="Group_252" data-name="Group 252">
          <g id="Group_251" data-name="Group 251" transform="translate(1.498 8.13)">
            <path id="Path_211" data-name="Path 211" d="M680.287,273.807a4.1,4.1,0,0,0,.289.349l0-.007A4.246,4.246,0,0,1,680.287,273.807Z" transform="translate(-680.287 -273.807)" fill="#f99352"/>
          </g>
          <path id="Path_212" data-name="Path 212" d="M683.61,256.763c0-.418-.12-.587-.327-.655a5.124,5.124,0,0,0-.14-2.385,4.1,4.1,0,0,0-3.363-1.931,3.65,3.65,0,0,0-3.051,1.743,4.971,4.971,0,0,0-.135,2.515c-.229.061-.363.224-.363.667,0,.657.3,1.7.757,1.844.059.161.125.315.2.465,0,.009.011.018.014.025a5.669,5.669,0,0,0,.53.872,4.233,4.233,0,0,0,.292.343l0,.007a2.644,2.644,0,0,0,1.932.962,3.3,3.3,0,0,0,2.719-2.119,1.45,1.45,0,0,1,.171-.26c.038-.1.076-.192.109-.293A2.5,2.5,0,0,0,683.61,256.763Z" transform="translate(-676.231 -251.792)" fill="#f99352"/>
        </g>
      </g>
      <g id="Group_255" data-name="Group 255" transform="translate(3.589 0.146)">
        <g id="Group_254" data-name="Group 254">
          <path id="Path_213" data-name="Path 213" d="M688.8,259.116a1.456,1.456,0,0,1,.171-.26c.039-.1.076-.192.109-.293a2.5,2.5,0,0,0,.661-1.8c0-.418-.12-.587-.327-.656a5.121,5.121,0,0,0-.14-2.385,4.1,4.1,0,0,0-3.322-1.93v9.431c.044,0,.086.008.13.008A3.3,3.3,0,0,0,688.8,259.116Z" transform="translate(-685.951 -251.796)" fill="#feae73"/>
        </g>
      </g>
      <g id="Group_260" data-name="Group 260" transform="translate(0.226)">
        <path id="Path_214" data-name="Path 214" d="M682.317,253.1c.068.548-.962.525-1.649.411a3.435,3.435,0,0,0-1.732.205,2.359,2.359,0,0,0-1.373,1.191,8.235,8.235,0,0,0-.008,1.168l-.575-.268a7.234,7.234,0,0,1-.059-2.318c.2-.87.7-1.572,2.327-1.923,1.474-.318,2.507-.126,2.553.24.114.024.207-.068.343-.068a1.989,1.989,0,0,1,1.294.881,4.236,4.236,0,0,1,.377,2.851,1.133,1.133,0,0,1-.125.492l-.48.275s.213-1.878-.565-2.427C682.4,253.631,682.317,253.1,682.317,253.1Z" transform="translate(-676.842 -251.4)" fill="#2a3967"/>
        <g id="Group_259" data-name="Group 259" transform="translate(4.985 0.312)">
          <g id="Group_258" data-name="Group 258">
            <g id="Group_256" data-name="Group 256">
              <path id="Path_215" data-name="Path 215" d="M691.152,254.316c.779.55.566,2.427.566,2.427l.479-.274a1.138,1.138,0,0,0,.126-.492,4.238,4.238,0,0,0-.377-2.851,1.988,1.988,0,0,0-1.294-.881,1.508,1.508,0,0,0-.311.068c.146.485.486,1.18.483,1.295C690.824,253.607,690.906,254.143,691.152,254.316Z" transform="translate(-690.341 -252.244)" fill="#2a3967"/>
            </g>
            <g id="Group_257" data-name="Group 257" transform="translate(0.475 1.363)">
              <path id="Path_216" data-name="Path 216" d="M691.635,255.934c0,.034-.005.081-.008.127A.348.348,0,0,0,691.635,255.934Z" transform="translate(-691.627 -255.934)" fill="#2a3967"/>
            </g>
          </g>
        </g>
      </g>
    </g>
    <g id="Group_266" data-name="Group 266" transform="translate(4.265 8.827)">
      <g id="Group_265" data-name="Group 265" clip-path="url(#clip-path)">
        <g id="Group_264" data-name="Group 264" transform="translate(1.542 1.722)">
          <g id="Group_263" data-name="Group 263">
            <g id="Group_262" data-name="Group 262">
              <path id="Path_217" data-name="Path 217" d="M686.483,281.289h-.5v-1.322h1l.007.569Z" transform="translate(-684.641 -279.967)" fill="#e8f2fa"/>
              <path id="Path_218" data-name="Path 218" d="M686.5,283l.881,8.34-1.393,1.093-.029-.029-.051-9.4Z" transform="translate(-684.596 -281.88)" fill="#e8f2fa"/>
              <path id="Path_219" data-name="Path 219" d="M683.9,281.289h.422v-1.322H683.3l.007.569Z" transform="translate(-682.95 -279.967)" fill="#fff"/>
              <path id="Path_220" data-name="Path 220" d="M683.236,283l-.881,8.34,1.393,1.093-.017-8.252,0-1.181Z" transform="translate(-682.355 -281.88)" fill="#fff"/>
            </g>
            <path id="Path_221" data-name="Path 221" d="M685.765,283.346h-1.057v-.1h1.046Z" transform="translate(-683.839 -282.037)" fill="#e8f2fa"/>
          </g>
        </g>
      </g>
    </g>
  </g>
</svg>
