<svg xmlns="http://www.w3.org/2000/svg" width="35.218" height="27.249" viewBox="0 0 35.218 27.249">
  <g id="Group_949" data-name="Group 949" transform="translate(-506.391 -27.642)">
    <path id="Path_374" data-name="Path 374" d="M543.1,36.111a10.956,10.956,0,0,1,2.2,12.331l3.526,3.526a1.165,1.165,0,0,1,0,1.644l-1.93,1.93a1.165,1.165,0,0,1-1.644,0l-3.1-3.1a10.953,10.953,0,1,1,.944-16.331Z" transform="translate(-10.425 -3.045)" fill="#68bbea"/>
    <g id="Group_672" data-name="Group 672" transform="translate(506.391 27.642)">
      <g id="Group_666" data-name="Group 666" transform="translate(3.997)">
        <path id="Path_375" data-name="Path 375" d="M540.09,54.89a1.466,1.466,0,0,1-1.045-.433L534.789,50.2l-.18.112a12.27,12.27,0,1,1,3.94-3.946l-.112.18,4.257,4.258a1.486,1.486,0,0,1,0,2.093l-1.559,1.559A1.467,1.467,0,0,1,540.09,54.89ZM537.847,47.4c-.013.016-.072.086-.087.105q-.159.2-.326.394s-.109.126-.147.169c-.177.2-.328.359-.475.505s-.323.313-.524.491l-.134.116q-.2.172-.407.337l-.111.092-.24.186,4.155,4.155a.774.774,0,0,0,1.078,0l1.558-1.558a.768.768,0,0,0,0-1.081l-4.155-4.155Zm-9.705-19.041a11.545,11.545,0,1,0,6.5,21.091c.274-.187.555-.4.834-.628.3-.244.575-.5.832-.754.1-.1.2-.21.294-.318l.111-.125c.192-.212.345-.392.481-.564.155-.2.329-.415.487-.647l.009-.012a11.546,11.546,0,0,0-9.545-18.042Z" transform="translate(-515.881 -27.642)" fill="#27367e"/>
      </g>
      <g id="Group_667" data-name="Group 667" transform="translate(0 19.753)">
        <path id="Path_376" data-name="Path 376" d="M506.749,79.426a.358.358,0,0,1-.237-.627l4.739-4.173a.358.358,0,0,1,.474.538l-4.739,4.173A.357.357,0,0,1,506.749,79.426Z" transform="translate(-506.391 -74.537)" fill="#27367e"/>
      </g>
      <g id="Group_668" data-name="Group 668" transform="translate(7.841 10.194)">
        <path id="Path_377" data-name="Path 377" d="M530.145,60.906a.36.36,0,0,1-.169-.043l-3.264-1.748-1.117.952a.358.358,0,0,1-.5-.04.358.358,0,0,1,.04-.5l1.3-1.11a.36.36,0,0,1,.232-.085.364.364,0,0,1,.169.042l3.251,1.741,8.524-8.169a.36.36,0,0,1,.47-.022l4.529,3.564a.359.359,0,0,1-.222.64h0a.353.353,0,0,1-.221-.077l-4.285-3.371-8.486,8.133A.358.358,0,0,1,530.145,60.906Z" transform="translate(-525.005 -51.842)" fill="#27367e"/>
      </g>
      <g id="Group_669" data-name="Group 669" transform="translate(0.417 17.069)">
        <path id="Path_378" data-name="Path 378" d="M507.739,71.324a.358.358,0,0,1-.232-.632l2.89-2.444a.358.358,0,1,1,.463.547l-2.89,2.444A.356.356,0,0,1,507.739,71.324Z" transform="translate(-507.381 -68.164)" fill="#27367e"/>
      </g>
      <g id="Group_670" data-name="Group 670" transform="translate(6.065 4.851)">
        <path id="Path_379" data-name="Path 379" d="M521.148,49.391a.357.357,0,0,1-.358-.367.353.353,0,0,1,.111-.25l3.055-2.9.034-.029a.362.362,0,0,1,.1-.061l.026-.011a.367.367,0,0,1,.105-.017h.028a.352.352,0,0,1,.1.023.3.3,0,0,1,.035.014l.022.01,3.237,1.733,8.521-8.272a.357.357,0,0,1,.472-.024l3.572,2.834a.358.358,0,1,1-.446.561l-3.325-2.638-8.483,8.234a.359.359,0,0,1-.418.059l-3.253-1.742-2.89,2.748A.355.355,0,0,1,521.148,49.391Z" transform="translate(-520.79 -39.158)" fill="#27367e"/>
      </g>
      <g id="Group_671" data-name="Group 671" transform="translate(28.804 11.44)">
        <path id="Path_380" data-name="Path 380" d="M575.13,62.678a.358.358,0,0,1-.031-.715l2.6-.227-2.417-1.917a.358.358,0,0,1,.445-.561l2.757,2.186a.345.345,0,0,1,.071.08l.088.129,1.81-.158-.108-1.911-4.564-3.5a.359.359,0,0,1,.219-.643.352.352,0,0,1,.217.075l4.075,3.125-.2-3.462a.358.358,0,0,1,.716-.04l.377,6.663,0,.034v.036l-.013.052-.011.029-.016.035-.017.028-.02.029-.023.025-.026.025-.027.02-.031.019-.031.015-.036.014a.172.172,0,0,1-.034.008l-.048.009-5.69.5Z" transform="translate(-574.773 -54.801)" fill="#27367e"/>
      </g>
    </g>
  </g>
</svg>
