<svg id="Group_313" data-name="Group 313" xmlns="http://www.w3.org/2000/svg" width="10.868" height="12.959" viewBox="0 0 10.868 12.959">
  <path id="Path_269" data-name="Path 269" d="M845.8,333.9a2.606,2.606,0,0,0-3.929.74c-.676,1.356.277,1.635-.544,2.261a.635.635,0,0,0-.258.742c.21.408.693.7.338.959-.538.39-.3.912.468,1.41h4.8s1.406-.642.686-1.229c-.828-.676.1-.58.063-1.321-.025-.471-.564-.613-.477-1.152.13-.809-.155-2.177-1.151-2.409Z" transform="translate(-838.822 -333.333)" fill="#373737"/>
  <path id="Path_270" data-name="Path 270" d="M847.179,385.385c-.063.15,1.758,3.339,2.341,4.851h.3c.588-1.541,2.454-4.91,2.391-5.061-.072-.171.22-.013-.652-.536a1.775,1.775,0,0,1-.764-1.723h-2.247a1.775,1.775,0,0,1-.764,1.723C846.91,385.163,847.251,385.214,847.179,385.385Z" transform="translate(-844.265 -377.277)" fill="#f4ccaf"/>
  <path id="Path_271" data-name="Path 271" d="M839.6,422.086h1.238c.053-.281.08-.463.132-.643.044-.154-.007.062-.028.643h1.871v-2.673s-.935-.046-1.231-.525c-.068-.137-.251.182-.41.251a1.1,1.1,0,0,0-.707.616c-.1.311-.464.365-.555.973a2.982,2.982,0,0,0-.3,1.117A2.333,2.333,0,0,1,839.6,422.086Z" transform="translate(-837.556 -409.127)" fill="none"/>
  <path id="Path_272" data-name="Path 272" d="M829.792,398.785c.174.693.232,1.395.336,2.068h3.6c0-2-.008-3.6-.034-3.641a6.491,6.491,0,0,0-1.063-1.448c-.563-.534-.659-.57-.68-.662-.094-.415-.044-.091-.341.024s-2.592.947-2.671,1.052a.5.5,0,0,0-.062.122C829.484,396.51,829.7,397.907,829.792,398.785Z" transform="translate(-828.057 -387.894)" fill="#f4f4f4"/>
  <path id="Path_273" data-name="Path 273" d="M870.619,400.853c.1-.673.162-1.375.336-2.068.09-.878.308-2.275.909-2.485a.493.493,0,0,0-.062-.122c-.079-.105-2.374-.937-2.671-1.052s-.246-.439-.34-.024c-.021.092-.117.129-.68.662a6.481,6.481,0,0,0-1.063,1.448c-.026.042-.034,1.644-.034,3.641Z" transform="translate(-861.852 -387.894)" fill="#eee"/>
  <path id="Path_274" data-name="Path 274" d="M854.077,391.374c.08-.135.287.328,1.361,1.15.139.107-.716.563-.68.942s-1.176-1.05-1.114-1.557C853.652,391.834,853.873,391.719,854.077,391.374Z" transform="translate(-849.999 -384.752)" fill="#e2e2e2"/>
  <path id="Path_275" data-name="Path 275" d="M870.095,391.374c-.08-.135-.287.328-1.361,1.15-.139.107.716.563.68.942s1.176-1.05,1.114-1.557C870.519,391.834,870.3,391.719,870.095,391.374Z" transform="translate(-863.362 -384.752)" fill="#e2e2e2"/>
  <path id="Path_276" data-name="Path 276" d="M851.869,347.937q-.052.05-.106.1a2.33,2.33,0,0,1-.36.263,1.737,1.737,0,0,1-.347.156,1.641,1.641,0,0,1-.338.07,1.686,1.686,0,0,1-.431-.012,1.639,1.639,0,0,1-.34-.093,1.851,1.851,0,0,1-.35-.185,2.622,2.622,0,0,1-.365-.3c-.481-.464-.476-1.636-.592-1.554-.265.178-.435-.352-.468-.667s.111-.447.243-.315.134-.015.171-.188c.012-.056.027-.111.043-.165q.037-.125.085-.247a3.013,3.013,0,0,1,.134-.3,2.621,2.621,0,0,1,.192-.315,2.17,2.17,0,0,1,.258-.3,1.844,1.844,0,0,1,.332-.256,1.725,1.725,0,0,1,.414-.18,1.881,1.881,0,0,1,.52-.069,1.781,1.781,0,0,1,.5.072,1.725,1.725,0,0,1,.411.182,1.859,1.859,0,0,1,.33.257,2.191,2.191,0,0,1,.256.3,2.659,2.659,0,0,1,.191.314,2.988,2.988,0,0,1,.133.3c.031.081.059.163.084.246.016.054.03.108.042.163.037.173.039.32.171.188s.276,0,.243.315-.2.845-.468.667C852.345,346.3,852.349,347.473,851.869,347.937Z" transform="translate(-845.149 -342.24)" fill="#fcd4b5"/>
  <path id="Path_277" data-name="Path 277" d="M850.265,337.657a3.574,3.574,0,0,1,1.37.579c.648.341,1.473.615,1.589.709.051.041.091-.153.288-.211a2.929,2.929,0,0,0-.318-1.889,2.4,2.4,0,0,0-3.064-.655c-.1.057-.025.09-.283.158-.537.141-.87.986-.87,1.806s.1.468.224.7c.049.1.1-.376.535-.741Z" transform="translate(-845.867 -335.611)" fill="#373737"/>
  <path id="Path_278" data-name="Path 278" d="M900.43,410.448c-.2-2.063-.6-4.9-1.061-4.717-1.19.469-1.051,2.97-1.086,3.555a5.763,5.763,0,0,0,.151,1.162Z" transform="translate(-889.562 -397.489)" fill="#ddd"/>
  <path id="Path_279" data-name="Path 279" d="M823.621,410.448a5.756,5.756,0,0,0,.151-1.162c-.035-.585.1-3.086-1.086-3.555-.458-.18-.862,2.654-1.061,4.717Z" transform="translate(-821.626 -397.489)" fill="#ddd"/>
</svg>
