<svg id="Group_312" data-name="Group 312" xmlns="http://www.w3.org/2000/svg" width="11.768" height="12.96" viewBox="0 0 11.768 12.96">
  <g id="Group_303" data-name="Group 303" transform="translate(0 0)">
    <path id="Path_252" data-name="Path 252" d="M686.255,420.81a12.064,12.064,0,0,0-.5-2c-.6-1.145-1.68-1.258-2.824-1.578-.362-.1-2.565,3.075-2.565,3.075s-2.2-3.177-2.565-3.075c-1.145.32-2.243.422-2.838,1.566a11.7,11.7,0,0,0-.478,2.011Z" transform="translate(-674.487 -407.85)" fill="#2c2e3d"/>
    <path id="Path_253" data-name="Path 253" d="M708.892,416.968l-.419-.037h-4.352l-.29.046,1.767,3.375h1.875Z" transform="translate(-700.446 -407.586)" fill="#2c2e3d"/>
    <path id="Path_254" data-name="Path 254" d="M720.539,420.676a1.04,1.04,0,0,0-.711-.53c-.231-.006-.7.278-.683.5s.344.53.344.53l-.058.779.442.678.383-.678-.088-.779S720.565,420.858,720.539,420.676Z" transform="translate(-713.993 -410.43)" fill="#9e1d17"/>
    <path id="Path_255" data-name="Path 255" d="M719.859,422.61V420.15l-.03,0c-.231-.006-.7.278-.683.5s.344.53.344.53l-.058.779Z" transform="translate(-713.993 -410.43)" fill="#b31f1c"/>
    <path id="Path_256" data-name="Path 256" d="M716.758,403.052a1.839,1.839,0,0,1-1.1.619,2.578,2.578,0,0,1-1.27-.619s.027.736.028,1.011a5.869,5.869,0,0,1,1.2.961,3.541,3.541,0,0,1,1.232-.921C716.788,403.759,716.758,403.052,716.758,403.052Z" transform="translate(-709.784 -395.308)" fill="#eeae85"/>
    <path id="Path_257" data-name="Path 257" d="M741.336,375.031c-.1.194-.344.5-.6.413-.124-.04-.207-.605-.27-.77a2.116,2.116,0,0,1-.078-.661c.006-.172.073-.538.461-.523a.631.631,0,0,1,.634.566A3.4,3.4,0,0,1,741.336,375.031Z" transform="translate(-732.785 -369.158)" fill="#eeae85"/>
    <path id="Path_258" data-name="Path 258" d="M696.027,375.123c.1.2.4.606.722.437.123-.064.143-.6.218-.758a2,2,0,0,0,.114-.657.588.588,0,0,0-1.166,0A3.189,3.189,0,0,0,696.027,375.123Z" transform="translate(-693.442 -369.283)" fill="#eeae85"/>
    <path id="Path_259" data-name="Path 259" d="M695.789,420.81a22.268,22.268,0,0,0-.287-2.557c-.294-.913-.963-.817-1.654-1.02-.265-.078-2.534,3.075-2.534,3.075s-2.339-3.177-2.6-3.075c-.812.32-1.187-.043-1.609,1.1a17.85,17.85,0,0,0-.284,2.476Z" transform="translate(-685.401 -407.85)" fill="#383b4e"/>
    <path id="Path_260" data-name="Path 260" d="M704.125,346.2c-.448,1-1.442,2.152-2.074,2.152s-2.115-1.336-2.457-2.152a11.111,11.111,0,0,1-.521-3.32,2.662,2.662,0,0,1,5.322,0A7.952,7.952,0,0,1,704.125,346.2Z" transform="translate(-696.236 -339.797)" fill="#eeae85"/>
    <path id="Path_261" data-name="Path 261" d="M727.474,343.084a2.549,2.549,0,0,0-2.312-2.556v8.026c.633-.037,1.6-1.166,2.042-2.151A7.951,7.951,0,0,0,727.474,343.084Z" transform="translate(-719.315 -339.998)" fill="#eeae85"/>
    <path id="Path_262" data-name="Path 262" d="M679.608,366.89l-.221.072-.1-1.607.009,1.7h-.244v-.876l-.108.794-.307-.081.415-2.907h.339Z" transform="translate(-678.155 -360.747)" fill="#f1f1df"/>
    <rect id="Rectangle_218" data-name="Rectangle 218" width="0.185" height="3.085" transform="translate(0.966 0.246)" fill="#f1f1df"/>
    <path id="Path_263" data-name="Path 263" d="M727.258,411.666c-.562-.045-.785-.655-.96-.686s-1.214.794-1.232,1.057a1.665,1.665,0,0,1,.664.54c.053.133-.328.5-.328.5l.093.773A8.468,8.468,0,0,1,727.258,411.666Z" transform="translate(-719.231 -402.321)" fill="#f1f1df"/>
    <path id="Path_264" data-name="Path 264" d="M706.345,411.672c.562-.045.752-.655.928-.685s1.214.793,1.232,1.056a1.555,1.555,0,0,0-.632.54c-.052.133.328.5.328.5l-.093.773A8.471,8.471,0,0,0,706.345,411.672Z" transform="translate(-702.669 -402.327)" fill="#f1f1df"/>
    <path id="Path_265" data-name="Path 265" d="M702.508,344.979c.026-.277.033-.557.031-.829a.607.607,0,0,1,.322.179s-.168-1.2-.178-1.445a2.765,2.765,0,0,0-2.955-2.582,2.8,2.8,0,0,0-2.8,2.55c0,.276-.032,1.1,0,1.477a.9.9,0,0,1,.316-.172s.068.544.116.823a5.3,5.3,0,0,1,.248-1.188c.183-.462.71-.529.617-1.019,1.586.985,1.692-.2,3.2.524A1.9,1.9,0,0,1,702.508,344.979Z" transform="translate(-694.331 -339.797)" fill="#543522"/>
    <path id="Path_266" data-name="Path 266" d="M701.463,339.1H696.3s-.305,2.411-.386,2.732c0,0,2.316-.418,2.968,1.032.528-1.58,2.968-1.032,2.968-1.032C701.768,341.51,701.463,339.1,701.463,339.1Z" transform="translate(-693.442 -338.734)" fill="#383b4e"/>
    <path id="Path_267" data-name="Path 267" d="M691.151,336.179a.246.246,0,0,1-.246.246h-8.653a.246.246,0,0,1-.246-.246h0a.246.246,0,0,1,.246-.246H690.9a.246.246,0,0,1,.246.246Z" transform="translate(-681.138 -335.933)" fill="#2c2e3d"/>
    <path id="Path_268" data-name="Path 268" d="M682.13,361.976a.262.262,0,1,1-.262-.262A.262.262,0,0,1,682.13,361.976Z" transform="translate(-680.785 -358.739)" fill="#fd0"/>
    <rect id="Rectangle_219" data-name="Rectangle 219" width="1.629" height="0.272" transform="translate(7.764 12.495)" fill="#2c2e3d"/>
  </g>
</svg>
