<svg xmlns="http://www.w3.org/2000/svg" width="22.559" height="27.248" viewBox="0 0 22.559 27.248">
  <g id="Group_954" data-name="Group 954" transform="translate(-21.199 -11.524)">
    <path id="Path_293" data-name="Path 293" d="M48.993,38.641l0,0c-.1.237-.372,1.1-6.92,1.1s-6.825-.859-6.92-1.1l0,0a24.946,24.946,0,0,1-1.406-6.257c-.24-2.444.806-5.276,1.728-7.776a28.493,28.493,0,0,0,1.053-3.178c.465-1.982-.366-4.66-.989-6.262-.149-.384,1.36-2.168,6.5-2.168s6.719,1.785,6.569,2.168c-.624,1.6-1.453,4.28-.988,6.262a28.762,28.762,0,0,0,1.053,3.182c.922,2.5,1.968,5.328,1.728,7.772A24.969,24.969,0,0,1,48.993,38.641Z" transform="translate(-8.22 -0.97)" fill="#68bbea"/>
    <g id="Group_578" data-name="Group 578" transform="translate(21.199 11.524)">
      <g id="Group_573" data-name="Group 573" transform="translate(1.934)">
        <g id="Group_566" data-name="Group 566">
          <path id="Path_319" data-name="Path 319" d="M28.809,37.318a.492.492,0,0,1-.456-.307,25.541,25.541,0,0,1-1.473-6.529c-.262-2.671.826-5.615,1.786-8.212a28.8,28.8,0,0,0,1.017-3.064c.614-2.612-1.484-6.931-1.506-6.974a.491.491,0,1,1,.882-.434c.093.19,2.274,4.682,1.58,7.633a29.316,29.316,0,0,1-1.051,3.18c-.923,2.5-1.97,5.33-1.73,7.776a24.971,24.971,0,0,0,1.406,6.256.492.492,0,0,1-.27.64A.5.5,0,0,1,28.809,37.318Z" transform="translate(-26.841 -11.524)" fill="#27367e"/>
        </g>
        <g id="Group_567" data-name="Group 567" transform="translate(14.757 0.001)">
          <path id="Path_320" data-name="Path 320" d="M71.849,37.32a.479.479,0,0,1-.184-.037.491.491,0,0,1-.272-.639,25.057,25.057,0,0,0,1.4-6.256c.24-2.445-.805-5.275-1.729-7.773a29.41,29.41,0,0,1-1.051-3.183C69.325,16.482,71.5,11.99,71.6,11.8a.492.492,0,0,1,.883.433c-.021.044-2.118,4.367-1.506,6.975a28.93,28.93,0,0,0,1.018,3.067c.959,2.6,2.046,5.539,1.785,8.21a25.584,25.584,0,0,1-1.473,6.529A.493.493,0,0,1,71.849,37.32Z" transform="translate(-69.883 -11.526)" fill="#27367e"/>
        </g>
        <g id="Group_568" data-name="Group 568" transform="translate(2.491 1.446)">
          <path id="Path_321" data-name="Path 321" d="M47.325,18.5a.489.489,0,0,1-.381-.181c-.01-.011-1.418-1.59-5.983-1.59s-5.973,1.58-5.987,1.6a.493.493,0,0,1-.69.06.488.488,0,0,1-.068-.685c.065-.08,1.647-1.953,6.745-1.953s6.681,1.874,6.745,1.953a.491.491,0,0,1-.381.8Z" transform="translate(-34.106 -15.742)" fill="#27367e"/>
        </g>
        <g id="Group_569" data-name="Group 569" transform="translate(1.476 11.294)">
          <path id="Path_322" data-name="Path 322" d="M39.016,47.947c-5.691,0-7.689-2.584-7.771-2.693a.491.491,0,0,1,.785-.591c.026.034,1.843,2.3,6.986,2.3,5.2,0,6.967-2.277,6.985-2.3a.492.492,0,1,1,.787.589C46.7,45.363,44.707,47.947,39.016,47.947Z" transform="translate(-31.147 -44.467)" fill="#27367e"/>
        </g>
        <g id="Group_570" data-name="Group 570" transform="translate(0.176 15.792)">
          <path id="Path_323" data-name="Path 323" d="M36.519,62.695a.513.513,0,0,1-.486-.52c-.3-.628-4.563-2.39-8.339-3.629A.491.491,0,1,1,28,57.612c3.332,1.092,7.182,2.539,8.524,3.753,1.343-1.214,5.192-2.661,8.524-3.753a.491.491,0,1,1,.307.933c-3.749,1.23-7.979,2.975-8.341,3.672a.565.565,0,0,1-.01.063A.465.465,0,0,1,36.519,62.695Z" transform="translate(-27.354 -57.586)" fill="#27367e"/>
        </g>
        <g id="Group_571" data-name="Group 571" transform="translate(8.854 9.765)">
          <path id="Path_324" data-name="Path 324" d="M53.157,42.3a.491.491,0,0,1-.491-.492V40.5a.491.491,0,1,1,.982,0V41.81A.491.491,0,0,1,53.157,42.3Z" transform="translate(-52.666 -40.007)" fill="#27367e"/>
        </g>
        <g id="Group_572" data-name="Group 572" transform="translate(8.854 19.889)">
          <path id="Path_325" data-name="Path 325" d="M53.157,76.029a.491.491,0,0,1-.491-.491V70.027a.491.491,0,1,1,.982,0v5.511A.491.491,0,0,1,53.157,76.029Z" transform="translate(-52.666 -69.536)" fill="#27367e"/>
        </g>
      </g>
      <g id="Group_574" data-name="Group 574" transform="translate(1.934 3.378)">
        <path id="Path_326" data-name="Path 326" d="M27.332,27.8a.491.491,0,0,1-.385-.8c1.4-1.777.121-4.915.109-4.947a.491.491,0,1,1,.907-.378c.063.151,1.513,3.71-.244,5.934A.491.491,0,0,1,27.332,27.8Z" transform="translate(-26.841 -21.376)" fill="#27367e"/>
      </g>
      <g id="Group_575" data-name="Group 575" transform="translate(18.882 3.377)">
        <path id="Path_327" data-name="Path 327" d="M77.526,27.8a.49.49,0,0,1-.386-.187c-1.757-2.224-.307-5.783-.245-5.934a.492.492,0,0,1,.908.377c-.014.032-1.29,3.178.108,4.948a.491.491,0,0,1-.386.8Z" transform="translate(-76.274 -21.375)" fill="#27367e"/>
      </g>
      <g id="Group_576" data-name="Group 576" transform="translate(0 4.111)">
        <path id="Path_328" data-name="Path 328" d="M22.083,28.05a.491.491,0,0,1-.433-.723c.368-.69-.057-2.287-.412-3.132a.492.492,0,0,1,.906-.381c.112.268,1.079,2.651.373,3.976A.492.492,0,0,1,22.083,28.05Z" transform="translate(-21.199 -23.513)" fill="#27367e"/>
      </g>
      <g id="Group_577" data-name="Group 577" transform="translate(20.985 4.111)">
        <path id="Path_329" data-name="Path 329" d="M83.1,28.05a.491.491,0,0,1-.434-.26c-.706-1.325.261-3.708.373-3.976a.492.492,0,0,1,.906.381c-.355.845-.78,2.442-.412,3.132a.491.491,0,0,1-.434.723Z" transform="translate(-82.41 -23.513)" fill="#27367e"/>
      </g>
    </g>
  </g>
</svg>
