<svg id="Group_240" data-name="Group 240" xmlns="http://www.w3.org/2000/svg" width="21.22" height="18.141" viewBox="0 0 21.22 18.141">
  <path id="Rectangle_210" data-name="Rectangle 210" d="M.384,0h.823a.384.384,0,0,1,.384.384v0a.383.383,0,0,1-.383.383H.384A.384.384,0,0,1,0,.384v0A.384.384,0,0,1,.384,0Z" transform="translate(16.17 6.142)" fill="#fff"/>
  <path id="Rectangle_211" data-name="Rectangle 211" d="M.384,0h.821a.385.385,0,0,1,.385.385v0a.383.383,0,0,1-.383.383H.384A.384.384,0,0,1,0,.384v0A.384.384,0,0,1,.384,0Z" transform="translate(18.779 6.142)" fill="#fff"/>
  <path id="Rectangle_212" data-name="Rectangle 212" d="M.385,0h1.13A.384.384,0,0,1,1.9.384v0A.385.385,0,0,1,1.514.77H.384A.384.384,0,0,1,0,.385v0A.385.385,0,0,1,.385,0Z" transform="translate(13.262 6.128)" fill="#fff"/>
  <path id="Path_223" data-name="Path 223" d="M616.7,277.006a.558.558,0,0,1-.558.559h-1.4a.558.558,0,0,1-.557-.559h0a.558.558,0,0,1,.557-.558h1.4a.558.558,0,0,1,.558.558Z" transform="translate(-604.486 -267.298)" fill="#cde3e8"/>
  <g id="Group_271" data-name="Group 271" transform="translate(0)">
    <path id="Path_224" data-name="Path 224" d="M598.061,270.506l.427-2.392,7.521-3.931,3.931.854,5.128,3.248-1.453,2.9-7.863,4.188Z" transform="translate(-595.653 -260.579)" fill="#fff"/>
    <g id="Group_270" data-name="Group 270">
      <path id="Path_225" data-name="Path 225" d="M611.209,256.833c-3.266-1.821-6.786.861-7.907,1.648-1.119-.787-4.708-3.318-7.905-1.648-2.945,1.539-4.38,7.427.727,12.141a35.4,35.4,0,0,0,7.165,5.373.031.031,0,0,0,.036,0,38.444,38.444,0,0,0,7.155-5.37C615.8,264.153,614.163,258.481,611.209,256.833Zm-.725,8.834h-3.1a.258.258,0,0,1-.251-.191l-.381-1.37-.668,2.164a.262.262,0,0,1-.243.183h-.006a.258.258,0,0,1-.242-.165l-.246-.621h-.85l-.68,3.329a.261.261,0,0,1-.26.207h-.01l0-.118-.007.118a.261.261,0,0,1-.245-.24l-.416-5.285-.2,1.629a.26.26,0,0,1-.259.228h-.959l-.244.621a.262.262,0,0,1-.486,0l-.245-.621h-.546a.26.26,0,0,1-.241-.162l-.273-.667-.255.742a.262.262,0,0,1-.246.176h-2.479a.261.261,0,0,1,0-.522h2.293l.421-1.221a.262.262,0,0,1,.236-.176h.01a.262.262,0,0,1,.242.162l.468,1.148h.548a.206.206,0,0,1,.21.148l.107.364.106-.346c.039-.1.089-.165.2-.165h.905l.488-3.962a.26.26,0,0,1,.259-.23h.018a.259.259,0,0,1,.242.239l.475,6.016.352-1.726a.263.263,0,0,1,.255-.209h1.24a.222.222,0,0,1,.213.161l.07.257.706-2.458a.26.26,0,0,1,.245-.184h.021a.259.259,0,0,1,.236.19l.566,2.035h2.9a.261.261,0,0,1,0,.521Z" transform="translate(-592.735 -256.211)" fill="#fe912b"/>
      <g id="Group_269" data-name="Group 269" transform="translate(10.559)">
        <path id="Path_226" data-name="Path 226" d="M616.12,274.345a38.488,38.488,0,0,0,7.155-5.371c5.317-4.819,3.683-10.492.728-12.141-3.266-1.821-6.786.861-7.906,1.648l-.008-.006v3.744l.384,4.86.352-1.725a.261.261,0,0,1,.255-.209h1.24a.221.221,0,0,1,.213.16l.071.257.706-2.459a.26.26,0,0,1,.245-.184h.021a.261.261,0,0,1,.235.191l.566,2.035h2.9a.261.261,0,0,1,0,.522h-3.1a.259.259,0,0,1-.251-.191l-.381-1.37-.668,2.163a.263.263,0,0,1-.243.183h-.006a.259.259,0,0,1-.242-.166l-.245-.62h-.849l-.68,3.328a.261.261,0,0,1-.259.208h-.009l0-.119-.007.119a.262.262,0,0,1-.245-.24l-.009-.115v5.5A.034.034,0,0,0,616.12,274.345Z" transform="translate(-616.088 -256.211)" fill="#fe771a"/>
      </g>
    </g>
  </g>
</svg>
